<?xml version="1.0" encoding="UTF-8" standalone="no"?>
<!DOCTYPE svg PUBLIC "-//W3C//DTD SVG 1.1//EN" "http://www.w3.org/Graphics/SVG/1.1/DTD/svg11.dtd">
<svg width="100%" height="100%" viewBox="0 0 506 334" version="1.1" xmlns="http://www.w3.org/2000/svg" xmlns:xlink="http://www.w3.org/1999/xlink" xml:space="preserve" xmlns:serif="http://www.serif.com/" style="fill-rule:evenodd;clip-rule:evenodd;stroke-linejoin:round;stroke-miterlimit:2;">
    <g id="shape" transform="matrix(0.776761,0,0,0.776761,-8.54485,-3.45153)">
        <g transform="matrix(1.29469,0,0,1.30182,-622.71,-304.444)">
            <rect x="489.469" y="237.274" width="502.569" height="329.48" style="fill:rgb(160,217,255);"/>
        </g>
        <g transform="matrix(4.75491,0,0,1.3077,-106.64,16.4035)">
            <rect x="24.741" y="282.096" width="136.842" height="36.758" style="fill:rgb(76,98,20);"/>
        </g>
        <g transform="matrix(0.520277,0,0,0.454987,-109.434,-213.83)">
            <path d="M1125.14,532.643C1129.13,528.895 1133.13,525.146 1137.26,521.553C1142.71,516.813 1147.76,511.482 1153.88,507.651C1159.76,503.973 1166.44,501.741 1172.9,499.247C1199.53,488.979 1230.5,484.302 1258.41,491.914C1287.02,499.719 1318.2,522.019 1330.96,549.992C1335.14,559.156 1333.03,571.988 1340.6,578.629C1349.3,586.261 1363.16,583.995 1374.09,587.812C1382.8,590.854 1391.1,595.019 1399.35,599.146C1422.53,610.736 1446.1,625.971 1459.15,649.299C1470.65,669.851 1473.11,700.607 1462.38,721.889C1445.38,755.57 1413.24,779.227 1377.99,790.412C1330.26,805.559 1280.62,808.323 1231.96,795.463C1221.95,792.818 1201.64,785.15 1191.73,779.936C1185.23,776.515 1179.84,770.841 1172.86,768.536C1171.01,767.925 1169.85,771.009 1168.3,772.197C1165.41,774.417 1162.81,777.106 1159.56,778.756C1142.26,787.551 1125.27,790.892 1106.03,790.5C1087.39,790.12 1065.15,783.757 1051.59,770.305C1044.63,763.392 1047.51,761.446 1041.04,753.992C1039.32,751.996 1034.92,753.165 1033.12,752.681C1021.27,749.499 1009.4,746.255 997.869,742.068C977.132,734.54 959.729,720.393 945.319,704.148C935.942,693.577 926.051,680.858 922.815,666.736C920.398,656.186 920.402,644.167 920.764,633.598C921.131,622.894 923.476,614.75 927.351,604.398C929.861,597.692 932.139,590.759 936.031,584.747C961.819,544.912 1007.25,525.894 1052.99,522.412C1064.42,521.543 1076.53,522.046 1087.81,524.221C1100.33,526.635 1114.96,524.956 1125.14,532.643Z" style="fill:rgb(55,46,71);"/>
            <path d="M1124.93,529.182C1128.49,525.837 1132.07,522.507 1135.76,519.3C1141.31,514.476 1146.46,509.068 1152.69,505.168C1158.69,501.413 1165.51,499.113 1172.11,496.566C1199.16,486.134 1230.63,481.429 1258.98,489.162C1288.26,497.147 1320.1,520.063 1333.15,548.684C1335.35,553.491 1335.94,559.244 1336.93,564.682C1337.75,569.19 1338.81,573.496 1342.1,576.383C1346.12,579.907 1351.36,581.046 1356.82,581.844C1362.88,582.729 1369.22,583.153 1374.81,585.106C1383.62,588.18 1392,592.383 1400.34,596.553C1423.97,608.367 1447.93,623.996 1461.24,647.774C1473.2,669.157 1475.69,701.161 1464.52,723.303C1447.22,757.594 1414.54,781.751 1378.65,793.139C1330.52,808.412 1280.46,811.187 1231.4,798.22C1221.27,795.543 1200.73,787.782 1190.7,782.506C1184.42,779.203 1179.22,773.714 1172.53,771.376C1172.36,771.559 1172.07,771.874 1171.89,772.102C1171.18,773.009 1170.46,773.951 1169.68,774.546C1166.68,776.856 1163.95,779.624 1160.57,781.342C1142.92,790.309 1125.6,793.729 1105.98,793.329C1086.8,792.938 1063.92,786.291 1049.97,772.442C1046.09,768.594 1044.97,766.118 1043.9,763.577C1043.03,761.504 1042.22,759.367 1039.29,755.983C1039.11,755.776 1038.81,755.768 1038.51,755.713C1038.06,755.629 1037.57,755.605 1037.08,755.599C1035.33,755.579 1033.57,755.71 1032.55,755.436C1020.64,752.237 1008.72,748.973 997.121,744.765C975.998,737.097 958.26,722.71 943.582,706.162C933.896,695.244 923.764,682.04 920.422,667.453C917.944,656.639 917.921,644.321 918.292,633.487C918.671,622.419 921.069,613.989 925.076,603.285C927.661,596.378 930.035,589.254 934.042,583.064C960.244,542.588 1006.35,523.127 1052.83,519.589C1064.45,518.705 1076.76,519.22 1088.22,521.43C1094.44,522.63 1101.18,522.806 1107.63,523.643C1113.87,524.453 1119.84,525.891 1124.93,529.182ZM1123.78,535.004C1124.68,535.688 1125.87,535.617 1126.71,534.83C1130.68,531.105 1134.65,527.377 1138.76,523.805C1144.11,519.15 1149.05,513.895 1155.07,510.133C1160.82,506.533 1167.36,504.37 1173.69,501.928C1199.9,491.824 1230.38,487.176 1257.84,494.666C1285.79,502.29 1316.31,523.975 1328.77,551.301C1330.75,555.657 1331.19,560.903 1332.08,565.832C1333.15,571.691 1334.81,577.121 1339.09,580.874C1343.78,584.983 1349.82,586.527 1356.2,587.458C1361.98,588.302 1368.03,588.654 1373.37,590.518C1381.99,593.529 1390.19,597.655 1398.36,601.738C1421.1,613.104 1444.27,627.947 1457.07,650.824C1468.1,670.545 1470.53,700.054 1460.23,720.475C1443.55,753.547 1411.94,776.703 1377.33,787.686C1329.99,802.706 1280.77,805.458 1232.51,792.706C1222.62,790.092 1202.56,782.517 1192.76,777.365C1186.15,773.885 1180.65,768.162 1173.55,765.818C1171.96,765.292 1170.55,765.828 1169.29,767.075C1168.47,767.876 1167.78,769.193 1166.92,769.849C1164.15,771.977 1161.67,774.588 1158.56,776.171C1141.59,784.793 1124.93,788.056 1106.07,787.671C1087.98,787.302 1066.37,781.224 1053.21,768.168C1050.13,765.104 1049.21,763.15 1048.36,761.126C1047.31,758.633 1046.33,756.07 1042.8,752C1041.73,750.766 1040.06,750.13 1038.19,749.985C1036.53,749.855 1034.67,750.193 1033.68,749.927C1021.89,746.761 1010.09,743.536 998.618,739.371C978.266,731.983 961.199,718.076 947.056,702.133C937.988,691.91 928.338,679.676 925.209,666.019C922.852,655.733 922.884,644.013 923.237,633.709C923.591,623.37 925.882,615.511 929.625,605.512C932.061,599.005 934.244,592.263 938.02,586.431C963.393,547.236 1008.15,528.661 1053.16,525.235C1064.4,524.38 1076.31,524.872 1087.4,527.011C1093.7,528.226 1100.54,528.418 1107.07,529.266C1113.17,530.057 1119,531.399 1123.78,535.004Z" style="fill:rgb(165,146,191);"/>
        </g>
        <g transform="matrix(-0.49185,-0.00696894,0.00607807,-0.428975,962.075,391.869)">
            <path d="M1125.14,532.643C1129.13,528.895 1133.13,525.146 1137.26,521.553C1142.71,516.813 1147.76,511.482 1153.88,507.651C1159.76,503.973 1166.44,501.741 1172.9,499.247C1199.53,488.979 1230.5,484.302 1258.41,491.914C1287.02,499.719 1318.2,522.019 1330.96,549.992C1335.14,559.156 1333.03,571.988 1340.6,578.629C1349.3,586.261 1363.16,583.995 1374.09,587.812C1382.8,590.854 1391.1,595.019 1399.35,599.146C1422.53,610.736 1446.1,625.971 1459.15,649.299C1470.65,669.851 1473.11,700.607 1462.38,721.889C1445.38,755.57 1413.24,779.227 1377.99,790.412C1330.26,805.559 1280.62,808.323 1231.96,795.463C1221.95,792.818 1201.64,785.15 1191.73,779.936C1185.23,776.515 1179.84,770.841 1172.86,768.536C1171.01,767.925 1169.85,771.009 1168.3,772.197C1165.41,774.417 1162.81,777.106 1159.56,778.756C1142.26,787.551 1125.27,790.892 1106.03,790.5C1087.39,790.12 1065.15,783.757 1051.59,770.305C1044.63,763.392 1047.51,761.446 1041.04,753.992C1039.32,751.996 1034.92,753.165 1033.12,752.681C1021.27,749.499 1009.4,746.255 997.869,742.068C977.132,734.54 959.729,720.393 945.319,704.148C935.942,693.577 926.051,680.858 922.815,666.736C920.398,656.186 920.402,644.167 920.764,633.598C921.131,622.894 923.476,614.75 927.351,604.398C929.861,597.692 932.139,590.759 936.031,584.747C961.819,544.912 1007.25,525.894 1052.99,522.412C1064.42,521.543 1076.53,522.046 1087.81,524.221C1100.33,526.635 1114.96,524.956 1125.14,532.643Z" style="fill:rgb(81,75,93);"/>
            <path d="M1124.91,528.979C1128.46,525.656 1132.01,522.348 1135.68,519.162C1141.23,514.333 1146.39,508.92 1152.63,505.017C1158.63,501.256 1165.46,498.953 1172.07,496.403C1199.14,485.962 1230.64,481.255 1259.02,488.995C1288.33,496.99 1320.21,519.943 1333.28,548.602C1335.48,553.423 1336.08,559.191 1337.07,564.646C1337.88,569.112 1338.93,573.384 1342.19,576.245C1346.19,579.752 1351.4,580.88 1356.84,581.674C1362.91,582.56 1369.25,582.986 1374.85,584.941C1383.66,588.018 1392.05,592.222 1400.4,596.395C1424.06,608.222 1448.04,623.874 1461.35,647.679C1473.34,669.114 1475.84,701.196 1464.64,723.391C1447.32,757.718 1414.61,781.905 1378.69,793.304C1330.54,808.584 1280.46,811.36 1231.37,798.387C1221.23,795.709 1200.67,787.942 1190.64,782.663C1184.39,779.375 1179.21,773.916 1172.56,771.566C1172.39,771.747 1172.15,772.022 1171.99,772.219C1171.28,773.136 1170.54,774.088 1169.76,774.69C1166.75,777.005 1164.01,779.778 1160.62,781.5C1142.96,790.477 1125.62,793.901 1105.98,793.5C1086.76,793.109 1063.86,786.445 1049.88,772.574C1045.98,768.702 1044.85,766.21 1043.77,763.654C1042.91,761.594 1042.1,759.47 1039.19,756.107C1039.03,755.921 1038.76,755.932 1038.49,755.882C1038.04,755.799 1037.56,755.776 1037.08,755.77C1035.32,755.75 1033.55,755.879 1032.52,755.603C1020.61,752.403 1008.68,749.138 997.08,744.929C975.935,737.253 958.178,722.852 943.484,706.287C933.78,695.347 923.633,682.114 920.284,667.498C917.802,656.668 917.777,644.33 918.149,633.48C918.529,622.389 920.93,613.941 924.946,603.215C927.535,596.296 929.915,589.16 933.929,582.959C960.155,542.447 1006.3,522.959 1052.82,519.418C1064.45,518.533 1076.77,519.049 1088.24,521.261C1094.46,522.46 1101.2,522.636 1107.65,523.473C1113.87,524.281 1119.83,525.715 1124.91,528.979ZM1123.7,535.149C1124.65,535.871 1125.91,535.797 1126.8,534.965C1130.76,531.241 1134.73,527.515 1138.84,523.944C1144.19,519.294 1149.13,514.043 1155.13,510.285C1160.88,506.69 1167.41,504.53 1173.74,502.091C1199.92,491.996 1230.37,487.35 1257.8,494.833C1285.71,502.447 1316.2,524.095 1328.64,551.383C1330.62,555.725 1331.05,560.955 1331.94,565.868C1333.02,571.769 1334.7,577.233 1339.01,581.012C1343.71,585.138 1349.78,586.693 1356.18,587.628C1361.95,588.471 1368,588.821 1373.33,590.682C1381.94,593.691 1390.14,597.815 1398.31,601.897C1421.01,613.249 1444.16,628.069 1456.95,650.919C1467.95,670.588 1470.38,700.019 1460.11,720.386C1443.44,753.423 1411.87,776.549 1377.29,787.52C1329.98,802.534 1280.78,805.285 1232.55,792.539C1222.66,789.927 1202.61,782.357 1192.82,777.208C1186.2,773.725 1180.69,767.999 1173.59,765.652C1171.95,765.111 1170.5,765.659 1169.2,766.943C1168.39,767.74 1167.69,769.052 1166.84,769.705C1164.08,771.828 1161.61,774.434 1158.5,776.013C1141.56,784.625 1124.91,787.884 1106.07,787.5C1088.02,787.132 1066.44,781.07 1053.31,768.036C1049.55,764.307 1048.99,762.17 1047.88,759.622C1046.97,757.525 1045.77,755.186 1042.9,751.876C1041.81,750.618 1040.11,749.962 1038.2,749.814C1036.55,749.685 1034.7,750.025 1033.71,749.76C1021.93,746.594 1010.13,743.371 998.659,739.207C978.329,731.827 961.281,717.934 947.154,702.008C938.105,691.806 928.469,679.602 925.347,665.974C922.994,655.705 923.027,644.003 923.38,633.716C923.733,623.4 926.021,615.558 929.756,605.582C932.187,599.087 934.364,592.357 938.132,586.536C963.482,547.378 1008.2,528.829 1053.17,525.406C1064.39,524.552 1076.29,525.043 1087.38,527.18C1093.68,528.396 1100.52,528.588 1107.06,529.437C1113.13,530.224 1118.94,531.557 1123.7,535.149Z" style="fill:rgb(165,146,191);"/>
        </g>
        <g transform="matrix(0.417288,-0.0158215,0.0160609,0.423602,-272.385,-171.928)">
            <path d="M1125.14,532.643C1129.13,528.895 1133.13,525.146 1137.26,521.553C1142.71,516.813 1147.76,511.482 1153.88,507.651C1159.76,503.973 1166.44,501.741 1172.9,499.247C1199.53,488.979 1230.5,484.302 1258.41,491.914C1287.02,499.719 1318.2,522.019 1330.96,549.992C1335.14,559.156 1333.03,571.988 1340.6,578.629C1349.3,586.261 1363.16,583.995 1374.09,587.812C1382.8,590.854 1391.1,595.019 1399.35,599.146C1422.53,610.736 1446.1,625.971 1459.15,649.299C1470.65,669.851 1473.11,700.607 1462.38,721.889C1445.38,755.57 1413.24,779.227 1377.99,790.412C1330.26,805.559 1280.62,808.323 1231.96,795.463C1221.95,792.818 1201.64,785.15 1191.73,779.936C1185.23,776.515 1179.84,770.841 1172.86,768.536C1171.01,767.925 1169.85,771.009 1168.3,772.197C1165.41,774.417 1162.81,777.106 1159.56,778.756C1142.26,787.551 1125.27,790.892 1106.03,790.5C1087.39,790.12 1065.15,783.757 1051.59,770.305C1044.63,763.392 1047.51,761.446 1041.04,753.992C1039.32,751.996 1034.92,753.165 1033.12,752.681C1021.27,749.499 1009.4,746.255 997.869,742.068C977.132,734.54 959.729,720.393 945.319,704.148C935.942,693.577 926.051,680.858 922.815,666.736C920.398,656.186 920.402,644.167 920.764,633.598C921.131,622.894 923.476,614.75 927.351,604.398C929.861,597.692 932.139,590.759 936.031,584.747C961.819,544.912 1007.25,525.894 1052.99,522.412C1064.42,521.543 1076.53,522.046 1087.81,524.221C1100.33,526.635 1114.96,524.956 1125.14,532.643Z" style="fill:rgb(55,46,71);"/>
            <path d="M1124.83,528.743C1128.25,525.539 1131.68,522.351 1135.22,519.276C1140.79,514.431 1145.97,509.003 1152.23,505.087C1158.27,501.305 1165.13,498.984 1171.78,496.419C1199.01,485.918 1230.69,481.203 1259.23,488.987C1288.65,497.01 1320.66,519.991 1333.77,548.748C1335.96,553.547 1336.56,559.293 1337.54,564.722C1338.36,569.206 1339.37,573.488 1342.65,576.36C1346.55,579.782 1351.65,580.871 1356.96,581.647C1363.08,582.54 1369.47,582.978 1375.12,584.949C1383.96,588.036 1392.38,592.251 1400.75,596.438C1424.46,608.295 1448.5,623.968 1461.85,647.833C1473.79,669.182 1476.29,701.134 1465.14,723.24C1447.77,757.659 1414.96,781.873 1378.94,793.303C1330.63,808.631 1280.4,811.409 1231.16,798.396C1220.99,795.708 1200.35,787.913 1190.28,782.615C1184.21,779.422 1179.17,774.165 1172.79,771.738C1172.53,772.045 1172.2,772.446 1171.98,772.728C1171.41,773.452 1170.82,774.118 1170.2,774.592C1167.16,776.927 1164.39,779.719 1160.98,781.455C1143.19,790.493 1125.73,793.94 1105.96,793.536C1086.59,793.141 1063.5,786.431 1049.4,772.444C1045.5,768.565 1044.36,766.074 1043.28,763.513C1042.42,761.466 1041.63,759.353 1038.75,756.026C1038.66,755.998 1038.27,755.886 1038.03,755.859C1037.45,755.793 1036.84,755.8 1036.26,755.813C1034.69,755.848 1033.23,755.86 1032.31,755.611C1020.37,752.405 1008.42,749.135 996.803,744.917C975.581,737.213 957.745,722.771 942.998,706.146C933.3,695.213 923.155,682.01 919.808,667.405C917.334,656.609 917.313,644.311 917.683,633.495C918.062,622.446 920.458,614.033 924.458,603.347C927.044,596.438 929.422,589.308 933.432,583.114C959.753,542.455 1006.06,522.938 1052.76,519.384C1064.46,518.494 1076.85,519.014 1088.4,521.24C1094.6,522.436 1101.33,522.609 1107.76,523.444C1113.89,524.24 1119.77,525.639 1124.83,528.743ZM1123.26,535.053C1124.47,535.963 1126.16,535.873 1127.26,534.842C1131.23,531.121 1135.2,527.397 1139.3,523.829C1144.63,519.195 1149.55,513.96 1155.53,510.214C1161.24,506.641 1167.74,504.499 1174.03,502.075C1200.05,492.04 1230.32,487.402 1257.59,494.841C1285.4,502.427 1315.75,524.048 1328.15,551.237C1330.14,555.602 1330.58,560.853 1331.47,565.791C1332.54,571.675 1334.25,577.128 1338.55,580.897C1343.35,585.107 1349.53,586.701 1356.06,587.655C1361.78,588.491 1367.78,588.829 1373.06,590.674C1381.65,593.673 1389.82,597.786 1397.96,601.854C1420.6,613.177 1443.7,627.975 1456.45,650.765C1467.5,670.52 1469.93,700.081 1459.61,720.537C1443,753.481 1411.52,776.581 1377.05,787.522C1329.88,802.487 1280.83,805.236 1232.76,792.53C1222.91,789.927 1202.93,782.386 1193.18,777.257C1186.53,773.757 1180.98,768.014 1173.84,765.657C1172.27,765.136 1170.84,765.44 1169.54,766.379C1168.9,766.837 1168.28,767.504 1167.69,768.25C1167.26,768.798 1166.88,769.44 1166.4,769.803C1163.67,771.907 1161.23,774.493 1158.15,776.058C1141.32,784.609 1124.8,787.845 1106.09,787.464C1088.19,787.099 1066.8,781.084 1053.78,768.166C1050.72,765.132 1049.82,763.193 1048.98,761.19C1047.92,758.685 1046.93,756.11 1043.39,752.02C1042.2,750.644 1040.35,749.942 1038.27,749.78C1037.25,749.701 1036.18,749.74 1035.22,749.764C1034.7,749.778 1034.25,749.837 1033.93,749.751C1022.16,746.592 1010.38,743.375 998.935,739.218C978.683,731.866 961.714,718.015 947.641,702.149C938.585,691.94 928.948,679.706 925.823,666.067C923.462,655.763 923.492,644.023 923.846,633.7C924.2,623.342 926.493,615.466 930.243,605.449C932.678,598.946 934.857,592.209 938.63,586.38C963.884,547.369 1008.43,528.85 1053.23,525.44C1064.39,524.591 1076.21,525.079 1087.22,527.201C1093.54,528.42 1100.39,528.615 1106.95,529.466C1112.9,530.238 1118.6,531.534 1123.26,535.053Z" style="fill:rgb(165,146,191);"/>
        </g>
        <g transform="matrix(0.452743,0,0,0.328154,-393.028,-149.058)">
            <path d="M1125.14,532.643C1129.13,528.895 1133.13,525.146 1137.26,521.553C1142.71,516.813 1147.76,511.482 1153.88,507.651C1159.76,503.973 1166.44,501.741 1172.9,499.247C1199.53,488.979 1230.5,484.302 1258.41,491.914C1287.02,499.719 1318.2,522.019 1330.96,549.992C1335.14,559.156 1333.03,571.988 1340.6,578.629C1349.3,586.261 1363.16,583.995 1374.09,587.812C1382.8,590.854 1391.1,595.019 1399.35,599.146C1422.53,610.736 1446.1,625.971 1459.15,649.299C1470.65,669.851 1473.11,700.607 1462.38,721.889C1445.38,755.57 1413.24,779.227 1377.99,790.412C1330.26,805.559 1280.62,808.323 1231.96,795.463C1221.95,792.818 1201.64,785.15 1191.73,779.936C1185.23,776.515 1179.84,770.841 1172.86,768.536C1171.01,767.925 1169.85,771.009 1168.3,772.197C1165.41,774.417 1162.81,777.106 1159.56,778.756C1142.26,787.551 1125.27,790.892 1106.03,790.5C1087.39,790.12 1065.15,783.757 1051.59,770.305C1044.63,763.392 1047.51,761.446 1041.04,753.992C1039.32,751.996 1034.92,753.165 1033.12,752.681C1021.27,749.499 1009.4,746.255 997.869,742.068C977.132,734.54 959.729,720.393 945.319,704.148C935.942,693.577 926.051,680.858 922.815,666.736C920.398,656.186 920.402,644.167 920.764,633.598C921.131,622.894 923.476,614.75 927.351,604.398C929.861,597.692 932.139,590.759 936.031,584.747C961.819,544.912 1007.25,525.894 1052.99,522.412C1064.42,521.543 1076.53,522.046 1087.81,524.221C1100.33,526.635 1114.96,524.956 1125.14,532.643Z" style="fill:rgb(104,94,120);"/>
            <path d="M1124.93,528.099C1128.49,524.76 1132.06,521.436 1135.74,518.234C1141.3,513.4 1146.46,507.986 1152.7,504.078C1158.71,500.32 1165.53,498.017 1172.14,495.469C1199.18,485.043 1230.63,480.337 1258.96,488.065C1288.34,496.079 1320.27,519.181 1333.37,547.903C1335.62,552.837 1336.25,558.723 1337.27,564.304C1338.03,568.536 1339.03,572.607 1342.12,575.318C1346.13,578.834 1351.36,579.953 1356.81,580.75C1362.86,581.634 1369.2,582.057 1374.79,584.008C1383.6,587.084 1391.98,591.286 1400.32,595.457C1424.03,607.309 1448.06,623.047 1461.4,646.902C1473.63,668.764 1476.13,701.492 1464.71,724.13C1447.36,758.514 1414.61,782.817 1378.63,794.236C1330.51,809.504 1280.47,812.279 1231.42,799.316C1221.29,796.639 1200.75,788.877 1190.72,783.601C1184.43,780.296 1179.23,774.798 1172.53,772.468C1172.3,772.733 1171.83,773.28 1171.56,773.632C1170.96,774.405 1170.34,775.121 1169.68,775.625C1166.67,777.942 1163.94,780.714 1160.55,782.438C1142.91,791.401 1125.59,794.823 1105.98,794.423C1086.79,794.031 1063.89,787.348 1049.93,773.49C1045.93,769.515 1044.77,766.943 1043.67,764.319C1042.83,762.321 1042.05,760.263 1039.22,757.001C1039.06,756.816 1038.8,756.857 1038.53,756.808C1038.07,756.723 1037.58,756.698 1037.08,756.693C1035.34,756.672 1033.59,756.805 1032.57,756.532C1020.66,753.333 1008.74,750.07 997.146,745.862C975.987,738.181 958.224,723.762 943.52,707.185C933.713,696.129 923.488,682.689 920.104,667.919C917.586,656.932 917.547,644.419 917.924,633.412C918.311,622.124 920.737,613.515 924.824,602.598C927.442,595.604 929.852,588.403 933.91,582.134C960.145,541.609 1006.3,522.037 1052.84,518.495C1064.44,517.612 1076.75,518.127 1088.2,520.335C1094.42,521.535 1101.17,521.712 1107.62,522.549C1113.86,523.359 1119.84,524.806 1124.93,528.099ZM1123.77,536.084C1124.71,536.792 1125.85,536.715 1126.74,535.887C1130.7,532.165 1134.67,528.44 1138.78,524.871C1144.12,520.227 1149.05,514.978 1155.05,511.223C1160.8,507.626 1167.34,505.465 1173.67,503.025C1199.89,492.915 1230.38,488.268 1257.86,495.763C1285.7,503.358 1316.14,524.857 1328.55,552.081C1330.48,556.312 1330.88,561.424 1331.75,566.209C1332.86,572.346 1334.59,578.009 1339.07,581.94C1343.77,586.055 1349.83,587.62 1356.21,588.552C1362,589.397 1368.05,589.75 1373.39,591.615C1382.01,594.625 1390.22,598.751 1398.38,602.834C1421.04,614.162 1444.14,628.896 1456.9,651.696C1467.66,670.938 1470.09,699.723 1460.04,719.648C1443.4,752.626 1411.87,775.637 1377.35,786.589C1330,801.614 1280.76,804.366 1232.49,791.61C1222.6,788.996 1202.54,781.422 1192.74,776.27C1186.13,772.788 1180.63,767.066 1173.52,764.721C1171.92,764.191 1170.53,764.769 1169.25,766.026C1168.45,766.815 1167.76,768.124 1166.92,768.77C1164.16,770.891 1161.68,773.498 1158.58,775.075C1141.61,783.701 1124.94,786.962 1106.07,786.577C1088,786.209 1066.4,780.167 1053.25,767.12C1049.6,763.496 1049.06,761.418 1047.98,758.941C1047.04,756.789 1045.81,754.379 1042.87,750.982C1041.78,749.731 1040.08,749.038 1038.18,748.891C1036.51,748.761 1034.66,749.098 1033.66,748.83C1021.87,745.664 1010.07,742.439 998.593,738.274C978.278,730.899 961.235,717.024 947.118,701.11C938.172,691.024 928.614,679.027 925.527,665.553C923.209,655.441 923.258,643.914 923.605,633.783C923.951,623.664 926.214,615.984 929.877,606.198C932.28,599.779 934.427,593.114 938.152,587.361C963.493,548.216 1008.2,529.751 1053.15,526.329C1064.4,525.473 1076.32,525.966 1087.41,528.106C1093.72,529.321 1100.55,529.512 1107.09,530.361C1113.17,531.151 1119,532.482 1123.77,536.084Z" style="fill:rgb(165,146,191);"/>
        </g>
        <g id="Choco" transform="matrix(0.589448,-0.00310484,0.00310484,0.589448,224.438,62.0263)">
            <g id="LeftArm" transform="matrix(0.842039,0.539416,-0.539416,0.842039,30.0519,-298.67)">
                <path d="M740.89,260.034L697.779,260.034C695.625,260.034 693.875,261.783 693.875,263.937L693.875,271.744C693.875,273.899 695.625,275.648 697.779,275.648L740.89,275.648L740.89,260.034Z" style="fill:rgb(100,59,6);stroke:black;stroke-width:2.18px;"/>
            </g>
            <g id="LeftLeg" transform="matrix(1.24106,0.191898,-0.152808,0.988256,-61.175,-105.205)">
                <path d="M567.276,508.259L549.372,508.259L549.372,560.902C549.372,564.004 551.378,566.523 553.848,566.523L562.8,566.523C565.27,566.523 567.276,564.004 567.276,560.902L567.276,508.259Z" style="fill:rgb(100,59,6);stroke:black;stroke-width:1.92px;"/>
            </g>
            <g id="RightLeg" transform="matrix(1.23959,-0.201174,0.160195,0.987085,-131.501,115.363)">
                <path d="M567.276,508.259L549.372,508.259L549.372,560.902C549.372,564.004 551.378,566.523 553.848,566.523L562.8,566.523C565.27,566.523 567.276,564.004 567.276,560.902L567.276,508.259Z" style="fill:rgb(100,59,6);stroke:black;stroke-width:1.92px;"/>
            </g>
            <g transform="matrix(0.937772,0.347251,-0.347251,0.937772,131.071,-158.192)">
                <g id="RightArm">
                    <path d="M740.89,263.937C740.89,261.783 739.141,260.034 736.986,260.034L693.875,260.034L693.875,275.648L736.986,275.648C739.141,275.648 740.89,273.899 740.89,271.744L740.89,263.937Z" style="fill:rgb(100,59,6);stroke:black;stroke-width:2.18px;"/>
                </g>
            </g>
            <path id="Body" d="M693.875,187.294C693.875,182.104 689.662,177.891 684.473,177.891L515.222,177.891C510.033,177.891 505.82,182.104 505.82,187.294L505.82,498.856C505.82,504.046 510.033,508.259 515.222,508.259L684.473,508.259C689.662,508.259 693.875,504.046 693.875,498.856L693.875,187.294Z" style="fill:rgb(100,59,6);stroke:black;stroke-width:2.18px;"/>
            <g id="RightEye" transform="matrix(0.803571,-6.96987e-19,9.78046e-19,1.12761,353.516,-160.058)">
                <ellipse cx="330.348" cy="391.273" rx="23.395" ry="24.595" style="fill:rgb(254,254,254);"/>
                <g transform="matrix(1.78643,0,-1.04037e-18,1.19947,-275.87,-77.7355)">
                    <g id="RightEyePupil">
                        <ellipse cx="334.847" cy="390.988" rx="4.499" ry="9.012"/>
                    </g>
                </g>
                <ellipse cx="330.348" cy="391.273" rx="23.395" ry="24.595" style="fill:none;stroke:black;stroke-width:1.02px;stroke-linecap:round;stroke-miterlimit:1.5;"/>
            </g>
            <g id="LeftEye" transform="matrix(0.803571,-6.96987e-19,9.78046e-19,1.12761,279.478,-160.447)">
                <ellipse cx="330.348" cy="391.273" rx="23.395" ry="24.595" style="fill:rgb(254,254,254);"/>
                <g transform="matrix(1.78643,0,-1.04037e-18,1.19947,-275.87,-77.7365)">
                    <g id="LeftEyePupil">
                        <ellipse cx="334.847" cy="390.988" rx="4.499" ry="9.012"/>
                    </g>
                </g>
                <ellipse cx="330.348" cy="391.273" rx="23.395" ry="24.595" style="fill:none;stroke:black;stroke-width:1.02px;stroke-linecap:round;stroke-miterlimit:1.5;"/>
            </g>
            <g transform="matrix(-0.266108,-1.90404,1.7479,-0.244286,-135.794,1199.5)">
                <g id="Mouth">
                    <path d="M378.274,452.319C369.503,452.319 362.382,459.415 362.382,468.156C362.382,476.897 369.503,483.993 378.274,483.993C375.642,480.298 373.506,474.474 373.506,468.156C373.506,461.839 375.642,456.014 378.274,452.319Z"/>
                </g>
            </g>
        </g>
        <g id="Marsh" transform="matrix(0.538153,0,0,0.538153,-11.775,118.667)">
            <g transform="matrix(0.849677,0.527304,-0.483665,0.779359,316.088,-175.26)">
                <path d="M524.326,464.939L507.049,464.939L507.049,543.734C507.049,546.333 508.984,548.443 511.368,548.443L520.007,548.443C522.39,548.443 524.326,546.333 524.326,543.734L524.326,464.939Z" style="fill:rgb(210,178,217);stroke:black;stroke-width:2.49px;stroke-linecap:round;stroke-miterlimit:1.5;"/>
            </g>
            <g transform="matrix(0.879561,-0.475787,0.436411,0.806769,-47.7399,327.339)">
                <path d="M524.326,464.939L507.049,464.939L507.049,543.734C507.049,546.333 508.984,548.443 511.368,548.443L520.007,548.443C522.39,548.443 524.326,546.333 524.326,543.734L524.326,464.939Z" style="fill:rgb(210,178,217);stroke:black;stroke-width:2.49px;stroke-linecap:round;stroke-miterlimit:1.5;"/>
            </g>
            <g transform="matrix(0.941727,0.336379,-0.336379,0.941727,145.085,-183.478)">
                <path d="M713.03,321.647C713.03,320.058 711.74,318.767 710.151,318.767L666.408,318.767L666.408,330.285L710.151,330.285C711.74,330.285 713.03,328.995 713.03,327.406L713.03,321.647Z" style="fill:rgb(210,178,217);stroke:black;stroke-width:2.39px;stroke-linecap:round;stroke-miterlimit:1.5;"/>
            </g>
            <g transform="matrix(0.852606,-0.522555,0.522555,0.852606,-321.041,438.007)">
                <path d="M713.03,318.767L669.287,318.767C667.698,318.767 666.408,320.058 666.408,321.647L666.408,327.406C666.408,328.995 667.698,330.285 669.287,330.285L713.03,330.285L713.03,318.767Z" style="fill:rgb(210,178,217);stroke:black;stroke-width:2.39px;stroke-linecap:round;stroke-miterlimit:1.5;"/>
            </g>
            <path d="M666.408,296.098C666.408,266.766 642.594,242.953 613.262,242.953L506.97,242.953C477.638,242.953 453.824,266.766 453.824,296.098L453.824,411.388C453.824,440.72 477.638,464.534 506.97,464.534L613.262,464.534C642.594,464.534 666.408,440.72 666.408,411.388L666.408,296.098Z" style="fill:rgb(210,178,217);stroke:black;stroke-width:2.39px;stroke-linecap:round;stroke-miterlimit:1.5;"/>
            <g id="LeftEye1" serif:id="LeftEye" transform="matrix(1,0,0,1,206.373,-68.5225)">
                <ellipse cx="330.348" cy="391.273" rx="23.395" ry="24.595" style="fill:rgb(254,254,254);"/>
                <clipPath id="_clip1">
                    <ellipse cx="330.348" cy="391.273" rx="23.395" ry="24.595"/>
                </clipPath>
                <g clip-path="url(#_clip1)">
                    <g id="LeftEyePupil1" serif:id="LeftEyePupil" transform="matrix(1.78643,0,0,1,-259.796,-2.14035)">
                        <ellipse cx="334.847" cy="390.988" rx="4.499" ry="9.012"/>
                    </g>
                </g>
                <ellipse cx="330.348" cy="391.273" rx="23.395" ry="24.595" style="fill:none;stroke:black;stroke-width:2.39px;stroke-linecap:round;stroke-miterlimit:1.5;"/>
            </g>
            <g id="RightEye1" serif:id="RightEye" transform="matrix(1,0,0,1,286.053,-68.5225)">
                <ellipse cx="330.348" cy="391.273" rx="23.395" ry="24.595" style="fill:rgb(254,254,254);"/>
                <clipPath id="_clip2">
                    <ellipse cx="330.348" cy="391.273" rx="23.395" ry="24.595"/>
                </clipPath>
                <g clip-path="url(#_clip2)">
                    <g id="RightEyePupil1" serif:id="RightEyePupil" transform="matrix(1.78643,0,0,1,-259.796,-2.14035)">
                        <ellipse cx="334.847" cy="390.988" rx="4.499" ry="9.012"/>
                    </g>
                </g>
                <ellipse cx="330.348" cy="391.273" rx="23.395" ry="24.595" style="fill:none;stroke:black;stroke-width:2.39px;stroke-linecap:round;stroke-miterlimit:1.5;"/>
            </g>
            <g id="Mouth1" serif:id="Mouth" transform="matrix(0.0841741,-1.08628,1.26386,0.0979342,-43.3339,734.896)">
                <path d="M378.274,452.319C369.503,452.319 362.382,459.415 362.382,468.156C362.382,476.897 369.503,483.993 378.274,483.993C375.642,480.298 373.506,474.474 373.506,468.156C373.506,461.839 375.642,456.014 378.274,452.319Z"/>
            </g>
        </g>
        <g id="Graham" transform="matrix(0.487733,0,0,0.487733,-215.39,116.722)">
            <g transform="matrix(0.906904,-0.421337,0.421337,0.906904,-54.0782,359.793)">
                <path d="M817.778,280.973C817.778,277.741 815.154,275.118 811.922,275.118L770.114,275.118L770.114,298.538L811.922,298.538C815.154,298.538 817.778,295.915 817.778,292.683L817.778,280.973Z" style="fill:rgb(165,125,80);stroke:black;stroke-width:2.64px;stroke-linecap:round;stroke-miterlimit:1.5;"/>
            </g>
            <g transform="matrix(0.960363,-0.278753,0.278753,0.960363,-24.6385,186.858)">
                <path d="M626.824,532.656L601.01,532.656L601.01,584.69C601.01,588.252 603.901,591.144 607.463,591.144L620.371,591.144C623.933,591.144 626.824,588.252 626.824,584.69L626.824,532.656Z" style="fill:rgb(165,125,80);stroke:black;stroke-width:2.64px;stroke-linecap:round;stroke-miterlimit:1.5;"/>
            </g>
            <g transform="matrix(0.970037,0.242957,-0.242957,0.970037,157.887,-139.044)">
                <path d="M626.824,532.656L601.01,532.656L601.01,584.69C601.01,588.252 603.901,591.144 607.463,591.144L620.371,591.144C623.933,591.144 626.824,588.252 626.824,584.69L626.824,532.656Z" style="fill:rgb(165,125,80);stroke:black;stroke-width:2.64px;stroke-linecap:round;stroke-miterlimit:1.5;"/>
            </g>
            <path d="M770.114,180.788C770.114,175.262 765.628,170.775 760.102,170.775L579.873,170.775C574.347,170.775 569.86,175.262 569.86,180.788L569.86,522.643C569.86,528.169 574.347,532.656 579.873,532.656L760.102,532.656C765.628,532.656 770.114,528.169 770.114,522.643L770.114,180.788Z" style="fill:rgb(165,125,80);stroke:black;stroke-width:2.64px;stroke-linecap:round;stroke-miterlimit:1.5;"/>
            <g transform="matrix(0.975568,-0.219698,0.219698,0.975568,-277.744,197.629)">
                <path d="M817.778,275.118L775.97,275.118C772.738,275.118 770.114,277.741 770.114,280.973L770.114,292.683C770.114,295.915 772.738,298.538 775.97,298.538L817.778,298.538L817.778,275.118Z" style="fill:rgb(165,125,80);stroke:black;stroke-width:2.64px;stroke-linecap:round;stroke-miterlimit:1.5;"/>
            </g>
            <g id="Mouth2" serif:id="Mouth" transform="matrix(0.410954,-1.64787,1.53339,0.382404,-185.578,760.416)">
                <path d="M378.274,452.319C369.503,452.319 362.382,459.415 362.382,468.156C362.382,476.897 369.503,483.993 378.274,483.993C375.642,480.298 373.506,474.474 373.506,468.156C373.506,461.839 375.642,456.014 378.274,452.319Z"/>
            </g>
            <g id="RightEye2" serif:id="RightEye" transform="matrix(1,0,0,1,398.723,-140.183)">
                <ellipse cx="330.348" cy="391.273" rx="23.395" ry="24.595" style="fill:rgb(254,254,254);"/>
                <clipPath id="_clip3">
                    <ellipse cx="330.348" cy="391.273" rx="23.395" ry="24.595"/>
                </clipPath>
                <g clip-path="url(#_clip3)">
                    <g id="RightEyePupil2" serif:id="RightEyePupil" transform="matrix(2.0042,0,0,1.1219,-331.736,-47.3764)">
                        <ellipse cx="334.847" cy="390.988" rx="4.499" ry="9.012"/>
                    </g>
                </g>
                <ellipse cx="330.348" cy="391.273" rx="23.395" ry="24.595" style="fill:none;stroke:black;stroke-width:2.64px;stroke-linecap:round;stroke-miterlimit:1.5;"/>
            </g>
            <g id="LeftEye2" serif:id="LeftEye" transform="matrix(1,0,0,1,316.244,-140.183)">
                <ellipse cx="330.348" cy="391.273" rx="23.395" ry="24.595" style="fill:rgb(254,254,254);"/>
                <clipPath id="_clip4">
                    <ellipse cx="330.348" cy="391.273" rx="23.395" ry="24.595"/>
                </clipPath>
                <g clip-path="url(#_clip4)">
                    <g id="LeftEyePupil2" serif:id="LeftEyePupil" transform="matrix(2.03251,0,0,1.13775,-341.087,-53.7149)">
                        <ellipse cx="334.847" cy="390.988" rx="4.499" ry="9.012"/>
                    </g>
                </g>
                <ellipse cx="330.348" cy="391.273" rx="23.395" ry="24.595" style="fill:none;stroke:black;stroke-width:2.64px;stroke-linecap:round;stroke-miterlimit:1.5;"/>
            </g>
        </g>
    </g>
</svg>
