<?xml version="1.0" encoding="UTF-8" standalone="no"?>
<!DOCTYPE svg PUBLIC "-//W3C//DTD SVG 1.1//EN" "http://www.w3.org/Graphics/SVG/1.1/DTD/svg11.dtd">
<svg width="100%" height="100%" viewBox="0 0 1549 159" version="1.1" xmlns="http://www.w3.org/2000/svg" xmlns:xlink="http://www.w3.org/1999/xlink" xml:space="preserve" xmlns:serif="http://www.serif.com/" style="fill-rule:evenodd;clip-rule:evenodd;stroke-linejoin:round;stroke-miterlimit:2;">
    <g transform="matrix(1,0,0,1,-49.9937,0)">
        <circle cx="135.632" cy="79.106" r="79.106" style="fill:rgb(241,197,206);"/>
    </g>
    <g transform="matrix(1,0,0,1,1333.61,-4.26326e-14)">
        <circle cx="135.632" cy="79.106" r="79.106" style="fill:rgb(241,197,206);"/>
    </g>
    <g transform="matrix(0.706691,0,0,0.706691,210.877,23.2025)">
        <circle cx="135.632" cy="79.106" r="79.106" style="fill:rgb(118,143,129);"/>
    </g>
    <g transform="matrix(0.706691,0,0,0.706691,1131.24,23.2025)">
        <circle cx="135.632" cy="79.106" r="79.106" style="fill:rgb(118,143,129);"/>
    </g>
    <g transform="matrix(0.853346,0,0,0.853346,423.313,11.6013)">
        <circle cx="135.632" cy="79.106" r="79.106" style="fill:rgb(102,152,209);"/>
    </g>
    <g transform="matrix(0.853346,0,0,0.853346,886.396,11.6013)">
        <circle cx="135.632" cy="79.106" r="79.106" style="fill:rgb(102,152,209);"/>
    </g>
    <g transform="matrix(1,0,0,1,638.54,0)">
        <circle cx="135.632" cy="79.106" r="79.106" style="fill:rgb(36,55,64);"/>
    </g>
</svg>
