<?xml version="1.0" encoding="UTF-8" standalone="no"?>
<!DOCTYPE svg PUBLIC "-//W3C//DTD SVG 1.1//EN" "http://www.w3.org/Graphics/SVG/1.1/DTD/svg11.dtd">
<svg width="100%" height="100%" viewBox="0 0 506 334" version="1.1" xmlns="http://www.w3.org/2000/svg" xmlns:xlink="http://www.w3.org/1999/xlink" xml:space="preserve" xmlns:serif="http://www.serif.com/" style="fill-rule:evenodd;clip-rule:evenodd;stroke-linecap:round;stroke-linejoin:round;stroke-miterlimit:1.5;">
    <g id="shape" transform="matrix(0.776761,0,0,0.776761,-8.54485,-3.45153)">
        <g transform="matrix(1.29128,0,0,1.30182,-621.039,-304.444)">
            <rect x="489.469" y="237.274" width="502.569" height="329.48" style="fill:rgb(255,232,192);"/>
        </g>
        <g transform="matrix(1,0,0,1.04012,-5.32907e-15,-12.7073)">
            <path d="M472.676,378.663C472.676,378.663 493.031,427.656 487.87,427.929C483.225,428.174 12.949,428.199 12.949,428.199L12.949,320.651L80.221,319.021C187.09,327.214 293.244,323.966 399.152,316.768L472.676,378.663Z" style="fill:rgb(92,54,38);stroke:rgb(255,232,192);stroke-width:3.43px;"/>
        </g>
        <g transform="matrix(1,0,0,1.00963,-5.32907e-15,-0.667738)">
            <path d="M646.468,299.64C646.468,299.64 602.974,223.008 598.743,216C593.701,207.65 577.344,179.079 574.114,175.388C570.884,171.697 559.118,155.087 553.581,152.087C548.045,149.088 540.662,144.474 533.972,141.245C527.282,138.015 522.437,135.477 518.515,134.093C514.593,132.709 509.056,130.863 506.288,129.94C503.519,129.017 498.675,129.709 495.214,130.632C491.754,131.555 490.52,132.993 488.748,134.469C486.976,135.946 485.205,136.241 483.58,136.093C481.956,135.946 474.426,127.53 473.393,126.496C472.359,125.463 471.178,124.282 469.849,125.167C468.52,126.053 467.487,127.235 466.01,127.825C464.534,128.416 462.614,128.859 459.661,126.939C456.709,125.02 428.462,97.334 426.588,95.49C424.728,93.659 405.888,78.615 403.407,77.034C400.72,75.321 391.3,71.719 386.28,70.685C381.26,69.652 370.643,69.297 367.529,69.356C364.428,69.415 359.645,70.331 356.455,71.128C353.186,71.946 338.957,80.737 335,83.543C331.043,86.348 321.446,97.422 319.822,100.079C318.198,102.737 314.359,108.938 312.144,113.072C309.929,117.207 308.748,118.388 307.715,119.126C306.681,119.864 306.386,123.703 305.648,127.69C304.909,131.676 305.352,138.616 304.909,141.126C304.466,143.636 302.104,150.427 302.695,152.937C303.285,155.447 304.614,159.729 305.795,160.763C306.976,161.796 309.191,163.42 312.735,164.011C316.278,164.602 318.493,162.978 319.231,164.454C319.97,165.93 320.41,167.392 320.558,169.164C320.705,170.935 321.069,173.438 321.881,175.45C322.546,177.098 322.687,177.876 325.193,179.006C327.806,180.185 328.531,179.056 330.45,178.761C332.369,178.465 333.349,178.761 335,180.68C336.651,182.599 337.832,186.881 340.638,191.901C343.443,196.921 348.611,201.794 350.678,201.351C352.745,200.908 356.731,197.217 359.537,195.297C362.342,193.378 360.718,193.083 362.342,195.297C363.966,197.512 369.892,206.993 371.792,209.914C373.711,212.867 374.154,213.901 377.402,214.639C380.65,215.377 384.489,214.934 385.523,214.049C386.556,213.163 386.704,208.733 388.18,208.586C389.657,208.438 392.019,207.109 394.086,209.029C396.153,210.948 396.153,211.096 396.301,214.344C396.449,217.592 396.006,219.216 395.711,219.954C395.415,220.693 396.269,224.071 399.73,224.994C403.19,225.917 404.365,226.021 409.456,228.058C412.548,229.294 409.133,233.659 409.281,236.465C409.428,239.27 402.877,258.783 401.724,263.397C400.57,268.011 398.955,271.933 396.418,274.009C393.88,276.085 388.343,291.081 386.959,294.772C385.575,298.463 385.344,300.77 385.575,303.308C385.805,305.846 371.733,304.923 367.119,304.692C362.505,304.461 350.739,304.692 345.202,306.768C339.665,308.845 337.025,309.998 335,309.767C332.975,309.537 329.284,304.923 325.593,305.384C321.901,305.846 320.056,302.616 315.673,307.23C311.289,311.844 308.29,310.921 304.83,312.074C301.369,313.228 301.024,310.097 297.886,307.882C294.749,305.668 279.969,301.619 276.508,303.465C273.048,305.31 272.356,303.926 267.511,305.772C262.666,307.617 262.897,309.693 261.282,311.308C259.667,312.923 258.514,311.078 256.207,312.923C253.9,314.769 238.904,322.151 237.52,325.612C236.136,329.072 237.289,329.303 237.52,330.456C237.751,331.61 237.346,341.111 243.474,343.634C249.602,346.157 247.8,354.448 254.288,355.529C260.777,356.611 259.696,356.971 267.626,362.018C275.556,367.064 275.917,368.506 283.847,368.867C291.777,369.227 289.254,368.146 303.673,370.309C318.091,372.471 304.033,371.75 319.533,372.111C335.034,372.471 331.789,372.471 339.72,372.832C347.65,373.192 358.464,373.913 365.313,375.716C372.162,377.518 394.15,381.123 398.476,382.925C402.802,384.727 448.942,385.448 452.907,383.285C456.872,381.123 460.116,380.762 466.605,379.32C473.093,377.878 470.93,375.355 474.535,378.96C478.14,382.565 479.582,392.578 481.744,400.948C483.907,409.319 483.115,430.21 488.708,430.952C491.969,431.384 655.71,430.353 658.109,429.799C660.508,429.245 659.77,315.741 659.954,312.603C660.139,309.466 646.468,299.64 646.468,299.64Z" style="fill:rgb(92,54,38);"/>
        </g>
        <g>
            <clipPath id="_clip1">
                <path d="M646.468,299.64C646.468,299.64 602.974,223.008 598.743,216C593.701,207.65 577.344,179.079 574.114,175.388C570.884,171.697 559.118,155.087 553.581,152.087C548.045,149.088 540.662,144.474 533.972,141.245C527.282,138.015 522.437,135.477 518.515,134.093C514.593,132.709 509.056,130.863 506.288,129.94C503.519,129.017 498.675,129.709 495.214,130.632C491.754,131.555 490.52,132.993 488.748,134.469C486.976,135.946 485.205,136.241 483.58,136.093C481.956,135.946 474.426,127.53 473.393,126.496C472.359,125.463 471.178,124.282 469.849,125.167C468.52,126.053 467.487,127.235 466.01,127.825C464.534,128.416 462.614,128.859 459.661,126.939C456.709,125.02 428.462,97.334 426.588,95.49C424.728,93.659 405.888,78.615 403.407,77.034C400.72,75.321 391.3,71.719 386.28,70.685C381.26,69.652 370.643,69.297 367.529,69.356C364.428,69.415 359.645,70.331 356.455,71.128C353.186,71.946 338.957,80.737 335,83.543C331.043,86.348 321.446,97.422 319.822,100.079C318.198,102.737 314.359,108.938 312.144,113.072C309.929,117.207 308.748,118.388 307.715,119.126C306.681,119.864 306.386,123.703 305.648,127.69C304.909,131.676 305.352,138.616 304.909,141.126C304.466,143.636 302.104,150.427 302.695,152.937C303.285,155.447 304.614,159.729 305.795,160.763C306.976,161.796 309.191,163.42 312.735,164.011C316.278,164.602 318.493,162.978 319.231,164.454C319.97,165.93 320.41,167.392 320.558,169.164C320.705,170.935 321.069,173.438 321.881,175.45C322.546,177.098 322.687,177.876 325.193,179.006C327.806,180.185 328.531,179.056 330.45,178.761C332.369,178.465 333.349,178.761 335,180.68C336.651,182.599 337.832,186.881 340.638,191.901C343.443,196.921 348.611,201.794 350.678,201.351C352.745,200.908 356.731,197.217 359.537,195.297C362.342,193.378 360.718,193.083 362.342,195.297C363.966,197.512 369.892,206.993 371.792,209.914C373.711,212.867 374.154,213.901 377.402,214.639C380.65,215.377 384.489,214.934 385.523,214.049C386.556,213.163 386.704,208.733 388.18,208.586C389.657,208.438 392.019,207.109 394.086,209.029C396.153,210.948 396.153,211.096 396.301,214.344C396.449,217.592 396.006,219.216 395.711,219.954C395.415,220.693 396.269,224.071 399.73,224.994C403.19,225.917 404.365,226.021 409.456,228.058C412.548,229.294 409.133,233.659 409.281,236.465C409.428,239.27 402.877,258.783 401.724,263.397C400.57,268.011 398.955,271.933 396.418,274.009C393.88,276.085 388.343,291.081 386.959,294.772C385.575,298.463 385.344,300.77 385.575,303.308C385.805,305.846 371.733,304.923 367.119,304.692C362.505,304.461 350.739,304.692 345.202,306.768C339.665,308.845 337.025,309.998 335,309.767C332.975,309.537 329.284,304.923 325.593,305.384C321.901,305.846 320.056,302.616 315.673,307.23C311.289,311.844 308.29,310.921 304.83,312.074C301.369,313.228 301.024,310.097 297.886,307.882C294.749,305.668 279.969,301.619 276.508,303.465C273.048,305.31 272.356,303.926 267.511,305.772C262.666,307.617 262.897,309.693 261.282,311.308C259.667,312.923 258.514,311.078 256.207,312.923C253.9,314.769 238.904,322.151 237.52,325.612C236.136,329.072 237.289,329.303 237.52,330.456C237.751,331.61 237.346,341.111 243.474,343.634C249.602,346.157 247.8,354.448 254.288,355.529C260.777,356.611 259.696,356.971 267.626,362.018C275.556,367.064 275.917,368.506 283.847,368.867C291.777,369.227 289.254,368.146 303.673,370.309C318.091,372.471 304.033,371.75 319.533,372.111C335.034,372.471 331.789,372.471 339.72,372.832C347.65,373.192 358.464,373.913 365.313,375.716C372.162,377.518 394.15,381.123 398.476,382.925C402.802,384.727 448.942,385.448 452.907,383.285C456.872,381.123 460.116,380.762 466.605,379.32C473.093,377.878 470.93,375.355 474.535,378.96C478.14,382.565 479.582,392.578 481.744,400.948C483.907,409.319 483.207,427.202 488.8,427.944C492.061,428.376 655.71,430.353 658.109,429.799C660.508,429.245 659.77,315.741 659.954,312.603C660.139,309.466 646.468,299.64 646.468,299.64Z"/>
            </clipPath>
            <g clip-path="url(#_clip1)">
                <g>
                    <path d="M351.207,77.578C355.759,79.853 361.318,81.728 366.466,84.152C371.029,86.3 375.29,88.853 377.861,92.826C379.396,95.199 379.995,97.068 379.556,98.604C379.167,99.963 377.96,100.854 376.509,101.539C372.097,103.623 365.301,103.564 361.071,101.885C358.608,100.908 355.713,99.289 355.384,96.435C355.219,95 356.081,93.937 357.194,93.321C358.545,92.575 360.295,92.372 361.7,93.021C363.313,93.765 365.227,93.06 365.971,91.447C366.716,89.835 366.011,87.921 364.398,87.176C361.182,85.692 357.17,85.98 354.08,87.688C350.752,89.527 348.495,92.883 348.99,97.173C349.593,102.407 354.181,106.076 358.697,107.868C364.331,110.104 373.382,110.135 379.258,107.36C382.528,105.815 384.868,103.437 385.745,100.374C386.571,97.487 386.152,93.79 383.265,89.329C380.061,84.377 374.895,81.006 369.208,78.328C364.107,75.927 358.596,74.075 354.086,71.82C352.497,71.026 350.562,71.671 349.768,73.26C348.973,74.848 349.618,76.783 351.207,77.578Z" style="fill:rgb(255,232,192);"/>
                    <path d="M324.217,117.598C325.777,117.598 327.776,118.681 329.269,119.118C334.295,120.587 339.259,121.606 342.194,126.301C343.967,129.139 343.35,132.117 341.59,134.781C341.075,135.562 340.707,136.54 339.751,136.779C338.028,137.21 336.979,138.959 337.41,140.682C337.84,142.406 339.589,143.455 341.313,143.024C343.897,142.378 345.568,140.44 346.962,138.329C350.161,133.485 350.876,128.047 347.652,122.89C343.815,116.75 337.646,114.86 331.075,112.939C329.07,112.353 326.312,111.161 324.217,111.161C322.441,111.161 320.998,112.603 320.998,114.38C320.998,116.156 322.441,117.598 324.217,117.598Z" style="fill:rgb(255,232,192);"/>
                    <path d="M315.502,124.605C314.869,123.673 314.745,122.435 315.285,121.356C316.079,119.767 318.014,119.122 319.603,119.917C320.081,120.156 320.726,120.637 321.189,121.515C321.453,122.018 321.842,123.344 321.905,123.564C322.457,125.048 322.955,126.553 323.774,127.917C325.019,129.993 326.84,131.644 328.119,133.705C329.84,136.478 331.512,139.288 333.221,142.07C334.434,144.046 335.337,146.074 337.609,146.948C341.001,148.253 345.489,149.272 349.064,148.412C352.165,147.666 354.805,145.727 357.974,145.178C362.562,144.383 367.744,144.856 372.323,145.519C374.077,145.773 376.171,145.714 378.096,146.036C379.908,146.34 381.59,146.944 382.977,148.028C385.033,149.636 386.084,152.082 386.308,154.846C386.57,158.078 385.665,161.758 384.727,164.157C383.712,166.749 381.866,169.119 378.976,169.809C378.018,170.038 377.028,170.084 376.049,170.029C372.804,169.849 370.888,168.421 369.29,166.532C368.326,165.394 367.57,163.983 366.315,162.892C364.975,161.726 364.833,159.692 365.998,158.351C367.164,157.011 369.198,156.869 370.539,158.035C371.823,159.152 372.752,160.486 373.693,161.73C374.362,162.615 374.98,163.523 376.406,163.602C376.765,163.622 377.129,163.632 377.48,163.548C378.248,163.365 378.463,162.499 378.732,161.811C379.285,160.397 379.851,158.36 379.914,156.396C379.954,155.123 379.931,153.818 379.012,153.099C378.26,152.511 377.259,152.389 376.254,152.28C374.596,152.1 372.879,152.104 371.4,151.89C367.466,151.32 363.015,150.837 359.074,151.52C356.041,152.046 353.536,153.957 350.569,154.67C345.812,155.815 339.812,154.692 335.299,152.956C331.605,151.536 329.707,148.65 327.735,145.439C326.032,142.665 324.366,139.864 322.649,137.099C321.354,135.012 319.516,133.332 318.255,131.229C317.219,129.503 316.547,127.618 315.847,125.741C315.795,125.601 315.598,124.933 315.502,124.605Z" style="fill:rgb(255,232,192);"/>
                    <path d="M328.828,169.027C329.403,168.624 330.004,168.243 330.668,167.893C333.403,166.456 336.118,164.523 338.967,163.005C342.355,161.198 345.923,159.963 349.809,160.223C352.973,160.434 356.553,160.827 359.441,162.212C364.041,164.418 365.919,168.077 367.889,172.493C369.336,175.735 371.061,178.938 372.367,182.228C372.663,182.971 375.152,187.034 378.183,190.033C379.096,190.936 382.653,193.653 386.754,194.308C388.16,194.532 391.412,194.039 394.235,193.122C395.78,192.619 397.25,192.086 397.909,191.224C399.655,188.945 399.688,186.13 399.34,184.019C399.134,182.77 398.832,181.762 398.555,181.369C398.218,180.891 397.64,180.611 396.966,180.368C395.86,179.968 394.517,179.766 393.029,179.687C391.371,179.598 390.574,180.486 390.336,180.975C389.557,182.572 387.629,183.236 386.032,182.457C384.435,181.678 383.771,179.75 384.55,178.153C385.356,176.501 387.772,172.96 393.372,173.259C398.249,173.519 402.006,175.091 403.817,177.661C404.381,178.462 405.271,180.426 405.691,182.971C406.281,186.551 405.98,191.272 403.02,195.137C401.755,196.791 399.192,198.279 396.225,199.243C392.282,200.525 387.703,200.978 385.739,200.664C379.952,199.74 374.943,195.883 373.655,194.609C369.804,190.798 366.76,185.548 366.385,184.603C365.111,181.396 363.421,178.276 362.011,175.116C360.694,172.165 359.732,169.49 356.658,168.016C354.483,166.974 351.763,166.804 349.381,166.645C346.721,166.468 344.315,167.448 341.995,168.685C339.135,170.209 336.408,172.149 333.662,173.592C332.295,174.31 331.289,175.232 330.076,176.148C328.752,177.148 326.487,177.768 324.824,176.789C323.948,176.274 323.307,175.513 322.897,174.571C322.427,173.489 322.355,172.036 322.332,171.051C322.251,167.652 322.881,164.867 324.002,161.699C324.578,160.073 325.043,158.234 324.824,156.505C324.425,153.359 321.49,149.444 318.474,148.439C316.789,147.877 315.877,146.053 316.439,144.368C317.001,142.683 318.825,141.771 320.51,142.332C325.539,144.009 330.545,150.448 331.21,155.696C331.553,158.401 330.971,161.301 330.07,163.847C329.439,165.632 328.989,167.252 328.828,169.027Z" style="fill:rgb(255,232,192);"/>
                    <path d="M476.405,157.877C476.084,158.642 475.11,161.002 474.765,162.221C472.128,171.518 472.985,181.704 469.588,190.809C467.329,196.864 462.116,201.98 457.636,206.459C443.71,220.386 424.584,231.21 404.3,224.448C399.581,222.876 397.027,217.768 398.6,213.049C400.173,208.331 405.281,205.777 409.999,207.35C423.499,211.85 435.623,202.983 444.892,193.714C447.638,190.968 451.316,188.22 452.701,184.509C455.93,175.855 454.919,166.14 457.425,157.304C459.157,151.195 462.626,143.974 469.077,141.33C474.157,139.248 480.249,140.228 485.498,140.766C490.446,141.274 494.051,145.702 493.543,150.65C493.036,155.598 488.607,159.203 483.659,158.696C482.083,158.534 480.404,158.244 478.712,158.051C477.932,157.962 477.139,157.754 476.405,157.877Z" style="fill:rgb(255,232,192);"/>
                    <path d="M482.517,155.9C488.483,157.889 495.302,158.027 501.511,158.175C505.324,158.265 509.144,157.97 512.151,160.623C517.893,165.689 520.078,173.924 521.971,181.074C522.963,184.821 523.903,188.609 523.695,192.514C523.429,197.503 521.448,202.238 520.897,207.201C519.983,215.425 520.438,223.758 519.498,232.008C518.671,239.266 516.429,246.318 514.981,253.463C511.814,269.085 509.41,289.222 520.706,302.723C523.983,306.639 528.708,308.209 533.679,308.074C553.319,307.543 556.315,285.119 546.452,272.057C541.155,265.042 530.713,264.134 524.42,270.427C522.41,272.437 522.41,275.7 524.42,277.71C526.43,279.719 529.693,279.719 531.702,277.71C533.569,275.843 536.662,276.182 538.233,278.263C543.422,285.135 543.734,297.5 533.401,297.779C531.603,297.827 529.79,297.53 528.605,296.113C524.217,290.869 522.746,284.279 522.549,277.526C522.329,270.009 523.705,262.265 525.075,255.509C526.582,248.074 528.87,240.726 529.731,233.173C530.672,224.915 530.218,216.571 531.133,208.338C531.706,203.181 533.703,198.247 533.979,193.062C534.245,188.078 533.193,183.221 531.927,178.438C529.538,169.412 526.214,159.296 518.965,152.9C514.028,148.544 508.016,148.027 501.756,147.878C496.538,147.754 490.788,147.801 485.774,146.129C483.078,145.231 480.159,146.69 479.26,149.386C478.362,152.083 479.821,155.001 482.517,155.9Z" style="fill:rgb(255,232,192);"/>
                    <path d="M516.461,216.001C515.421,219.119 513.255,220.238 510.797,221.027C508.168,221.87 505.256,222.395 502.359,223.29C495.458,225.421 489.05,229.587 485.292,235.923C481.804,241.803 481.999,250.377 485.281,256.71C488.954,263.795 495.954,268.181 505.046,264.732C507.703,263.724 509.043,260.749 508.035,258.091C507.027,255.434 504.051,254.095 501.393,255.103C498.137,256.338 495.741,254.507 494.425,251.97C492.72,248.681 492.338,244.231 494.15,241.178C496.598,237.051 500.903,234.518 505.398,233.13C509.217,231.951 513.05,231.342 516.305,229.964C520.682,228.111 524.261,225.17 526.231,219.258C527.13,216.562 525.671,213.643 522.975,212.744C520.278,211.845 517.36,213.305 516.461,216.001Z" style="fill:rgb(255,232,192);"/>
                    <path d="M504.55,194.013C504.681,194.172 504.943,194.474 505.169,194.661C505.609,195.026 506.166,195.255 506.702,195.445C508.025,195.913 509.442,196.046 510.832,196.185C513.66,196.467 515.726,198.993 515.443,201.821C515.16,204.649 512.635,206.716 509.807,206.433C507.599,206.212 505.369,205.898 503.266,205.154C501.607,204.567 499.954,203.717 498.592,202.587C495.775,200.249 494.612,197.771 494.29,195.434C493.959,193.035 494.537,190.622 495.889,188.309C497.221,186.028 499.416,183.792 501.612,181.792C503.112,180.427 504.621,179.239 505.379,178.191C505.956,177.395 506.311,176.422 506.375,175.44C506.602,171.941 504.412,168.899 502.886,165.9C502.747,165.626 500.867,162.201 500.606,161.399C499.634,158.416 501.265,156.604 501.844,156.025C503.854,154.015 507.117,154.015 509.127,156.025C509.74,156.638 510.166,157.368 510.404,158.144L512.067,161.232C514.404,165.828 517.001,170.745 516.653,176.108C516.465,179.005 515.423,181.881 513.721,184.232C512.391,186.069 509.469,188.408 506.923,190.94C506.154,191.705 505.426,192.488 504.901,193.309C504.775,193.507 504.626,193.835 504.55,194.013Z" style="fill:rgb(255,232,192);"/>
                    <path d="M474.418,183.443C472.298,186.662 468.053,187.86 464.52,186.094C460.707,184.188 459.159,179.544 461.066,175.731C461.606,174.65 462.443,173.517 463.531,172.462C464.331,171.686 465.461,170.978 466.059,170.31C468.327,167.779 470.937,164.952 472.403,161.869C473.389,159.796 473.348,157.009 474.078,154.684C475.233,151.004 477.281,147.946 480.86,145.957C484.587,143.887 489.293,145.232 491.363,148.958C493.327,152.493 492.218,156.91 488.917,159.12C488.761,159.749 488.312,161.596 488.11,162.653C487.71,164.74 487.186,166.755 486.355,168.502C484.277,172.873 480.78,177.03 477.566,180.618C476.883,181.38 474.947,183.003 474.418,183.443Z" style="fill:rgb(255,232,192);"/>
                    <path d="M427.289,270.664C425.084,275.075 422.085,278.695 420.647,283.613C415.906,299.834 419.928,321.47 428.988,335.563C431.293,339.149 436.076,340.189 439.663,337.884C443.249,335.578 444.288,330.795 441.983,327.209C435.13,316.549 431.889,300.217 435.476,287.948C436.642,283.958 439.318,281.151 441.107,277.573C443.014,273.76 441.466,269.116 437.653,267.21C433.839,265.303 429.196,266.851 427.289,270.664Z" style="fill:rgb(255,232,192);"/>
                    <path d="M506.227,312.869C506.227,317.621 502.412,323.529 500.143,327.5C493.048,339.916 484.693,350.692 475.031,361.195C472.145,364.332 472.348,369.223 475.486,372.109C478.623,374.996 483.514,374.792 486.4,371.654C496.859,360.287 505.877,348.604 513.556,335.165C516.954,329.218 521.676,319.984 521.676,312.869C521.676,308.606 518.215,305.145 513.952,305.145C509.689,305.145 506.227,308.606 506.227,312.869Z" style="fill:rgb(255,232,192);"/>
                    <path d="M475.486,381.284L475.464,381.272C473.473,380.124 472.409,378.626 471.897,377.603C469.991,373.79 471.539,369.147 475.352,367.24C478.06,365.886 481.188,366.274 483.454,367.981C484.352,368.335 486.535,369.209 486.978,369.46C491.829,372.217 495.642,375.704 497.616,381.112C500.408,388.759 498.132,395.642 495.526,402.782C495.186,403.788 493.489,408.746 492.935,409.551C491.558,411.549 489.896,412.277 488.842,412.616C486.734,413.294 484.786,413.068 482.99,412.17C481.529,411.439 479.513,409.815 478.601,406.683C478.107,404.988 477.858,400.465 477.827,399.86C477.059,393.84 476.519,387.757 475.548,381.769C475.521,381.607 475.5,381.445 475.486,381.284Z" style="fill:rgb(255,232,192);"/>
                    <path d="M426.31,320.153C423.925,320.153 421.06,319.493 418.4,319.522C415.514,319.554 412.82,320.237 410.56,321.932C408.286,323.637 407.824,326.867 409.53,329.141C411.235,331.415 414.465,331.876 416.739,330.171C417.795,329.379 419.23,329.801 420.608,329.944C422.593,330.15 424.569,330.453 426.31,330.453C429.153,330.453 431.46,328.145 431.46,325.303C431.46,322.461 429.153,320.153 426.31,320.153Z" style="fill:rgb(255,232,192);"/>
                    <path d="M414.385,323.878C407.3,321.516 399.315,319.5 391.826,319.405C385.638,319.327 379.625,320.73 373.477,321.14C366.4,321.612 359.375,320.952 352.317,321.948C345.396,322.924 338.899,325.285 332.214,327.18C324.192,329.455 315.918,330.555 308.739,335.076C306.333,336.59 305.61,339.772 307.125,342.177C308.639,344.582 311.821,345.305 314.226,343.791C320.56,339.803 327.947,339.096 335.023,337.089C341.258,335.321 347.3,333.056 353.755,332.146C360.562,331.186 367.338,331.871 374.162,331.416C380.038,331.024 385.781,329.629 391.695,329.704C398.152,329.785 405.019,331.612 411.128,333.649C413.825,334.548 416.743,333.088 417.642,330.392C418.541,327.696 417.082,324.777 414.385,323.878Z" style="fill:rgb(255,232,192);"/>
                    <path d="M311.482,337.402C306.109,337.402 298.839,334.56 293.934,332.674C288.099,330.429 281.88,329.673 275.91,327.89C268.923,325.805 262.092,323.949 255.001,327.018C249.346,329.466 245.586,333.474 241.536,337.909C240.339,339.22 240.431,341.258 241.743,342.456C243.055,343.653 245.092,343.561 246.29,342.249C249.71,338.504 252.782,334.992 257.558,332.926C263.165,330.498 268.543,332.409 274.069,334.058C279.881,335.793 285.944,336.497 291.624,338.682C297.161,340.811 305.416,343.839 311.482,343.839C313.259,343.839 314.701,342.397 314.701,340.62C314.701,338.844 313.259,337.402 311.482,337.402Z" style="fill:rgb(255,232,192);"/>
                    <path d="M375.798,329.34C375.798,334.618 375.731,341.47 374.167,347.526C373.235,351.136 371.786,354.466 369.323,356.819C368.111,357.977 366.588,358.409 365.021,358.72C362.808,359.159 360.486,359.329 358.335,359.859C355.298,360.607 352.472,362.037 349.499,362.997C345.192,364.389 340.723,365.027 336.268,365.73C334.513,366.007 333.314,367.657 333.591,369.411C333.868,371.166 335.517,372.366 337.272,372.088C342.058,371.333 346.852,370.617 351.478,369.123C354.307,368.209 356.985,366.821 359.875,366.109C361.933,365.602 364.157,365.454 366.274,365.034C369.039,364.485 371.631,363.516 373.77,361.473C377.061,358.328 379.153,353.96 380.399,349.136C382.102,342.541 382.235,335.086 382.235,329.34C382.235,327.564 380.793,326.122 379.017,326.122C377.241,326.122 375.798,327.564 375.798,329.34Z" style="fill:rgb(255,232,192);"/>
                    <path d="M359.979,371.729C363.306,365.076 366.745,358.976 367.591,351.358C368.046,347.259 367.572,342.471 364.287,339.478C361.672,337.095 358.201,336.269 354.885,335.428C352.395,334.796 349.774,334.309 347.193,334.508C341.307,334.961 338.561,339.487 338.52,344.694C338.484,349.331 340.832,354.319 344.424,356.475C349.16,359.316 356.779,357.29 356.555,350.566C356.495,348.791 355.006,347.397 353.231,347.456C351.455,347.516 350.062,349.005 350.121,350.78C350.134,351.162 349.773,351.257 349.462,351.296C348.88,351.37 348.239,351.257 347.736,350.955C345.881,349.842 344.938,347.139 344.957,344.745C344.971,342.918 345.622,341.085 347.687,340.926C349.574,340.781 351.481,341.205 353.302,341.667C355.611,342.253 358.13,342.577 359.952,344.236C361.691,345.821 361.435,348.477 361.193,350.647C360.435,357.476 357.203,362.887 354.222,368.85C353.427,370.439 354.072,372.374 355.661,373.168C357.25,373.963 359.185,373.318 359.979,371.729Z" style="fill:rgb(255,232,192);"/>
                    <path d="M473.406,365.335C473.124,365.899 472.35,366.589 471.535,367.333C470.048,368.691 468.288,370.086 467.316,370.462C459.644,373.432 450.552,375.931 442.332,376.142C426.976,376.536 409.854,376.152 394.696,373.525C376.847,370.431 357.18,364.733 338.953,364.288C336.467,364.227 334.4,366.197 334.339,368.683C334.278,371.169 336.248,373.237 338.734,373.297C356.534,373.731 375.726,379.383 393.157,382.404C408.879,385.129 426.636,385.559 442.563,385.151C451.771,384.915 461.975,382.193 470.569,378.867C472.154,378.253 475.186,376.203 477.611,373.988C479.405,372.351 480.846,370.605 481.466,369.365C482.578,367.141 481.675,364.432 479.451,363.32C477.227,362.208 474.518,363.111 473.406,365.335Z" style="fill:rgb(255,232,192);"/>
                    <path d="M335.761,365.917C330.073,365.917 324.377,367.408 318.709,366.879C310.8,366.141 303.189,363.409 295.288,362.486C289.645,361.826 283.673,362.602 278.142,361.239C276.464,360.826 275.155,359.909 273.912,358.888C272.271,357.54 270.745,356.003 269.005,354.689C264.878,351.573 260.183,350.045 255.057,349.661C253.286,349.528 251.74,350.858 251.607,352.63C251.474,354.401 252.805,355.947 254.576,356.08C258.446,356.37 262.01,357.473 265.126,359.826C266.795,361.086 268.251,362.568 269.826,363.862C271.799,365.483 273.938,366.833 276.602,367.489C282.39,368.915 288.635,368.189 294.541,368.879C302.491,369.808 310.152,372.545 318.111,373.288C323.976,373.835 329.874,372.354 335.761,372.354C337.537,372.354 338.979,370.912 338.979,369.136C338.979,367.36 337.537,365.917 335.761,365.917Z" style="fill:rgb(255,232,192);"/>
                    <path d="M310.049,343.182C310.049,345.937 310.002,349.095 309.373,352.051C308.844,354.536 307.921,356.896 306.024,358.54C303.429,360.789 299.914,361.466 296.681,362.297C294.96,362.74 293.923,364.496 294.365,366.216C294.808,367.936 296.564,368.974 298.284,368.532C302.461,367.458 306.887,366.31 310.24,363.404C315.791,358.593 316.486,349.956 316.486,343.182C316.486,341.406 315.044,339.964 313.267,339.964C311.491,339.964 310.049,341.406 310.049,343.182Z" style="fill:rgb(255,232,192);"/>
                    <path d="M253.402,321.307C251.706,321.218 250.355,319.812 250.355,318.094C250.355,316.317 251.798,314.875 253.574,314.875C254.456,314.875 255.444,315.124 256.428,315.606C257.825,316.291 259.282,317.512 260.152,318.237C264.325,321.714 267.11,327.278 269.808,331.88C272.233,336.018 275.637,339.298 278.298,343.253C280.674,346.784 282.049,350.898 284.63,354.316C287.918,358.671 292.314,360.942 297.389,362.687C299.069,363.264 299.964,365.097 299.386,366.777C298.809,368.456 296.976,369.352 295.296,368.774C288.972,366.6 283.591,363.622 279.493,358.195C276.841,354.683 275.398,350.474 272.957,346.846C270.222,342.78 266.748,339.389 264.255,335.136C261.913,331.141 259.654,326.201 256.031,323.182C255.579,322.806 254.922,322.229 254.21,321.751C253.967,321.588 253.517,321.363 253.402,321.307Z" style="fill:rgb(255,232,192);"/>
                    <path d="M297.407,339.191C308.446,339.191 321.834,338.272 331.733,332.811C337.938,329.387 342.716,320.653 340.859,313.551C339.48,308.277 334.65,305.888 329.954,304.368C319.195,300.888 309.152,303.148 303.656,313.95C302.012,317.182 302.302,319.853 303.386,321.836C304.419,323.726 306.306,325.102 308.625,325.703C311.604,326.474 315.291,325.923 318.092,323.794C319.506,322.719 319.782,320.698 318.707,319.284C317.632,317.87 315.611,317.594 314.197,318.669C313.352,319.311 312.313,319.601 311.332,319.603C310.368,319.605 309.356,319.459 309.013,318.707C308.793,318.223 309.01,317.623 309.394,316.868C313.25,309.288 320.422,308.05 327.973,310.493C329.261,310.91 330.601,311.372 331.799,312.023C333.082,312.72 334.226,313.63 334.631,315.18C335.8,319.65 332.53,325.02 328.624,327.174C319.632,332.135 307.434,332.754 297.407,332.754C295.631,332.754 294.188,334.197 294.188,335.973C294.188,337.749 295.631,339.191 297.407,339.191Z" style="fill:rgb(255,232,192);"/>
                    <path d="M314.285,329.747C310.787,328.581 308.391,325.722 305.656,323.399C302.472,320.696 298.749,318.663 297.114,314.637C296.445,312.991 294.566,312.198 292.92,312.867C291.275,313.535 290.481,315.414 291.15,317.06C293.192,322.086 297.515,324.931 301.489,328.306C304.846,331.155 307.958,334.424 312.25,335.854C313.935,336.416 315.759,335.504 316.321,333.818C316.883,332.133 315.97,330.309 314.285,329.747Z" style="fill:rgb(255,232,192);"/>
                    <path d="M273.745,309.341C272.602,308.411 272.214,306.78 272.9,305.408C273.694,303.819 275.629,303.174 277.218,303.968C277.941,304.329 278.718,305.042 279.313,306.074C279.932,307.149 280.418,308.725 280.667,309.415C282.037,313.215 282.409,317.492 281.777,321.536C283.204,320 285.015,318.28 286.235,316.507C286.646,315.909 287.067,315.359 287.006,314.757C286.952,314.221 286.404,313.873 285.613,313.374C284.109,312.428 283.657,310.439 284.604,308.936C285.55,307.433 287.539,306.981 289.042,307.927C292.093,309.848 293.2,312.04 293.41,314.105C293.613,316.099 292.9,318.177 291.537,320.156C289.785,322.702 286.768,325.122 285.538,327.037C284.813,328.163 283.087,331.363 281.22,332.683C279.46,333.928 277.569,334.154 275.692,333.082C273.929,332.075 273.186,330.523 273.168,328.664C273.158,327.668 273.416,326.534 273.821,325.437C274.189,324.442 274.701,323.489 274.883,322.89C275.983,319.276 275.894,315.153 274.612,311.599C274.462,311.182 273.902,309.743 273.745,309.341Z" style="fill:rgb(255,232,192);"/>
                    <path d="M439.195,117.1C439.195,118.395 439.686,120.074 440.465,121.78C441.287,123.581 442.424,125.463 442.939,126.702C445.661,133.256 449.182,141.045 448.469,148.271C448.26,150.397 447.33,151.675 445.973,151.914C443.693,152.315 441.156,150.328 440.902,147.031C440.766,145.26 439.217,143.933 437.446,144.069C435.675,144.206 434.348,145.754 434.484,147.525C435.08,155.276 441.727,159.197 447.089,158.254C450.828,157.595 454.298,154.76 454.875,148.903C455.687,140.663 451.987,131.705 448.883,124.233C448.425,123.129 447.517,121.543 446.716,119.932C446.2,118.895 445.632,117.884 445.632,117.1C445.632,115.323 444.19,113.881 442.414,113.881C440.637,113.881 439.195,115.323 439.195,117.1Z" style="fill:rgb(255,232,192);"/>
                </g>
            </g>
        </g>
        <path d="M646.468,299.64C646.468,299.64 602.974,223.008 598.743,216C593.701,207.65 577.344,179.079 574.114,175.388C570.884,171.697 559.118,155.087 553.581,152.087C548.045,149.088 540.662,144.474 533.972,141.245C527.282,138.015 522.437,135.477 518.515,134.093C514.593,132.709 509.056,130.863 506.288,129.94C503.519,129.017 498.675,129.709 495.214,130.632C491.754,131.555 490.52,132.993 488.748,134.469C486.976,135.946 485.205,136.241 483.58,136.093C481.956,135.946 474.426,127.53 473.393,126.496C472.359,125.463 471.178,124.282 469.849,125.167C468.52,126.053 467.487,127.235 466.01,127.825C464.534,128.416 462.614,128.859 459.661,126.939C456.709,125.02 428.462,97.334 426.588,95.49C424.728,93.659 405.888,78.615 403.407,77.034C400.72,75.321 391.3,71.719 386.28,70.685C381.26,69.652 370.643,69.297 367.529,69.356C364.428,69.415 359.645,70.331 356.455,71.128C353.186,71.946 338.957,80.737 335,83.543C331.043,86.348 321.446,97.422 319.822,100.079C318.198,102.737 314.359,108.938 312.144,113.072C309.929,117.207 308.748,118.388 307.715,119.126C306.681,119.864 306.386,123.703 305.648,127.69C304.909,131.676 305.352,138.616 304.909,141.126C304.466,143.636 302.104,150.427 302.695,152.937C303.285,155.447 304.614,159.729 305.795,160.763C306.976,161.796 309.191,163.42 312.735,164.011C316.278,164.602 318.493,162.978 319.231,164.454C319.97,165.93 320.41,167.392 320.558,169.164C320.705,170.935 321.069,173.438 321.881,175.45C322.546,177.098 322.687,177.876 325.193,179.006C327.806,180.185 328.531,179.056 330.45,178.761C332.369,178.465 333.349,178.761 335,180.68C336.651,182.599 337.832,186.881 340.638,191.901C343.443,196.921 348.611,201.794 350.678,201.351C352.745,200.908 356.731,197.217 359.537,195.297C362.342,193.378 360.718,193.083 362.342,195.297C363.966,197.512 369.892,206.993 371.792,209.914C373.711,212.867 374.154,213.901 377.402,214.639C380.65,215.377 384.489,214.934 385.523,214.049C386.556,213.163 386.704,208.733 388.18,208.586C389.657,208.438 392.019,207.109 394.086,209.029C396.153,210.948 396.153,211.096 396.301,214.344C396.449,217.592 396.006,219.216 395.711,219.954C395.415,220.693 396.269,224.071 399.73,224.994C403.19,225.917 404.365,226.021 409.456,228.058C412.548,229.294 409.133,233.659 409.281,236.465C409.428,239.27 402.877,258.783 401.724,263.397C400.57,268.011 398.955,271.933 396.418,274.009C393.88,276.085 388.343,291.081 386.959,294.772C385.575,298.463 385.344,300.77 385.575,303.308C385.805,305.846 371.733,304.923 367.119,304.692C362.505,304.461 350.739,304.692 345.202,306.768C339.665,308.845 337.025,309.998 335,309.767C332.975,309.537 329.284,304.923 325.593,305.384C321.901,305.846 320.056,302.616 315.673,307.23C311.289,311.844 308.29,310.921 304.83,312.074C301.369,313.228 301.024,310.097 297.886,307.882C294.749,305.668 279.969,301.619 276.508,303.465C273.048,305.31 272.356,303.926 267.511,305.772C262.666,307.617 262.897,309.693 261.282,311.308C259.667,312.923 258.514,311.078 256.207,312.923C253.9,314.769 238.904,322.151 237.52,325.612C236.136,329.072 237.289,329.303 237.52,330.456C237.751,331.61 237.346,341.111 243.474,343.634C249.602,346.157 247.8,354.448 254.288,355.529C260.777,356.611 259.696,356.971 267.626,362.018C275.556,367.064 275.917,368.506 283.847,368.867C291.777,369.227 289.254,368.146 303.673,370.309C318.091,372.471 304.033,371.75 319.533,372.111C335.034,372.471 331.789,372.471 339.72,372.832C347.65,373.192 358.464,373.913 365.313,375.716C372.162,377.518 394.15,381.123 398.476,382.925C402.802,384.727 448.942,385.448 452.907,383.285C456.872,381.123 460.116,380.762 466.605,379.32C473.093,377.878 470.93,375.355 474.535,378.96C478.14,382.565 479.582,392.578 481.744,400.948C483.907,409.319 482.551,432.627 488.084,432.665C491.441,432.689 657.397,432.603 659.956,432.569C662.418,432.535 659.77,315.741 659.954,312.603C660.139,309.466 646.468,299.64 646.468,299.64Z" style="fill:none;stroke:rgb(255,232,192);stroke-width:3.43px;"/>
        <path d="M286.554,370.004C286.554,370.004 292.898,382.981 293.187,385.576C293.475,388.171 124.776,388.46 119.585,388.748C114.395,389.037 56.431,268.784 55.854,263.017C55.278,257.249 66.236,255.519 71.138,254.942C76.041,254.366 140.637,242.542 144.097,242.254C147.558,241.965 165.725,273.687 166.59,276.282C167.455,278.877 170.898,253.366 164.049,243.634C157.2,233.901 149.976,222.652 146.728,220.88C143.48,219.109 131.077,212.612 124.729,212.612C118.38,212.612 106.42,214.073 100.367,216C94.313,217.927 86.192,218.37 78.81,221.028C71.428,223.686 70.099,224.129 67.146,229.296C64.193,234.464 64.944,232.039 63.898,237.269C63.307,240.222 63.455,241.551 66.851,241.846C70.247,242.142 71.428,245.39 70.985,247.309C70.542,249.229 66.408,251.739 62.864,252.182C59.321,252.625 56.515,250.278 54.891,249.606C53.267,248.933 49.428,245.685 50.166,241.846C50.905,238.008 51.643,234.759 54.005,231.659C56.368,228.558 68.802,216.653 70.616,216C72.431,215.347 84.072,207.863 87.474,207.409C90.876,206.955 107.129,201.739 110.531,202.042C113.933,202.344 131.244,204.158 134.495,206.88C137.745,209.601 143.566,212.55 144.927,212.625C146.288,212.701 142.619,205.672 135.68,201.686C128.741,197.699 113.68,191.35 109.399,190.76C105.117,190.169 89.466,177.914 87.694,175.404C85.923,172.894 57.87,150.452 53.883,145.136C49.897,139.821 43.548,131.405 42.367,126.238C41.185,121.07 34.246,103.5 33.508,95.527C32.769,87.554 31.145,70.722 31.736,64.521C32.327,58.32 41.776,39.568 44.286,37.796C46.796,36.025 63.037,26.428 68.5,25.246C73.963,24.065 97.292,18.307 101.721,17.421C106.15,16.535 131.841,12.844 138.042,14.32C144.244,15.797 160.928,17.569 164.619,21.555C168.31,25.542 177.169,33.81 179.531,39.125C181.894,44.441 188.243,58.91 189.571,63.192C190.9,67.474 190.162,76.628 189.867,80.171C189.571,83.715 189.571,89.473 187.061,93.164C184.551,96.856 182.041,100.399 178.35,103.795C174.659,107.191 164.471,115.459 161.666,117.526C158.861,119.593 150.445,124.613 147.344,126.385C144.244,128.157 140.109,130.372 136.861,130.667C133.613,130.962 135.237,131.258 127.116,130.815C118.996,130.372 114.271,130.519 109.251,129.043C104.231,127.566 95.372,125.204 93.157,121.513C90.943,117.822 88.433,115.312 86.366,108.667C84.299,102.023 84.151,91.393 84.003,88.144C83.856,84.896 82.822,72.998 84.003,69.35C85.184,65.702 91.386,57.729 94.339,54.481C97.292,51.232 103.05,44.145 107.479,42.521C111.909,40.897 111.761,41.34 115.157,41.045C118.553,40.749 123.573,41.34 125.492,42.964C127.412,44.588 130.512,45.474 133.318,47.541C136.123,49.608 141.438,51.232 141.881,54.481C142.324,57.729 144.096,63.34 143.21,67.031C142.324,70.722 140.552,74.413 138.042,77.366C135.532,80.319 129.626,92.426 127.559,93.017C125.492,93.607 121.653,94.346 121.506,92.131C121.358,89.916 121.211,87.406 121.949,83.124C122.687,78.843 123.573,75.89 122.835,71.755C122.096,67.621 122.982,65.111 121.358,63.782C119.734,62.454 120.472,61.715 116.781,60.977C113.09,60.239 110.137,60.239 106.741,61.42C103.345,62.601 102.607,62.454 101.278,65.702C99.949,68.95 97.144,79.581 97.144,83.715C97.144,87.849 98.325,94.346 100.687,96.856C103.05,99.366 106.298,107.634 110.137,108.963C113.976,110.292 119.734,112.802 128.445,112.949C137.156,113.097 149.559,110.439 152.512,107.929C155.465,105.419 166.834,94.789 169.787,90.359C172.74,85.93 171.706,74.18 171.411,69.35C171.115,64.521 168.163,54.481 166.834,51.232C165.505,47.984 162.552,43.555 157.827,40.159C153.102,36.763 144.687,30.709 140.848,30.562C137.009,30.414 126.969,27.609 121.506,27.904C116.043,28.199 102.902,28.79 98.62,31.005C94.339,33.219 58.608,47.541 54.178,55.957C49.749,64.373 50.192,62.749 49.158,67.178C48.125,71.608 47.977,77.218 48.715,82.238C49.454,87.258 56.513,104.995 59.512,109.378C62.511,113.761 68.509,129.68 70.586,132.909C72.662,136.139 85.12,147.905 87.427,152.057C89.734,156.21 96.193,164.977 99.423,166.13C102.653,167.284 115.803,175.127 122.724,176.742C129.645,178.357 137.027,179.28 142.795,183.663C148.562,188.047 152.946,191.507 156.406,196.352C159.867,201.196 167.48,213.04 168.864,216C170.248,218.96 172.094,224.959 170.94,229.803C169.787,234.648 173.016,241.108 174.631,241.108C176.246,241.108 176.708,239.493 176.477,232.572C176.246,225.651 175.554,202.811 175.093,196.352C174.631,189.892 174.631,177.434 177.4,170.975C180.168,164.515 184.782,156.21 189.396,150.673C194.01,145.136 197.701,142.368 201.393,138.677C205.084,134.986 221.233,122.066 224.924,121.144C228.615,120.221 232.627,117.683 236.85,118.606C241.073,119.529 247.302,119.067 249.378,121.605C251.454,124.143 252.146,129.91 251.454,135.908C250.762,141.907 249.839,149.52 247.532,152.057C245.225,154.595 241.163,159.671 236.85,159.671C232.537,159.671 227.923,157.825 224.232,158.056C220.541,158.286 219.387,157.825 216.388,158.517C213.389,159.209 209.928,157.825 215.235,155.287C220.541,152.75 218.464,152.75 224.693,152.98C230.922,153.211 236.088,154.826 236.85,151.596C237.612,148.366 241.073,143.522 238.997,138.677C236.92,133.832 232.076,129.91 227.231,131.756C222.386,133.601 223.078,134.524 217.542,139.138C212.005,143.752 209.698,145.598 204.853,151.827C200.008,158.056 192.626,163.823 190.55,170.283C188.473,176.742 184.551,182.048 184.09,187.124C183.629,192.199 186.858,197.505 186.628,204.426C186.397,211.347 185.936,215.731 186.628,218.499C187.32,221.267 187.32,230.034 187.551,236.263C187.781,242.492 185.936,245.26 190.088,244.568C194.241,243.876 194.702,245.26 197.932,241.569C201.162,237.878 206.007,228.188 206.237,224.266C206.468,220.345 206.929,217.345 205.084,220.114C203.238,222.882 204.622,225.881 201.623,225.189C198.624,224.497 199.316,223.574 199.086,219.191C198.855,214.808 201.854,211.347 204.161,208.81C206.468,206.272 206.468,206.733 209.467,206.733C212.466,206.733 213.85,207.887 214.542,211.347C215.235,214.808 215.235,220.345 215.235,224.036C215.235,227.727 210.704,236.863 209.089,238.478C207.474,240.092 198.255,250.446 195.154,252.956C192.054,255.466 188.658,257.238 186,262.996C183.343,268.755 180.094,277.466 179.504,282.043C178.913,286.62 179.504,290.311 180.39,295.184C181.276,300.056 181.128,302.123 182.014,300.647C182.9,299.17 183.49,296.069 187.181,291.345C190.873,286.62 205.637,266.097 209.181,263.439C212.725,260.782 227.932,245.131 230.885,242.916C233.838,240.701 241.331,225.9 243.913,221.84C246.495,217.779 247.972,213.719 249.633,208.736C251.294,203.753 252.77,201.353 257.2,198.031C261.629,194.709 266.612,190.649 271.595,190.649C276.578,190.649 285.068,190.095 287.098,192.495C289.129,194.894 289.867,201.538 287.283,205.414C284.699,209.289 284.884,209.843 281.377,210.397C277.87,210.95 274.179,213.165 273.625,210.397C273.072,207.628 272.334,202.276 271.964,200.615C271.595,198.954 268.827,199.323 266.981,202.276C265.136,205.229 262.367,209.659 259.414,211.504C256.461,213.35 255.723,212.375 253.693,216C251.663,219.625 249.264,228.299 247.972,230.514C246.68,232.729 246.13,236.604 243.913,238.081C241.697,239.557 239.851,243.433 238.375,245.279C236.898,247.124 246.495,240.665 250.371,237.712C254.247,234.759 258.861,229.96 260.891,227.561C262.921,225.162 268.089,221.101 271.964,218.702C275.84,216.303 280.031,214.071 280.756,214.132C281.482,214.192 284.506,212.075 286.139,212.317C287.772,212.559 291.211,213.228 291.211,216C291.211,218.772 291.765,221.356 289.735,223.017C287.705,224.678 288.997,225.785 286.967,226.154C284.936,226.523 284.014,223.201 283.46,221.54C282.906,219.879 280.056,220.802 277.698,222.278C275.339,223.755 275.524,226.154 272.202,229.476C268.88,232.798 267.957,232.614 267.588,234.275C267.219,235.936 267.957,237.597 271.094,236.12C274.232,234.644 282.722,230.953 286.044,231.322C289.366,231.691 290.289,234.275 292.688,230.584C295.087,226.892 297.671,221.54 300.809,219.141C303.946,216.742 306.345,213.973 308.006,211.758C309.667,209.544 310.713,206.037 311.482,202.53C312.251,199.024 313.721,193.584 314.09,191.369C314.459,189.154 316.418,185.388 317.127,183.616C317.836,181.844 320.418,175.525 321.887,176.954C323.386,178.414 323.466,178.026 324.884,178.853C326.301,179.68 326.167,181.183 325.104,182.955C324.041,184.727 321.025,188.341 319.962,191.176C318.899,194.01 319.135,196.963 318.899,200.153C318.663,203.342 318.663,207.476 316.418,209.956C314.174,212.437 309.762,217.555 313.267,216C316.773,214.445 316.182,213.146 318.781,211.019C321.379,208.893 319.202,208.631 321.025,205.35C322.797,202.161 322.442,201.924 324.096,201.452C325.75,200.979 326.576,200.979 327.403,202.633C328.23,204.287 327.758,206.177 327.285,208.657C326.813,211.138 323.033,218.933 320.671,220.351C318.308,221.768 310.396,226.493 305.375,228.619C300.354,230.745 298.272,229.564 297.482,230.981C296.693,232.399 295.555,233.344 297.482,233.462C299.409,233.58 306.024,233.58 308.859,232.871C311.694,232.163 312.048,231.69 317.363,232.399C322.679,233.108 321.497,235.116 326.104,233.108C330.711,231.1 334.963,230.036 337.916,227.674C340.869,225.312 341.105,224.957 344.176,221.296C347.247,217.634 347.956,216.689 349.964,214.209C351.972,211.728 351.145,210.665 353.271,210.429C355.397,210.193 357.051,208.893 358.705,210.074C360.358,211.256 360.335,213.589 360.146,215.195C359.957,216.801 356.744,219.825 355.799,220.581C354.854,221.337 350.696,227.857 348.523,228.897C346.349,229.936 343.231,234.661 341.152,235.039C339.073,235.417 333.971,236.74 331.608,236.834C329.246,236.929 327.167,236.834 328.49,237.401C329.813,237.968 333.12,238.913 336.333,237.874C339.546,236.834 342.003,235.984 344.838,234.661C347.672,233.338 347.483,234.094 350.318,232.204C353.153,230.314 354.287,228.519 356.366,227.101C358.445,225.684 361.469,224.077 363.547,223.416C365.626,222.754 365.343,222.565 368.556,221.81C371.768,221.054 371.296,221.054 374.225,220.203C377.155,219.353 376.115,219.353 377.816,219.542C379.517,219.731 380.934,220.203 381.029,221.621C381.123,223.038 376.021,227.196 372.997,228.519C369.973,229.842 364.093,233.621 362.12,233.716C360.146,233.81 350.791,237.496 348.712,238.157C346.633,238.819 342.381,241.937 340.491,242.126C338.601,242.315 330.947,242.598 329.624,242.976C328.301,243.354 342.097,243.543 344.365,242.693C346.633,241.842 346.727,240.992 351.169,240.141C355.61,239.291 359.747,237.59 362.12,237.307C364.492,237.023 368.745,234.944 371.013,233.716C373.28,232.487 380.273,228.519 381.501,227.668C382.73,226.818 392.557,220.581 393.975,220.014C395.392,219.447 398.699,223.227 398.794,224.644C398.888,226.062 399.55,227.196 398.794,228.33C398.038,229.464 393.975,233.905 390.573,236.173C387.171,238.441 375.908,243.509 372.932,244.819C369.241,246.443 368.65,247.477 365.697,248.215C362.744,248.953 357.577,251.168 351.671,251.168C345.765,251.168 337.819,251.02 335,251.168C332.181,251.315 325.98,251.144 323.765,249.606C321.551,248.067 314.555,244.671 311.482,244.376C308.41,244.081 303.095,241.866 300.585,242.014C298.075,242.161 288.034,243.342 283.014,243.638C277.994,243.933 272.679,243.933 269.283,245.41C265.887,246.886 258.505,247.453 255.847,249.606C253.19,251.758 241.92,255.302 236.85,260.174C231.781,265.047 227.794,269.328 223.365,272.872C218.935,276.416 216.721,277.597 216.13,280.107C215.539,282.617 216.573,283.06 218.935,284.536C221.298,286.013 224.989,287.784 228.975,287.194C232.962,286.603 240.691,285.57 243.913,285.57C247.136,285.57 252.894,285.127 258.062,286.899C263.23,288.67 267.068,290.294 271.498,292.066C275.927,293.838 292.021,297.086 292.907,300.039C293.793,302.992 295.712,305.355 295.712,305.355L277.698,302.697C277.698,302.697 272.679,299.892 269.874,298.12C267.068,296.348 261.606,296.2 259.096,296.348C256.585,296.496 246.744,292.657 243.913,292.362C241.082,292.066 227.794,291.623 225.284,292.214C222.774,292.804 217.164,293.247 213.915,294.281C210.667,295.315 209.043,295.61 208.748,297.234C208.452,298.858 207.419,299.892 210.372,299.153C213.325,298.415 215.392,296.791 216.721,296.496C218.049,296.2 221.888,295.757 225.579,295.905C229.271,296.053 234.537,296.053 236.85,296.939C239.163,297.825 239.311,298.858 242.116,301.22C244.921,303.583 248.908,305.65 250.827,308.012C252.747,310.375 252.747,310.375 254.223,312.294C255.7,314.213 249.498,313.032 246.988,312.442C244.478,311.851 238.967,307.865 236.85,307.126C234.734,306.388 230.599,304.321 227.647,304.321C224.694,304.321 221.445,303.435 217.754,303.73C214.063,304.026 215.392,304.469 210.076,305.945C204.761,307.422 204.023,306.979 199.741,308.16C195.459,309.341 194.721,308.898 190.882,311.999C187.043,315.099 185.567,316.133 184.09,318.791C182.614,321.448 185.286,321.883 188.534,321.736C191.782,321.588 209.795,320.85 216.292,319.964C222.788,319.078 227.808,318.635 234.305,318.487C240.801,318.34 243.777,316.568 243.913,318.635C244.049,320.702 236.913,323.53 236.85,325.538C236.787,327.546 236.551,336.084 239.149,339.433C241.748,342.783 244.937,343.374 246.355,345.618C247.772,347.862 247.772,349.634 249.544,351.642C251.316,353.65 253.796,354.238 255.922,354.298C258.048,354.359 286.554,370.004 286.554,370.004Z" style="fill:rgb(92,54,38);"/>
        <g>
            <clipPath id="_clip2">
                <path d="M286.554,370.004C286.554,370.004 292.898,382.981 293.187,385.576C293.475,388.171 124.776,388.46 119.585,388.748C114.395,389.037 56.431,268.784 55.854,263.017C55.278,257.249 66.236,255.519 71.138,254.942C76.041,254.366 140.637,242.542 144.097,242.254C147.558,241.965 165.725,273.687 166.59,276.282C167.455,278.877 170.898,253.366 164.049,243.634C157.2,233.901 149.976,222.652 146.728,220.88C143.48,219.109 131.077,212.612 124.729,212.612C118.38,212.612 106.42,214.073 100.367,216C94.313,217.927 86.192,218.37 78.81,221.028C71.428,223.686 70.099,224.129 67.146,229.296C64.193,234.464 64.944,232.039 63.898,237.269C63.307,240.222 63.455,241.551 66.851,241.846C70.247,242.142 71.428,245.39 70.985,247.309C70.542,249.229 66.408,251.739 62.864,252.182C59.321,252.625 56.515,250.278 54.891,249.606C53.267,248.933 49.428,245.685 50.166,241.846C50.905,238.008 51.643,234.759 54.005,231.659C56.368,228.558 68.802,216.653 70.616,216C72.431,215.347 84.072,207.863 87.474,207.409C90.876,206.955 107.129,201.739 110.531,202.042C113.933,202.344 131.244,204.158 134.495,206.88C137.745,209.601 143.566,212.55 144.927,212.625C146.288,212.701 142.619,205.672 135.68,201.686C128.741,197.699 113.68,191.35 109.399,190.76C105.117,190.169 89.466,177.914 87.694,175.404C85.923,172.894 57.87,150.452 53.883,145.136C49.897,139.821 43.548,131.405 42.367,126.238C41.185,121.07 34.246,103.5 33.508,95.527C32.769,87.554 31.145,70.722 31.736,64.521C32.327,58.32 41.776,39.568 44.286,37.796C46.796,36.025 63.037,26.428 68.5,25.246C73.963,24.065 97.292,18.307 101.721,17.421C106.15,16.535 131.841,12.844 138.042,14.32C144.244,15.797 160.928,17.569 164.619,21.555C168.31,25.542 177.169,33.81 179.531,39.125C181.894,44.441 188.243,58.91 189.571,63.192C190.9,67.474 190.162,76.628 189.867,80.171C189.571,83.715 189.571,89.473 187.061,93.164C184.551,96.856 182.041,100.399 178.35,103.795C174.659,107.191 164.471,115.459 161.666,117.526C158.861,119.593 150.445,124.613 147.344,126.385C144.244,128.157 140.109,130.372 136.861,130.667C133.613,130.962 135.237,131.258 127.116,130.815C118.996,130.372 114.271,130.519 109.251,129.043C104.231,127.566 95.372,125.204 93.157,121.513C90.943,117.822 88.433,115.312 86.366,108.667C84.299,102.023 84.151,91.393 84.003,88.144C83.856,84.896 82.822,72.998 84.003,69.35C85.184,65.702 91.386,57.729 94.339,54.481C97.292,51.232 103.05,44.145 107.479,42.521C111.909,40.897 111.761,41.34 115.157,41.045C118.553,40.749 123.573,41.34 125.492,42.964C127.412,44.588 130.512,45.474 133.318,47.541C136.123,49.608 141.438,51.232 141.881,54.481C142.324,57.729 144.096,63.34 143.21,67.031C142.324,70.722 140.552,74.413 138.042,77.366C135.532,80.319 129.626,92.426 127.559,93.017C125.492,93.607 121.653,94.346 121.506,92.131C121.358,89.916 121.211,87.406 121.949,83.124C122.687,78.843 123.573,75.89 122.835,71.755C122.096,67.621 122.982,65.111 121.358,63.782C119.734,62.454 120.472,61.715 116.781,60.977C113.09,60.239 110.137,60.239 106.741,61.42C103.345,62.601 102.607,62.454 101.278,65.702C99.949,68.95 97.144,79.581 97.144,83.715C97.144,87.849 98.325,94.346 100.687,96.856C103.05,99.366 106.298,107.634 110.137,108.963C113.976,110.292 119.734,112.802 128.445,112.949C137.156,113.097 149.559,110.439 152.512,107.929C155.465,105.419 166.834,94.789 169.787,90.359C172.74,85.93 171.706,74.18 171.411,69.35C171.115,64.521 168.163,54.481 166.834,51.232C165.505,47.984 162.552,43.555 157.827,40.159C153.102,36.763 144.687,30.709 140.848,30.562C137.009,30.414 126.969,27.609 121.506,27.904C116.043,28.199 102.902,28.79 98.62,31.005C94.339,33.219 58.608,47.541 54.178,55.957C49.749,64.373 50.192,62.749 49.158,67.178C48.125,71.608 47.977,77.218 48.715,82.238C49.454,87.258 56.513,104.995 59.512,109.378C62.511,113.761 68.509,129.68 70.586,132.909C72.662,136.139 85.12,147.905 87.427,152.057C89.734,156.21 96.193,164.977 99.423,166.13C102.653,167.284 115.803,175.127 122.724,176.742C129.645,178.357 137.027,179.28 142.795,183.663C148.562,188.047 152.946,191.507 156.406,196.352C159.867,201.196 167.48,213.04 168.864,216C170.248,218.96 172.094,224.959 170.94,229.803C169.787,234.648 173.016,241.108 174.631,241.108C176.246,241.108 176.708,239.493 176.477,232.572C176.246,225.651 175.554,202.811 175.093,196.352C174.631,189.892 174.631,177.434 177.4,170.975C180.168,164.515 184.782,156.21 189.396,150.673C194.01,145.136 197.701,142.368 201.393,138.677C205.084,134.986 221.233,122.066 224.924,121.144C228.615,120.221 232.627,117.683 236.85,118.606C241.073,119.529 247.302,119.067 249.378,121.605C251.454,124.143 252.146,129.91 251.454,135.908C250.762,141.907 249.839,149.52 247.532,152.057C245.225,154.595 241.163,159.671 236.85,159.671C232.537,159.671 227.923,157.825 224.232,158.056C220.541,158.286 219.387,157.825 216.388,158.517C213.389,159.209 209.928,157.825 215.235,155.287C220.541,152.75 218.464,152.75 224.693,152.98C230.922,153.211 236.088,154.826 236.85,151.596C237.612,148.366 241.073,143.522 238.997,138.677C236.92,133.832 232.076,129.91 227.231,131.756C222.386,133.601 223.078,134.524 217.542,139.138C212.005,143.752 209.698,145.598 204.853,151.827C200.008,158.056 192.626,163.823 190.55,170.283C188.473,176.742 184.551,182.048 184.09,187.124C183.629,192.199 186.858,197.505 186.628,204.426C186.397,211.347 185.936,215.731 186.628,218.499C187.32,221.267 187.32,230.034 187.551,236.263C187.781,242.492 185.936,245.26 190.088,244.568C194.241,243.876 194.702,245.26 197.932,241.569C201.162,237.878 206.007,228.188 206.237,224.266C206.468,220.345 206.929,217.345 205.084,220.114C203.238,222.882 204.622,225.881 201.623,225.189C198.624,224.497 199.316,223.574 199.086,219.191C198.855,214.808 201.854,211.347 204.161,208.81C206.468,206.272 206.468,206.733 209.467,206.733C212.466,206.733 213.85,207.887 214.542,211.347C215.235,214.808 215.235,220.345 215.235,224.036C215.235,227.727 210.704,236.863 209.089,238.478C207.474,240.092 198.255,250.446 195.154,252.956C192.054,255.466 188.658,257.238 186,262.996C183.343,268.755 180.094,277.466 179.504,282.043C178.913,286.62 179.504,290.311 180.39,295.184C181.276,300.056 181.128,302.123 182.014,300.647C182.9,299.17 183.49,296.069 187.181,291.345C190.873,286.62 205.637,266.097 209.181,263.439C212.725,260.782 227.932,245.131 230.885,242.916C233.838,240.701 241.331,225.9 243.913,221.84C246.495,217.779 247.972,213.719 249.633,208.736C251.294,203.753 252.77,201.353 257.2,198.031C261.629,194.709 266.612,190.649 271.595,190.649C276.578,190.649 285.068,190.095 287.098,192.495C289.129,194.894 289.867,201.538 287.283,205.414C284.699,209.289 284.884,209.843 281.377,210.397C277.87,210.95 274.179,213.165 273.625,210.397C273.072,207.628 272.334,202.276 271.964,200.615C271.595,198.954 268.827,199.323 266.981,202.276C265.136,205.229 262.367,209.659 259.414,211.504C256.461,213.35 255.723,212.375 253.693,216C251.663,219.625 249.264,228.299 247.972,230.514C246.68,232.729 246.13,236.604 243.913,238.081C241.697,239.557 239.851,243.433 238.375,245.279C236.898,247.124 246.495,240.665 250.371,237.712C254.247,234.759 258.861,229.96 260.891,227.561C262.921,225.162 268.089,221.101 271.964,218.702C275.84,216.303 280.031,214.071 280.756,214.132C281.482,214.192 284.506,212.075 286.139,212.317C287.772,212.559 291.211,213.228 291.211,216C291.211,218.772 291.765,221.356 289.735,223.017C287.705,224.678 288.997,225.785 286.967,226.154C284.936,226.523 284.014,223.201 283.46,221.54C282.906,219.879 280.056,220.802 277.698,222.278C275.339,223.755 275.524,226.154 272.202,229.476C268.88,232.798 267.957,232.614 267.588,234.275C267.219,235.936 267.957,237.597 271.094,236.12C274.232,234.644 282.722,230.953 286.044,231.322C289.366,231.691 290.289,234.275 292.688,230.584C295.087,226.892 297.671,221.54 300.809,219.141C303.946,216.742 306.345,213.973 308.006,211.758C309.667,209.544 310.713,206.037 311.482,202.53C312.251,199.024 313.721,193.584 314.09,191.369C314.459,189.154 316.418,185.388 317.127,183.616C317.836,181.844 320.418,175.525 321.887,176.954C323.386,178.414 323.466,178.026 324.884,178.853C326.301,179.68 326.167,181.183 325.104,182.955C324.041,184.727 321.025,188.341 319.962,191.176C318.899,194.01 319.135,196.963 318.899,200.153C318.663,203.342 318.663,207.476 316.418,209.956C314.174,212.437 309.762,217.555 313.267,216C316.773,214.445 316.182,213.146 318.781,211.019C321.379,208.893 319.202,208.631 321.025,205.35C322.797,202.161 322.442,201.924 324.096,201.452C325.75,200.979 326.576,200.979 327.403,202.633C328.23,204.287 327.758,206.177 327.285,208.657C326.813,211.138 323.033,218.933 320.671,220.351C318.308,221.768 310.396,226.493 305.375,228.619C300.354,230.745 298.272,229.564 297.482,230.981C296.693,232.399 295.555,233.344 297.482,233.462C299.409,233.58 306.024,233.58 308.859,232.871C311.694,232.163 312.048,231.69 317.363,232.399C322.679,233.108 321.497,235.116 326.104,233.108C330.711,231.1 334.963,230.036 337.916,227.674C340.869,225.312 341.105,224.957 344.176,221.296C347.247,217.634 347.956,216.689 349.964,214.209C351.972,211.728 351.145,210.665 353.271,210.429C355.397,210.193 357.051,208.893 358.705,210.074C360.358,211.256 360.335,213.589 360.146,215.195C359.957,216.801 356.744,219.825 355.799,220.581C354.854,221.337 350.696,227.857 348.523,228.897C346.349,229.936 343.231,234.661 341.152,235.039C339.073,235.417 333.971,236.74 331.608,236.834C329.246,236.929 327.167,236.834 328.49,237.401C329.813,237.968 333.12,238.913 336.333,237.874C339.546,236.834 342.003,235.984 344.838,234.661C347.672,233.338 347.483,234.094 350.318,232.204C353.153,230.314 354.287,228.519 356.366,227.101C358.445,225.684 361.469,224.077 363.547,223.416C365.626,222.754 365.343,222.565 368.556,221.81C371.768,221.054 371.296,221.054 374.225,220.203C377.155,219.353 376.115,219.353 377.816,219.542C379.517,219.731 380.934,220.203 381.029,221.621C381.123,223.038 376.021,227.196 372.997,228.519C369.973,229.842 364.093,233.621 362.12,233.716C360.146,233.81 350.791,237.496 348.712,238.157C346.633,238.819 342.381,241.937 340.491,242.126C338.601,242.315 330.947,242.598 329.624,242.976C328.301,243.354 342.097,243.543 344.365,242.693C346.633,241.842 346.727,240.992 351.169,240.141C355.61,239.291 359.747,237.59 362.12,237.307C364.492,237.023 368.745,234.944 371.013,233.716C373.28,232.487 380.273,228.519 381.501,227.668C382.73,226.818 392.557,220.581 393.975,220.014C395.392,219.447 398.699,223.227 398.794,224.644C398.888,226.062 399.55,227.196 398.794,228.33C398.038,229.464 393.975,233.905 390.573,236.173C387.171,238.441 375.908,243.509 372.932,244.819C369.241,246.443 368.65,247.477 365.697,248.215C362.744,248.953 357.577,251.168 351.671,251.168C345.765,251.168 337.819,251.02 335,251.168C332.181,251.315 325.98,251.144 323.765,249.606C321.551,248.067 314.555,244.671 311.482,244.376C308.41,244.081 303.095,241.866 300.585,242.014C298.075,242.161 288.034,243.342 283.014,243.638C277.994,243.933 272.679,243.933 269.283,245.41C265.887,246.886 258.505,247.453 255.847,249.606C253.19,251.758 241.92,255.302 236.85,260.174C231.781,265.047 227.794,269.328 223.365,272.872C218.935,276.416 216.721,277.597 216.13,280.107C215.539,282.617 216.573,283.06 218.935,284.536C221.298,286.013 224.989,287.784 228.975,287.194C232.962,286.603 240.691,285.57 243.913,285.57C247.136,285.57 252.894,285.127 258.062,286.899C263.23,288.67 267.068,290.294 271.498,292.066C275.927,293.838 292.021,297.086 292.907,300.039C293.793,302.992 295.712,305.355 295.712,305.355L277.698,302.697C277.698,302.697 272.679,299.892 269.874,298.12C267.068,296.348 261.606,296.2 259.096,296.348C256.585,296.496 246.744,292.657 243.913,292.362C241.082,292.066 227.794,291.623 225.284,292.214C222.774,292.804 217.164,293.247 213.915,294.281C210.667,295.315 209.043,295.61 208.748,297.234C208.452,298.858 207.419,299.892 210.372,299.153C213.325,298.415 215.392,296.791 216.721,296.496C218.049,296.2 221.888,295.757 225.579,295.905C229.271,296.053 234.537,296.053 236.85,296.939C239.163,297.825 239.311,298.858 242.116,301.22C244.921,303.583 248.908,305.65 250.827,308.012C252.747,310.375 252.747,310.375 254.223,312.294C255.7,314.213 249.498,313.032 246.988,312.442C244.478,311.851 238.967,307.865 236.85,307.126C234.734,306.388 230.599,304.321 227.647,304.321C224.694,304.321 221.445,303.435 217.754,303.73C214.063,304.026 215.392,304.469 210.076,305.945C204.761,307.422 204.023,306.979 199.741,308.16C195.459,309.341 194.721,308.898 190.882,311.999C187.043,315.099 185.567,316.133 184.09,318.791C182.614,321.448 185.286,321.883 188.534,321.736C191.782,321.588 209.795,320.85 216.292,319.964C222.788,319.078 227.808,318.635 234.305,318.487C240.801,318.34 243.777,316.568 243.913,318.635C244.049,320.702 236.913,323.53 236.85,325.538C236.787,327.546 236.551,336.084 239.149,339.433C241.748,342.783 244.937,343.374 246.355,345.618C247.772,347.862 247.772,349.634 249.544,351.642C251.316,353.65 253.796,354.238 255.922,354.298C258.048,354.359 286.554,370.004 286.554,370.004Z"/>
            </clipPath>
            <g clip-path="url(#_clip2)">
                <path d="M246.607,349.565C245.888,349.745 245.055,350.233 244.24,350.945C242.945,352.076 241.594,353.839 240.783,354.606C237.5,357.71 233.831,360.826 229.782,362.884C215.707,370.037 200.479,366.832 185.947,363.018C182.991,362.242 179.788,361.592 176.943,360.38C174.421,359.307 172.184,357.78 170.82,355.144C170.33,354.197 169.164,353.826 168.217,354.316C167.271,354.805 166.9,355.971 167.389,356.918C169.196,360.41 172.09,362.512 175.43,363.934C178.446,365.218 181.834,365.931 184.966,366.753C200.404,370.806 216.58,373.926 231.532,366.327C235.906,364.104 239.889,360.766 243.437,357.412C244.128,356.759 245.212,355.376 246.318,354.285C246.762,353.848 247.153,353.41 247.544,353.312C248.578,353.054 249.207,352.004 248.949,350.97C248.69,349.936 247.641,349.307 246.607,349.565Z" style="fill:rgb(255,232,192);stroke:rgb(255,232,192);stroke-width:1.29px;stroke-linecap:butt;stroke-miterlimit:2;"/>
                <path d="M236.74,341.723C236.225,341.827 234.666,342.146 234.49,342.196C232.867,342.656 231.472,343.575 230.059,344.463C228.326,345.554 226.574,346.611 224.559,347.143C221.782,347.876 218.916,348.274 216.16,349.089C207.315,351.705 198.957,354.661 189.547,353.051C185.886,352.425 181.555,351.394 178.512,349.155C173.868,345.738 172.177,338.812 172.31,333.375C172.39,330.087 172.62,326.761 173.147,323.512C173.199,323.191 173.672,320.895 174.247,320.12C174.976,319.138 175.909,318.982 176.757,319.264C177.507,319.514 178.184,320.164 178.53,321.203C178.855,322.181 178.869,323.692 178.916,324.222C179.16,326.976 179.613,329.825 181.151,332.172C183.834,336.267 189.175,340.492 193.975,341.61C198.364,342.632 203.661,342.081 208.08,341.365C209.132,341.194 210.125,341.91 210.296,342.962C210.466,344.014 209.75,345.007 208.698,345.177C203.812,345.97 197.952,346.502 193.099,345.371C187.434,344.052 181.087,339.122 177.92,334.288C177.214,333.211 176.679,332.052 176.271,330.846C176.224,331.722 176.192,332.597 176.171,333.469C176.066,337.766 177.13,343.343 180.801,346.044C183.382,347.944 187.093,348.713 190.199,349.244C198.999,350.75 206.792,347.832 215.065,345.385C217.857,344.559 220.759,344.151 223.573,343.409C225.204,342.978 226.6,342.077 228.003,341.194C229.727,340.11 231.457,339.041 233.438,338.48C233.75,338.391 236.007,337.793 237.039,337.829C238.218,337.871 238.856,338.525 239.113,339.04C239.59,339.994 239.203,341.154 238.25,341.631C237.761,341.876 237.217,341.893 236.74,341.723Z" style="fill:rgb(255,232,192);stroke:rgb(255,232,192);stroke-width:1.29px;stroke-linecap:butt;stroke-miterlimit:2;"/>
                <path d="M127.276,310.725C127.276,310.725 123.585,313.51 122.662,316.155C121.739,318.8 119.432,313.032 117.356,312.34C115.28,311.648 111.988,309.572 112.942,312.34C113.896,315.109 108.59,320.184 108.128,322.952C107.667,325.721 103.976,327.522 102.361,321.085C100.746,314.647 96.362,304.035 95.44,301.959C94.517,299.882 98.669,301.959 100.976,299.421C103.283,296.883 100.746,295.268 94.748,294.115C88.749,292.961 89.903,288.809 87.827,284.656C85.75,280.504 81.598,281.196 81.367,274.505C81.136,267.815 75.599,267.584 83.905,265.277C92.21,262.97 91.287,263.432 95.901,261.817C100.515,260.202 100.976,259.51 107.667,258.587C114.357,257.664 110.204,256.742 115.972,257.895C121.739,259.049 127.878,258.126 129.884,256.511C131.89,254.896 132.813,253.05 133.044,257.434C133.274,261.817 130.045,265.508 133.736,265.739C137.427,265.97 139.273,266.662 141.349,263.893C143.425,261.125 141.349,254.665 141.58,253.973C141.81,253.281 144.229,259.51 146.826,263.663C149.423,267.815 151.73,270.353 154.499,274.505C157.267,278.658 158.882,280.042 158.421,283.503C157.959,286.963 156.575,284.887 155.191,280.965C153.807,277.043 158.946,275.759 152.279,273.583C148.039,272.198 150.227,272.66 146.826,274.505C143.425,276.351 145.152,277.043 146.826,278.427C148.501,279.812 154.443,280.042 152.279,282.811C150.115,285.579 154.61,284.656 146.826,284.426C139.042,284.195 129.493,285.81 129.884,282.811C130.275,279.812 130.185,281.888 129.884,276.812C129.583,271.737 133.184,267.584 129.884,266.2C126.584,264.816 128.66,260.663 126.123,266.662C123.585,272.66 123.585,278.197 121.509,269.199C119.432,260.202 118.971,262.048 116.895,262.048C114.818,262.048 115.218,261.125 112.942,263.893C110.666,266.662 110.204,265.277 108.128,268.507C106.052,271.737 104.437,271.276 106.744,276.12C109.051,280.965 110.204,282.58 110.435,284.887C110.666,287.194 109.743,287.425 106.052,284.887C102.361,282.349 102.361,283.272 102.13,280.042C101.899,276.812 104.206,274.736 101.899,274.044C99.592,273.352 97.977,273.583 95.44,273.352C92.902,273.121 88.288,273.121 93.594,269.891C98.9,266.662 99.131,266.431 98.208,263.663C97.285,260.894 85.289,263.893 83.905,265.277C82.52,266.662 85.289,270.122 85.289,273.352C85.289,276.582 85.981,280.042 89.672,280.273C93.363,280.504 94.055,280.042 93.363,283.272C92.671,286.502 91.748,285.579 91.287,288.809C90.826,292.039 98.208,289.999 100.515,291.134C102.822,292.269 106.975,291.577 106.052,295.73C105.129,299.882 105.36,302.189 103.514,306.342C101.669,310.495 97.055,314.647 102.13,313.494C107.205,312.34 103.976,313.032 107.667,310.725C111.358,308.418 115.51,307.265 116.664,308.88C117.817,310.495 127.276,310.725 127.276,310.725" style="fill:rgb(255,232,192);stroke:rgb(255,232,192);stroke-width:3.43px;"/>
                <path d="M138.391,341.176C138.391,341.176 149.649,339.058 151.864,336.334C154.078,333.609 155.924,331.395 156.847,326.781C157.77,322.167 157.954,318.66 160.538,315.153C163.122,311.647 162.199,312.385 163.491,305.741C164.783,299.097 167.551,297.066 165.337,294.113C163.122,291.161 163.491,289.315 163.122,293.929C162.753,298.543 160.723,299.466 159.246,304.449C157.77,309.432 157.216,307.402 158.692,308.325C160.169,309.247 160.723,312.939 157.4,313.123C154.078,313.308 155.37,312.569 151.125,312.385C146.881,312.2 145.773,311.831 144.481,312.939C143.189,314.046 143.743,312.2 143.559,316.63C143.374,321.059 147.51,319.398 146.826,317.553C146.142,315.707 150.018,314.415 151.864,316.076C153.709,317.737 156.109,319.818 155.37,321.085C154.632,322.351 153.525,327.565 151.125,328.28C148.726,328.995 148.802,330.287 146.826,332.871C144.85,335.455 138.391,341.176 138.391,341.176Z" style="fill:rgb(255,232,192);stroke:rgb(255,232,192);stroke-width:3.43px;"/>
                <path d="M115.955,328.28C115.955,328.28 112.206,330.833 113.072,336.334C113.937,341.834 117.109,351.927 118.839,357.118C120.569,362.308 125.183,366.281 129.221,369.053C133.258,371.825 132.681,378.393 135.276,369.053C137.872,359.713 144.216,358.559 145.946,355.099C147.676,351.638 147.676,358.472 138.16,360.246C128.644,362.02 127.49,359.136 126.625,356.252C125.76,353.369 121.094,353.978 117.057,351.582" style="fill:rgb(255,232,192);stroke:rgb(255,232,192);stroke-width:3.43px;"/>
                <path d="M215.381,354.078C215.381,354.078 201.694,363.018 193.619,359.557C185.545,356.097 171.671,355.829 170.489,353.91C169.308,351.99 165.174,351.843 163.255,355.534C161.335,359.225 155.725,367.346 150.852,368.675C145.98,370.003 143.618,373.252 141.551,372.218C139.483,371.185 136.973,373.252 142.436,368.822C147.899,364.393 146.472,366.017 152.279,360.554C158.087,355.091 155.725,355.534 160.154,353.467C164.584,351.4 165.457,351.112 167.53,352.585C169.604,354.058 174.181,361.145 176.838,361.588C179.496,362.031 187.026,364.983 191.012,364.393C194.999,363.802 215.381,354.078 215.381,354.078Z" style="fill:rgb(255,232,192);stroke:rgb(255,232,192);stroke-width:3.43px;"/>
            </g>
        </g>
        <path d="M286.554,370.004C286.554,370.004 292.898,382.981 293.187,385.576C293.475,388.171 124.776,388.46 119.585,388.748C114.395,389.037 56.431,268.784 55.854,263.017C55.278,257.249 66.236,255.519 71.138,254.942C76.041,254.366 140.637,242.542 144.097,242.254C147.558,241.965 165.725,273.687 166.59,276.282C167.455,278.877 170.898,253.366 164.049,243.634C157.2,233.901 149.976,222.652 146.728,220.88C143.48,219.109 131.077,212.612 124.729,212.612C118.38,212.612 106.42,214.073 100.367,216C94.313,217.927 86.192,218.37 78.81,221.028C71.428,223.686 70.099,224.129 67.146,229.296C64.193,234.464 64.944,232.039 63.898,237.269C63.307,240.222 63.455,241.551 66.851,241.846C70.247,242.142 71.428,245.39 70.985,247.309C70.542,249.229 66.408,251.739 62.864,252.182C59.321,252.625 56.515,250.278 54.891,249.606C53.267,248.933 49.428,245.685 50.166,241.846C50.905,238.008 51.643,234.759 54.005,231.659C56.368,228.558 68.802,216.653 70.616,216C72.431,215.347 84.072,207.863 87.474,207.409C90.876,206.955 107.129,201.739 110.531,202.042C113.933,202.344 131.244,204.158 134.495,206.88C137.745,209.601 143.566,212.55 144.927,212.625C146.288,212.701 142.619,205.672 135.68,201.686C128.741,197.699 113.68,191.35 109.399,190.76C105.117,190.169 89.466,177.914 87.694,175.404C85.923,172.894 57.87,150.452 53.883,145.136C49.897,139.821 43.548,131.405 42.367,126.238C41.185,121.07 34.246,103.5 33.508,95.527C32.769,87.554 31.145,70.722 31.736,64.521C32.327,58.32 41.776,39.568 44.286,37.796C46.796,36.025 63.037,26.428 68.5,25.246C73.963,24.065 97.292,18.307 101.721,17.421C106.15,16.535 131.841,12.844 138.042,14.32C144.244,15.797 160.928,17.569 164.619,21.555C168.31,25.542 177.169,33.81 179.531,39.125C181.894,44.441 188.243,58.91 189.571,63.192C190.9,67.474 190.162,76.628 189.867,80.171C189.571,83.715 189.571,89.473 187.061,93.164C184.551,96.856 182.041,100.399 178.35,103.795C174.659,107.191 164.471,115.459 161.666,117.526C158.861,119.593 150.445,124.613 147.344,126.385C144.244,128.157 140.109,130.372 136.861,130.667C133.613,130.962 135.237,131.258 127.116,130.815C118.996,130.372 114.271,130.519 109.251,129.043C104.231,127.566 95.372,125.204 93.157,121.513C90.943,117.822 88.433,115.312 86.366,108.667C84.299,102.023 84.151,91.393 84.003,88.144C83.856,84.896 82.822,72.998 84.003,69.35C85.184,65.702 91.386,57.729 94.339,54.481C97.292,51.232 103.05,44.145 107.479,42.521C111.909,40.897 111.761,41.34 115.157,41.045C118.553,40.749 123.573,41.34 125.492,42.964C127.412,44.588 130.512,45.474 133.318,47.541C136.123,49.608 141.438,51.232 141.881,54.481C142.324,57.729 144.096,63.34 143.21,67.031C142.324,70.722 140.552,74.413 138.042,77.366C135.532,80.319 129.626,92.426 127.559,93.017C125.492,93.607 121.653,94.346 121.506,92.131C121.358,89.916 121.211,87.406 121.949,83.124C122.687,78.843 123.573,75.89 122.835,71.755C122.096,67.621 122.982,65.111 121.358,63.782C119.734,62.454 120.472,61.715 116.781,60.977C113.09,60.239 110.137,60.239 106.741,61.42C103.345,62.601 102.607,62.454 101.278,65.702C99.949,68.95 97.144,79.581 97.144,83.715C97.144,87.849 98.325,94.346 100.687,96.856C103.05,99.366 106.298,107.634 110.137,108.963C113.976,110.292 119.734,112.802 128.445,112.949C137.156,113.097 149.559,110.439 152.512,107.929C155.465,105.419 166.834,94.789 169.787,90.359C172.74,85.93 171.706,74.18 171.411,69.35C171.115,64.521 168.163,54.481 166.834,51.232C165.505,47.984 162.552,43.555 157.827,40.159C153.102,36.763 144.687,30.709 140.848,30.562C137.009,30.414 126.969,27.609 121.506,27.904C116.043,28.199 102.902,28.79 98.62,31.005C94.339,33.219 58.608,47.541 54.178,55.957C49.749,64.373 50.192,62.749 49.158,67.178C48.125,71.608 47.977,77.218 48.715,82.238C49.454,87.258 56.513,104.995 59.512,109.378C62.511,113.761 68.509,129.68 70.586,132.909C72.662,136.139 85.12,147.905 87.427,152.057C89.734,156.21 96.193,164.977 99.423,166.13C102.653,167.284 115.803,175.127 122.724,176.742C129.645,178.357 137.027,179.28 142.795,183.663C148.562,188.047 152.946,191.507 156.406,196.352C159.867,201.196 167.48,213.04 168.864,216C170.248,218.96 172.094,224.959 170.94,229.803C169.787,234.648 173.016,241.108 174.631,241.108C176.246,241.108 176.708,239.493 176.477,232.572C176.246,225.651 175.554,202.811 175.093,196.352C174.631,189.892 174.631,177.434 177.4,170.975C180.168,164.515 184.782,156.21 189.396,150.673C194.01,145.136 197.701,142.368 201.393,138.677C205.084,134.986 221.233,122.066 224.924,121.144C228.615,120.221 232.627,117.683 236.85,118.606C241.073,119.529 247.302,119.067 249.378,121.605C251.454,124.143 252.146,129.91 251.454,135.908C250.762,141.907 249.839,149.52 247.532,152.057C245.225,154.595 241.163,159.671 236.85,159.671C232.537,159.671 227.923,157.825 224.232,158.056C220.541,158.286 219.387,157.825 216.388,158.517C213.389,159.209 209.928,157.825 215.235,155.287C220.541,152.75 218.464,152.75 224.693,152.98C230.922,153.211 236.088,154.826 236.85,151.596C237.612,148.366 241.073,143.522 238.997,138.677C236.92,133.832 232.076,129.91 227.231,131.756C222.386,133.601 223.078,134.524 217.542,139.138C212.005,143.752 209.698,145.598 204.853,151.827C200.008,158.056 192.626,163.823 190.55,170.283C188.473,176.742 184.551,182.048 184.09,187.124C183.629,192.199 186.858,197.505 186.628,204.426C186.397,211.347 185.936,215.731 186.628,218.499C187.32,221.267 187.32,230.034 187.551,236.263C187.781,242.492 185.936,245.26 190.088,244.568C194.241,243.876 194.702,245.26 197.932,241.569C201.162,237.878 206.007,228.188 206.237,224.266C206.468,220.345 206.929,217.345 205.084,220.114C203.238,222.882 204.622,225.881 201.623,225.189C198.624,224.497 199.316,223.574 199.086,219.191C198.855,214.808 201.854,211.347 204.161,208.81C206.468,206.272 206.468,206.733 209.467,206.733C212.466,206.733 213.85,207.887 214.542,211.347C215.235,214.808 215.235,220.345 215.235,224.036C215.235,227.727 210.704,236.863 209.089,238.478C207.474,240.092 198.255,250.446 195.154,252.956C192.054,255.466 188.658,257.238 186,262.996C183.343,268.755 180.094,277.466 179.504,282.043C178.913,286.62 179.504,290.311 180.39,295.184C181.276,300.056 181.128,302.123 182.014,300.647C182.9,299.17 183.49,296.069 187.181,291.345C190.873,286.62 205.637,266.097 209.181,263.439C212.725,260.782 227.932,245.131 230.885,242.916C233.838,240.701 241.331,225.9 243.913,221.84C246.495,217.779 247.972,213.719 249.633,208.736C251.294,203.753 252.77,201.353 257.2,198.031C261.629,194.709 266.612,190.649 271.595,190.649C276.578,190.649 285.068,190.095 287.098,192.495C289.129,194.894 289.867,201.538 287.283,205.414C284.699,209.289 284.884,209.843 281.377,210.397C277.87,210.95 274.179,213.165 273.625,210.397C273.072,207.628 272.334,202.276 271.964,200.615C271.595,198.954 268.827,199.323 266.981,202.276C265.136,205.229 262.367,209.659 259.414,211.504C256.461,213.35 255.723,212.375 253.693,216C251.663,219.625 249.264,228.299 247.972,230.514C246.68,232.729 246.13,236.604 243.913,238.081C241.697,239.557 239.851,243.433 238.375,245.279C236.898,247.124 246.495,240.665 250.371,237.712C254.247,234.759 258.861,229.96 260.891,227.561C262.921,225.162 268.089,221.101 271.964,218.702C275.84,216.303 280.031,214.071 280.756,214.132C281.482,214.192 284.506,212.075 286.139,212.317C287.772,212.559 291.211,213.228 291.211,216C291.211,218.772 291.765,221.356 289.735,223.017C287.705,224.678 288.997,225.785 286.967,226.154C284.936,226.523 284.014,223.201 283.46,221.54C282.906,219.879 280.056,220.802 277.698,222.278C275.339,223.755 275.524,226.154 272.202,229.476C268.88,232.798 267.957,232.614 267.588,234.275C267.219,235.936 267.957,237.597 271.094,236.12C274.232,234.644 282.722,230.953 286.044,231.322C289.366,231.691 290.289,234.275 292.688,230.584C295.087,226.892 297.671,221.54 300.809,219.141C303.946,216.742 306.345,213.973 308.006,211.758C309.667,209.544 310.713,206.037 311.482,202.53C312.251,199.024 313.721,193.584 314.09,191.369C314.459,189.154 316.418,185.388 317.127,183.616C317.836,181.844 320.418,175.525 321.887,176.954C323.386,178.414 323.466,178.026 324.884,178.853C326.301,179.68 326.167,181.183 325.104,182.955C324.041,184.727 321.025,188.341 319.962,191.176C318.899,194.01 319.135,196.963 318.899,200.153C318.663,203.342 318.663,207.476 316.418,209.956C314.174,212.437 309.762,217.555 313.267,216C316.773,214.445 316.182,213.146 318.781,211.019C321.379,208.893 319.202,208.631 321.025,205.35C322.797,202.161 322.442,201.924 324.096,201.452C325.75,200.979 326.576,200.979 327.403,202.633C328.23,204.287 327.758,206.177 327.285,208.657C326.813,211.138 323.033,218.933 320.671,220.351C318.308,221.768 310.396,226.493 305.375,228.619C300.354,230.745 298.272,229.564 297.482,230.981C296.693,232.399 295.555,233.344 297.482,233.462C299.409,233.58 306.024,233.58 308.859,232.871C311.694,232.163 312.048,231.69 317.363,232.399C322.679,233.108 321.497,235.116 326.104,233.108C330.711,231.1 334.963,230.036 337.916,227.674C340.869,225.312 341.105,224.957 344.176,221.296C347.247,217.634 347.956,216.689 349.964,214.209C351.972,211.728 351.145,210.665 353.271,210.429C355.397,210.193 357.051,208.893 358.705,210.074C360.358,211.256 360.335,213.589 360.146,215.195C359.957,216.801 356.744,219.825 355.799,220.581C354.854,221.337 350.696,227.857 348.523,228.897C346.349,229.936 343.231,234.661 341.152,235.039C339.073,235.417 333.971,236.74 331.608,236.834C329.246,236.929 327.167,236.834 328.49,237.401C329.813,237.968 333.12,238.913 336.333,237.874C339.546,236.834 342.003,235.984 344.838,234.661C347.672,233.338 347.483,234.094 350.318,232.204C353.153,230.314 354.287,228.519 356.366,227.101C358.445,225.684 361.469,224.077 363.547,223.416C365.626,222.754 365.343,222.565 368.556,221.81C371.768,221.054 371.296,221.054 374.225,220.203C377.155,219.353 376.115,219.353 377.816,219.542C379.517,219.731 380.934,220.203 381.029,221.621C381.123,223.038 376.021,227.196 372.997,228.519C369.973,229.842 364.093,233.621 362.12,233.716C360.146,233.81 350.791,237.496 348.712,238.157C346.633,238.819 342.381,241.937 340.491,242.126C338.601,242.315 330.947,242.598 329.624,242.976C328.301,243.354 342.097,243.543 344.365,242.693C346.633,241.842 346.727,240.992 351.169,240.141C355.61,239.291 359.747,237.59 362.12,237.307C364.492,237.023 368.745,234.944 371.013,233.716C373.28,232.487 380.273,228.519 381.501,227.668C382.73,226.818 392.557,220.581 393.975,220.014C395.392,219.447 398.699,223.227 398.794,224.644C398.888,226.062 399.55,227.196 398.794,228.33C398.038,229.464 393.975,233.905 390.573,236.173C387.171,238.441 375.908,243.509 372.932,244.819C369.241,246.443 368.65,247.477 365.697,248.215C362.744,248.953 357.577,251.168 351.671,251.168C345.765,251.168 337.819,251.02 335,251.168C332.181,251.315 325.98,251.144 323.765,249.606C321.551,248.067 314.555,244.671 311.482,244.376C308.41,244.081 303.095,241.866 300.585,242.014C298.075,242.161 288.034,243.342 283.014,243.638C277.994,243.933 272.679,243.933 269.283,245.41C265.887,246.886 258.505,247.453 255.847,249.606C253.19,251.758 241.92,255.302 236.85,260.174C231.781,265.047 227.794,269.328 223.365,272.872C218.935,276.416 216.721,277.597 216.13,280.107C215.539,282.617 216.573,283.06 218.935,284.536C221.298,286.013 224.989,287.784 228.975,287.194C232.962,286.603 240.691,285.57 243.913,285.57C247.136,285.57 252.894,285.127 258.062,286.899C263.23,288.67 267.068,290.294 271.498,292.066C275.927,293.838 292.021,297.086 292.907,300.039C293.793,302.992 295.712,305.355 295.712,305.355L277.698,302.697C277.698,302.697 272.679,299.892 269.874,298.12C267.068,296.348 261.606,296.2 259.096,296.348C256.585,296.496 246.744,292.657 243.913,292.362C241.082,292.066 227.794,291.623 225.284,292.214C222.774,292.804 217.164,293.247 213.915,294.281C210.667,295.315 209.043,295.61 208.748,297.234C208.452,298.858 207.419,299.892 210.372,299.153C213.325,298.415 215.392,296.791 216.721,296.496C218.049,296.2 221.888,295.757 225.579,295.905C229.271,296.053 234.537,296.053 236.85,296.939C239.163,297.825 239.311,298.858 242.116,301.22C244.921,303.583 248.908,305.65 250.827,308.012C252.747,310.375 252.747,310.375 254.223,312.294C255.7,314.213 249.498,313.032 246.988,312.442C244.478,311.851 238.967,307.865 236.85,307.126C234.734,306.388 230.599,304.321 227.647,304.321C224.694,304.321 221.445,303.435 217.754,303.73C214.063,304.026 215.392,304.469 210.076,305.945C204.761,307.422 204.023,306.979 199.741,308.16C195.459,309.341 194.721,308.898 190.882,311.999C187.043,315.099 185.567,316.133 184.09,318.791C182.614,321.448 185.286,321.883 188.534,321.736C191.782,321.588 209.795,320.85 216.292,319.964C222.788,319.078 227.808,318.635 234.305,318.487C240.801,318.34 243.777,316.568 243.913,318.635C244.049,320.702 236.913,323.53 236.85,325.538C236.787,327.546 236.551,336.084 239.149,339.433C241.748,342.783 244.937,343.374 246.355,345.618C247.772,347.862 247.772,349.634 249.544,351.642C251.316,353.65 253.796,354.238 255.922,354.298C258.048,354.359 286.554,370.004 286.554,370.004Z" style="fill:none;stroke:rgb(255,232,192);stroke-width:3.43px;"/>
        <path d="M12.949,320.435L12.949,6.596L658.115,6.773L659.956,306.73L647.954,298.563C647.954,298.563 646.264,270.965 647.391,261.39C648.517,251.815 646.828,243.93 641.195,233.791C635.563,223.653 629.368,211.825 633.31,208.446C637.253,205.067 649.081,197.181 639.506,193.239C629.931,189.296 590.933,160.26 584.737,155.19C578.542,150.121 586.495,151.75 591.109,153.827C595.723,155.903 634.711,169.975 638.402,170.668C642.093,171.36 645.784,168.591 639.325,165.131C632.865,161.67 631.942,162.593 632.865,159.825C633.788,157.056 639.786,155.211 633.788,152.212C627.79,149.213 578.881,135.14 573.575,134.217C568.269,133.294 564.117,130.987 569.654,130.295C575.19,129.603 601.029,133.294 604.489,132.371C607.95,131.449 612.564,124.528 615.101,122.913C617.639,121.298 634.019,125.681 637.018,123.836C640.017,121.99 641.862,120.144 633.788,117.607C625.713,115.069 615.563,112.762 612.564,111.839C609.565,110.916 607.258,107.225 606.104,104.688C604.951,102.15 618.562,102.842 620.407,104.918C622.253,106.995 631.02,107.917 633.327,106.995C635.634,106.072 619.023,97.536 611.41,94.537C603.797,91.538 585.293,87.003 581.513,85.869C577.733,84.735 560.157,84.735 557.039,84.546C553.921,84.357 547.684,83.412 544.188,84.357C540.691,85.302 535.872,84.357 533.982,82.561C532.092,80.766 550.123,80.154 553.241,80.438C556.359,80.721 615.607,81.855 615.04,79.776C614.473,77.698 601.339,76.142 593.874,74.699C586.409,73.256 527.539,72.311 525.46,72.217C523.381,72.122 496.355,67.398 494.276,65.791C492.198,64.185 489.552,64.09 493.332,63.145C497.111,62.201 528.861,62.956 530.373,62.767C531.885,62.578 530.751,59.271 527.444,58.704C524.137,58.137 509.396,56.814 507.6,56.058C505.805,55.302 507.6,51.145 509.396,51.05C511.191,50.956 526.877,51.05 529.901,51.523C532.925,51.995 544.075,53.413 548.8,54.357C553.524,55.302 608.237,70.8 609.938,70.894C611.639,70.988 612.961,68.721 607.292,66.169C601.622,63.618 564.013,50.105 562.785,48.782C561.557,47.459 560.856,45.404 559.702,41.944C558.549,38.483 571.699,43.097 576.774,44.712C581.849,46.327 589.924,50.249 590.385,48.173C590.847,46.096 550.272,29.561 548.949,27.954C547.626,26.348 546.114,25.687 547.909,25.214C549.705,24.742 576.258,27.104 580.415,28.805C584.573,30.506 614.622,40.522 617.174,40.806C619.725,41.089 623.694,41.373 621.142,39.294C618.591,37.215 586.652,23.986 583.345,23.135C580.037,22.285 568.037,20.017 564.446,19.922C560.855,19.828 514.364,19.544 510.867,20.3C507.371,21.056 466.693,24.514 459.08,24.744C451.467,24.975 415.247,25.436 407.634,23.821C400.021,22.207 387.102,21.976 375.106,21.976C363.109,21.976 360.11,21.514 350.651,22.899C341.193,24.283 336.653,27.54 333.109,27.688C329.565,27.836 322.921,29.017 319.525,28.426C316.13,27.836 313.029,27.097 316.277,25.03C319.525,22.963 335.471,15.876 338.72,16.024C341.968,16.171 371.645,13.995 373.417,13.976C375.189,13.957 379.027,11.299 376.074,9.97C373.122,8.641 343.887,8.937 338.424,9.675C332.961,10.413 302.103,22.668 297.526,22.668C292.949,22.668 269.473,22.225 265.191,22.077C260.909,21.93 234.333,23.849 228.279,25.916C222.226,27.983 205.984,27.393 203.032,26.802C200.079,26.212 181.18,19.124 177.489,17.057C173.797,14.99 144.415,8.346 141.02,7.608C137.624,6.87 89.786,6.279 85.504,6.427C81.222,6.574 63.357,13.809 59.223,16.614C55.089,19.42 45.92,19.315 43.277,22.225C41.352,24.345 40.619,25.178 39.733,29.312C38.847,33.446 29.495,48.698 28.204,54.789C26.912,60.879 24.143,84.503 25.066,88.748C25.989,92.992 24.328,111.448 27.65,118.462C30.972,125.475 45.552,157.957 48.136,161.464C50.72,164.971 49.629,169.524 50.51,170.28C51.392,171.036 38.919,170.028 35.013,171.162C31.108,172.296 26.315,174.311 31.609,175.067C36.903,175.823 48.117,176.705 53.786,178.091C59.456,179.477 71.677,185.147 73.819,188.045C75.961,190.943 79.741,191.32 80.749,193.588C81.757,195.856 75.961,197.368 71.299,196.234C66.638,195.1 42.069,183.005 38.289,182.879C34.509,182.753 32.998,184.265 35.391,185.399C37.785,186.533 54.668,195.856 55.928,197.116C57.188,198.376 50.007,201.577 46.227,201.362C42.447,201.148 43.455,202.534 46.731,204.802C50.007,207.07 50.888,209.463 49.377,211.101C47.865,212.739 34.131,220.173 33.124,222.567C32.116,224.96 46.731,221.559 48.999,220.299C51.266,219.039 44.211,230.882 41.691,233.906C39.171,236.93 35.391,244.363 34.131,246.883C32.872,249.403 30.226,253.687 34.257,255.073C38.289,256.459 44.085,255.955 45.849,255.577C47.613,255.199 45.975,258.852 45.219,260.238C44.463,261.624 37.407,262.506 36.273,263.388C35.139,264.27 32.998,265.908 38.541,266.916C44.085,267.924 44.589,266.034 48.117,266.412C51.644,266.79 50.384,272.586 47.991,272.838C45.597,273.09 38.667,275.106 36.651,276.743C34.635,278.381 31.99,278.381 35.013,280.523C38.037,282.665 36.651,293.374 39.423,295.516C42.195,297.658 49.881,299.674 54.668,299.422C59.456,299.17 59.582,297.658 59.582,301.06C59.582,304.462 47.865,304.588 43.329,305.974C38.793,307.36 32.741,308.746 31.609,309.249C30.478,309.753 39.675,310.005 40.683,311.265C41.691,312.525 32.242,314.163 30.226,315.045C28.21,315.927 30.347,316.305 31.609,318.069C32.872,319.833 12.949,320.435 12.949,320.435Z" style="fill:rgb(92,54,38);stroke:rgb(255,232,192);stroke-width:3.43px;"/>
        <g transform="matrix(2.09545,0,0,2.8497,10.9975,4.44349)">
            <rect x="0.001" y="0" width="3.456" height="150.927" style="fill:rgb(92,54,38);"/>
        </g>
        <g transform="matrix(2.09545,0,0,2.8497,655.179,4.33947)">
            <rect x="0.001" y="0" width="3.456" height="150.927" style="fill:rgb(92,54,38);"/>
        </g>
        <g transform="matrix(1.2874,0,0,1.17605,11.0006,4.43449)">
            <rect x="-0" y="-0.081" width="506" height="3.982" style="fill:rgb(92,54,38);"/>
        </g>
        <g transform="matrix(1.2874,0,0,1.17605,11.0006,429.846)">
            <rect x="-0" y="-0.081" width="506" height="3.982" style="fill:rgb(92,54,38);"/>
        </g>
    </g>
</svg>
