<?xml version="1.0" encoding="UTF-8" standalone="no"?>
<!DOCTYPE svg PUBLIC "-//W3C//DTD SVG 1.1//EN" "http://www.w3.org/Graphics/SVG/1.1/DTD/svg11.dtd">
<svg width="100%" height="100%" viewBox="0 0 1600 900" version="1.1" xmlns="http://www.w3.org/2000/svg" xmlns:xlink="http://www.w3.org/1999/xlink" xml:space="preserve" xmlns:serif="http://www.serif.com/" style="fill-rule:evenodd;clip-rule:evenodd;stroke-linejoin:round;stroke-miterlimit:2;">
    <g transform="matrix(0.242819,0.0789242,-0.0738783,0.227295,-87.4164,-66.1779)">
        <path d="M905.009,937.679C905.009,937.679 885.386,1022.37 892.677,1064.08C902.95,1122.85 932.954,1180.25 957.821,1173.33C988.625,1164.75 995.455,1115.44 991.233,1091.8C985.169,1057.86 966.156,1037.32 943.502,1007.1C927.755,986.093 905.009,937.679 905.009,937.679Z" style="fill:rgb(224,243,227);"/>
    </g>
    <g transform="matrix(0.144662,0.286791,-0.337269,0.170124,331.297,-361.761)">
        <path d="M905.009,937.679C905.009,937.679 885.386,1022.37 892.677,1064.08C902.95,1122.85 932.954,1180.25 957.821,1173.33C988.625,1164.75 995.455,1115.44 991.233,1091.8C985.169,1057.86 966.156,1037.32 943.502,1007.1C927.755,986.093 905.009,937.679 905.009,937.679Z" style="fill:rgb(224,243,227);"/>
    </g>
    <g transform="matrix(-0.0794993,-0.260895,0.286683,-0.0873573,976.956,547.024)">
        <path d="M905.009,937.679C905.009,937.679 885.386,1022.37 892.677,1064.08C902.95,1122.85 932.954,1180.25 957.821,1173.33C988.625,1164.75 995.455,1115.44 991.233,1091.8C985.169,1057.86 966.156,1037.32 943.502,1007.1C927.755,986.093 905.009,937.679 905.009,937.679Z" style="fill:rgb(224,243,227);"/>
    </g>
    <g transform="matrix(0.255363,-0.0957922,0.105261,0.280604,-48.8966,140.717)">
        <path d="M905.009,937.679C905.009,937.679 885.386,1022.37 892.677,1064.08C902.95,1122.85 932.954,1180.25 957.821,1173.33C988.625,1164.75 995.455,1115.44 991.233,1091.8C985.169,1057.86 966.156,1037.32 943.502,1007.1C927.755,986.093 905.009,937.679 905.009,937.679Z" style="fill:rgb(224,243,227);"/>
    </g>
    <g transform="matrix(0.169702,-0.385556,0.438335,0.192932,-460.839,946.189)">
        <path d="M905.009,937.679C905.009,937.679 885.386,1022.37 892.677,1064.08C902.95,1122.85 932.954,1180.25 957.821,1173.33C988.625,1164.75 995.455,1115.44 991.233,1091.8C985.169,1057.86 966.156,1037.32 943.502,1007.1C927.755,986.093 905.009,937.679 905.009,937.679Z" style="fill:rgb(224,243,227);"/>
    </g>
    <g transform="matrix(0.0938548,0.110054,-0.157058,0.13394,252.625,-71.9562)">
        <path d="M905.009,937.679C905.009,937.679 885.386,1022.37 892.677,1064.08C902.95,1122.85 932.954,1180.25 957.821,1173.33C988.625,1164.75 995.455,1115.44 991.233,1091.8C985.169,1057.86 966.156,1037.32 943.502,1007.1C927.755,986.093 905.009,937.679 905.009,937.679Z" style="fill:rgb(224,243,227);"/>
    </g>
    <g transform="matrix(-0.0503665,-0.171352,0.2296,-0.0674874,502.083,1029.38)">
        <path d="M905.009,937.679C905.009,937.679 885.386,1022.37 892.677,1064.08C902.95,1122.85 932.954,1180.25 957.821,1173.33C988.625,1164.75 995.455,1115.44 991.233,1091.8C985.169,1057.86 966.156,1037.32 943.502,1007.1C927.755,986.093 905.009,937.679 905.009,937.679Z" style="fill:rgb(224,243,227);"/>
    </g>
    <g transform="matrix(0.152438,-0.481345,0.42837,0.135662,-318.569,818.159)">
        <path d="M936.337,923.885C936.337,923.885 897.696,979.739 894.136,1026.42C891.368,1062.74 917.037,1159.49 926.527,1160.51C946.333,1162.62 963.121,1110.75 965.534,1086.91C969.01,1052.57 958.453,1025.8 945.877,988.071C937.395,962.625 936.337,923.885 936.337,923.885Z" style="fill:rgb(224,243,227);"/>
    </g>
    <g transform="matrix(-0.0983459,-0.413389,0.459674,-0.109357,379.76,1209.36)">
        <path d="M936.337,923.885C936.337,923.885 897.696,979.739 894.136,1026.42C891.368,1062.74 917.037,1159.49 926.527,1160.51C946.333,1162.62 963.121,1110.75 965.534,1086.91C969.01,1052.57 958.453,1025.8 945.877,988.071C937.395,962.625 936.337,923.885 936.337,923.885Z" style="fill:rgb(224,243,227);"/>
    </g>
    <g transform="matrix(0.0645264,-0.309282,0.322832,0.0673534,35.7585,1053.26)">
        <path d="M936.337,923.885C936.337,923.885 897.696,979.739 894.136,1026.42C891.368,1062.74 917.037,1159.49 926.527,1160.51C946.333,1162.62 963.121,1110.75 965.534,1086.91C969.01,1052.57 958.453,1025.8 945.877,988.071C937.395,962.625 936.337,923.885 936.337,923.885Z" style="fill:rgb(224,243,227);"/>
    </g>
    <g transform="matrix(0.167608,0.139239,-0.310031,0.373196,863.697,56.7994)">
        <path d="M1084.26,649.067C1084.26,649.067 1038.5,682.532 1027.73,687.269C1021.77,689.893 995.973,703.516 987.928,711.652C977.629,722.067 982.931,741.751 998.563,743.959C1027.2,748.005 1081.03,726.214 1081.03,694.577C1081.03,677.381 1084.26,649.067 1084.26,649.067Z" style="fill:rgb(224,243,227);"/>
    </g>
    <g transform="matrix(0.386301,0.253678,-0.518885,0.79016,1385.99,-486.412)">
        <path d="M1084.26,649.067C1084.26,649.067 1038.5,682.532 1027.73,687.269C1021.77,689.893 995.973,703.516 987.928,711.652C977.629,722.067 982.931,741.751 998.563,743.959C1027.2,748.005 1081.03,726.214 1081.03,694.577C1081.03,677.381 1084.26,649.067 1084.26,649.067Z" style="fill:rgb(224,243,227);"/>
    </g>
    <g transform="matrix(0.054446,0.0866451,-0.0903318,0.0567627,952.162,706.302)">
        <path d="M932.404,923.396C932.404,923.396 897.899,990.332 895.092,1032.54C890.614,1099.89 932.972,1175.74 955.184,1180.21C986.467,1186.51 995.455,1115.44 991.233,1091.8C985.169,1057.86 957.392,1033.53 941.128,997.372C930.607,973.98 932.404,923.396 932.404,923.396Z" style="fill:rgb(224,243,227);"/>
    </g>
    <g transform="matrix(0.054446,0.0866451,-0.0903318,0.0567627,1034.3,567.411)">
        <path d="M932.404,923.396C932.404,923.396 897.899,990.332 895.092,1032.54C890.614,1099.89 932.972,1175.74 955.184,1180.21C986.467,1186.51 995.455,1115.44 991.233,1091.8C985.169,1057.86 957.392,1033.53 941.128,997.372C930.607,973.98 932.404,923.396 932.404,923.396Z" style="fill:rgb(224,243,227);"/>
    </g>
    <g transform="matrix(0.0807793,0.0802374,-0.0948962,0.0955371,1116.93,241.021)">
        <path d="M932.404,923.396C932.404,923.396 897.899,990.332 895.092,1032.54C890.614,1099.89 932.972,1175.74 955.184,1180.21C986.467,1186.51 995.455,1115.44 991.233,1091.8C985.169,1057.86 957.392,1033.53 941.128,997.372C930.607,973.98 932.404,923.396 932.404,923.396Z" style="fill:rgb(224,243,227);"/>
    </g>
    <g transform="matrix(0.225838,0.241998,-0.258565,0.241299,1315.41,190.751)">
        <path d="M932.404,923.396C932.404,923.396 897.899,990.332 895.092,1032.54C890.614,1099.89 932.972,1175.74 955.184,1180.21C986.467,1186.51 995.455,1115.44 991.233,1091.8C985.169,1057.86 957.392,1033.53 941.128,997.372C930.607,973.98 932.404,923.396 932.404,923.396Z" style="fill:rgb(224,243,227);"/>
    </g>
    <g transform="matrix(0.0595662,0.0572324,-0.0949673,0.0988399,334.222,29.2639)">
        <path d="M932.404,923.396C932.404,923.396 897.899,990.332 895.092,1032.54C890.614,1099.89 932.972,1175.74 955.184,1180.21C986.467,1186.51 995.455,1115.44 991.233,1091.8C985.169,1057.86 957.392,1033.53 941.128,997.372C930.607,973.98 932.404,923.396 932.404,923.396Z" style="fill:rgb(224,243,227);"/>
    </g>
    <g transform="matrix(0.0975793,0.246494,-0.287485,0.113806,602.118,-223.534)">
        <path d="M932.404,923.396C932.404,923.396 897.899,990.332 895.092,1032.54C890.614,1099.89 932.972,1175.74 955.184,1180.21C986.467,1186.51 995.455,1115.44 991.233,1091.8C985.169,1057.86 957.392,1033.53 941.128,997.372C930.607,973.98 932.404,923.396 932.404,923.396Z" style="fill:rgb(224,243,227);"/>
    </g>
    <g transform="matrix(-0.112886,-0.414536,0.380198,-0.103536,811.636,1314.14)">
        <path d="M925.145,923.326C925.145,923.326 893.494,1020.39 898.683,1066.83C904.678,1120.48 932.468,1172.02 948.185,1174.3C965.873,1176.88 966.835,1118.97 965.335,1095C963.236,1061.46 952.435,1022.97 947.525,998.292C942.189,971.481 925.145,923.326 925.145,923.326Z" style="fill:rgb(224,243,227);"/>
    </g>
    <g transform="matrix(-0.0521431,-0.24357,0.190151,-0.0407073,1245.86,843.278)">
        <path d="M925.145,923.326C925.145,923.326 893.494,1020.39 898.683,1066.83C904.678,1120.48 932.468,1172.02 948.185,1174.3C965.873,1176.88 966.835,1118.97 965.335,1095C963.236,1061.46 952.435,1022.97 947.525,998.292C942.189,971.481 925.145,923.326 925.145,923.326Z" style="fill:rgb(224,243,227);"/>
    </g>
    <g transform="matrix(-0.0521431,-0.24357,0.190151,-0.0407073,374.608,338.715)">
        <path d="M925.145,923.326C925.145,923.326 893.494,1020.39 898.683,1066.83C904.678,1120.48 932.468,1172.02 948.185,1174.3C965.873,1176.88 966.835,1118.97 965.335,1095C963.236,1061.46 952.435,1022.97 947.525,998.292C942.189,971.481 925.145,923.326 925.145,923.326Z" style="fill:rgb(224,243,227);"/>
    </g>
    <g transform="matrix(-0.19423,0.330937,-0.314508,-0.184588,998.565,-203.064)">
        <path d="M1103.46,403.466C1103.46,403.466 1107.61,433.812 1102.82,459.555C1100.71,470.859 1109.12,491.419 1116.9,492.797C1133.66,495.764 1135.28,468.497 1135.28,460.6C1135.28,437.937 1103.46,403.466 1103.46,403.466Z" style="fill:rgb(224,243,227);"/>
    </g>
    <g transform="matrix(0.362559,-0.125681,0.119442,0.34456,-368.152,359.47)">
        <path d="M1103.46,403.466C1103.46,403.466 1107.61,433.812 1102.82,459.555C1100.71,470.859 1109.12,491.419 1116.9,492.797C1133.66,495.764 1135.28,468.497 1135.28,460.6C1135.28,437.937 1103.46,403.466 1103.46,403.466Z" style="fill:rgb(224,243,227);"/>
    </g>
    <g transform="matrix(-0.597075,-0.920438,0.926067,-0.600726,1383.83,1871.2)">
        <path d="M1103.46,403.466C1103.46,403.466 1107.61,433.812 1102.82,459.555C1100.71,470.859 1109.12,491.419 1116.9,492.797C1133.66,495.764 1135.28,468.497 1135.28,460.6C1135.28,437.937 1103.46,403.466 1103.46,403.466Z" style="fill:rgb(224,243,227);"/>
    </g>
    <g transform="matrix(-0.393336,0.316568,-0.438343,-0.544642,832.145,309.485)">
        <path d="M1103.46,403.466C1103.46,403.466 1107.61,433.812 1102.82,459.555C1100.71,470.859 1109.12,491.419 1116.9,492.797C1133.66,495.764 1135.28,468.497 1135.28,460.6C1135.28,437.937 1103.46,403.466 1103.46,403.466Z" style="fill:rgb(224,243,227);"/>
    </g>
    <g transform="matrix(0.429589,0.568292,-0.636138,0.480876,708.881,-282.063)">
        <path d="M1103.46,403.466C1103.46,403.466 1107.61,433.812 1102.82,459.555C1100.71,470.859 1109.12,491.419 1116.9,492.797C1133.66,495.764 1135.28,468.497 1135.28,460.6C1135.28,437.937 1103.46,403.466 1103.46,403.466Z" style="fill:rgb(224,243,227);"/>
    </g>
    <g transform="matrix(-0.360296,0.614564,-0.687934,-0.403311,1039.75,156.459)">
        <path d="M1103.46,403.466C1103.46,403.466 1107.61,433.812 1102.82,459.555C1100.71,470.859 1109.12,491.419 1116.9,492.797C1133.66,495.764 1135.28,468.497 1135.28,460.6C1135.28,437.937 1103.46,403.466 1103.46,403.466Z" style="fill:rgb(224,243,227);"/>
    </g>
    <g transform="matrix(-0.209132,-0.480028,0.647229,-0.281976,1187.63,1069.66)">
        <path d="M1103.46,403.466C1103.46,403.466 1107.61,433.812 1102.82,459.555C1100.71,470.859 1109.12,491.419 1116.9,492.797C1133.66,495.764 1135.28,468.497 1135.28,460.6C1135.28,437.937 1103.46,403.466 1103.46,403.466Z" style="fill:rgb(224,243,227);"/>
    </g>
    <g transform="matrix(0.0815222,0.0817782,-0.182087,0.181517,1481.5,236.28)">
        <path d="M1069.28,617.878C1069.28,617.878 1058.35,647.445 1026.68,668.589C1005.71,682.595 984.084,696.812 975.25,706.779C958.78,725.361 965.946,747.475 1006.98,747.475C1048.02,747.475 1093.04,708.394 1093.04,676.757C1093.04,659.561 1069.28,617.878 1069.28,617.878Z" style="fill:rgb(224,243,227);"/>
    </g>
    <g transform="matrix(0.0865932,0.138695,-0.326694,0.20397,747.746,301.77)">
        <path d="M1069.28,617.878C1069.28,617.878 1058.35,647.445 1026.68,668.589C1005.71,682.595 984.084,696.812 975.25,706.779C958.78,725.361 965.946,747.475 1006.98,747.475C1048.02,747.475 1093.04,708.394 1093.04,676.757C1093.04,659.561 1069.28,617.878 1069.28,617.878Z" style="fill:rgb(224,243,227);"/>
    </g>
    <g transform="matrix(-0.0665651,0.325569,-0.513056,-0.104898,909.695,188.06)">
        <path d="M1069.28,617.878C1069.28,617.878 1058.35,647.445 1026.68,668.589C1005.71,682.595 984.084,696.812 975.25,706.779C958.78,725.361 965.946,747.475 1006.98,747.475C1048.02,747.475 1093.04,708.394 1093.04,676.757C1093.04,659.561 1069.28,617.878 1069.28,617.878Z" style="fill:rgb(224,243,227);"/>
    </g>
    <g transform="matrix(0.12249,0.196915,-0.620716,0.386115,982.804,-27.0925)">
        <path d="M1069.28,617.878C1069.28,617.878 1058.35,647.445 1026.68,668.589C1005.71,682.595 984.084,696.812 975.25,706.779C958.78,725.361 965.946,747.475 1006.98,747.475C1048.02,747.475 1093.04,708.394 1093.04,676.757C1093.04,659.561 1069.28,617.878 1069.28,617.878Z" style="fill:rgb(224,243,227);"/>
    </g>
    <g transform="matrix(-0.125432,0.212391,-0.527012,-0.311237,577.387,497.626)">
        <path d="M1069.28,617.878C1069.28,617.878 1058.35,647.445 1026.68,668.589C1005.71,682.595 984.084,696.812 975.25,706.779C958.78,725.361 965.946,747.475 1006.98,747.475C1048.02,747.475 1093.04,708.394 1093.04,676.757C1093.04,659.561 1069.28,617.878 1069.28,617.878Z" style="fill:rgb(224,243,227);"/>
    </g>
    <g transform="matrix(0.114125,0.140605,-0.307789,0.249825,421.433,-79.7414)">
        <path d="M1069.28,617.878C1069.28,617.878 1058.35,647.445 1026.68,668.589C1005.71,682.595 984.084,696.812 975.25,706.779C958.78,725.361 965.946,747.475 1006.98,747.475C1048.02,747.475 1093.04,708.394 1093.04,676.757C1093.04,659.561 1069.28,617.878 1069.28,617.878Z" style="fill:rgb(224,243,227);"/>
    </g>
    <g transform="matrix(0.280824,0.111143,-0.24287,0.613656,1296.88,246.958)">
        <path d="M1069.28,617.878C1069.28,617.878 1058.35,647.445 1026.68,668.589C1005.71,682.595 984.084,696.812 975.25,706.779C958.78,725.361 965.946,747.475 1006.98,747.475C1048.02,747.475 1093.04,708.394 1093.04,676.757C1093.04,659.561 1069.28,617.878 1069.28,617.878Z" style="fill:rgb(224,243,227);"/>
    </g>
    <g transform="matrix(0.245774,0.209648,-0.449884,0.527406,1495.43,-492.046)">
        <path d="M1069.28,617.878C1069.28,617.878 1058.35,647.445 1026.68,668.589C1005.71,682.595 984.084,696.812 975.25,706.779C958.78,725.361 965.946,747.475 1006.98,747.475C1048.02,747.475 1093.04,708.394 1093.04,676.757C1093.04,659.561 1069.28,617.878 1069.28,617.878Z" style="fill:rgb(224,243,227);"/>
    </g>
    <g transform="matrix(-0.0899378,-0.163927,0.261473,-0.143456,285.546,677.646)">
        <path d="M1073.91,675.62C1076.94,675.014 1044.8,690.816 1024.21,694.729C1008.73,697.669 991.651,699.878 981.095,711.342C971.071,722.228 977.82,744.9 993.793,743.123C1007.79,741.566 1040.21,726.355 1052.99,710.337C1061.12,700.153 1073.91,675.62 1073.91,675.62Z" style="fill:rgb(224,243,227);"/>
    </g>
    <g transform="matrix(0.0577985,-0.177821,0.283634,0.0921916,-115.771,420.305)">
        <path d="M1073.91,675.62C1076.94,675.014 1044.8,690.816 1024.21,694.729C1008.73,697.669 991.651,699.878 981.095,711.342C971.071,722.228 977.82,744.9 993.793,743.123C1007.79,741.566 1040.21,726.355 1052.99,710.337C1061.12,700.153 1073.91,675.62 1073.91,675.62Z" style="fill:rgb(224,243,227);"/>
    </g>
    <g transform="matrix(-0.269762,-0.0255302,0.0373939,-0.395119,1199.44,594.014)">
        <path d="M1073.91,675.62C1076.94,675.014 1044.8,690.816 1024.21,694.729C1008.73,697.669 991.651,699.878 981.095,711.342C971.071,722.228 977.82,744.9 993.793,743.123C1007.79,741.566 1040.21,726.355 1052.99,710.337C1061.12,700.153 1073.91,675.62 1073.91,675.62Z" style="fill:rgb(224,243,227);"/>
    </g>
    <g transform="matrix(-0.246052,-0.113497,0.166239,-0.360391,1422.55,631.697)">
        <path d="M1073.91,675.62C1076.94,675.014 1044.8,690.816 1024.21,694.729C1008.73,697.669 991.651,699.878 981.095,711.342C971.071,722.228 977.82,744.9 993.793,743.123C1007.79,741.566 1040.21,726.355 1052.99,710.337C1061.12,700.153 1073.91,675.62 1073.91,675.62Z" style="fill:rgb(224,243,227);"/>
    </g>
    <g transform="matrix(-0.368508,-0.207534,0.241971,-0.429656,695.144,1250.23)">
        <path d="M1073.91,675.62C1076.94,675.014 1044.8,690.816 1024.21,694.729C1008.73,697.669 991.651,699.878 981.095,711.342C971.071,722.228 977.82,744.9 993.793,743.123C1007.79,741.566 1040.21,726.355 1052.99,710.337C1061.12,700.153 1073.91,675.62 1073.91,675.62Z" style="fill:rgb(224,243,227);"/>
    </g>
    <g transform="matrix(-0.510275,0.161518,-0.195097,-0.61636,1752.65,616.363)">
        <path d="M1073.91,675.62C1076.94,675.014 1044.8,690.816 1024.21,694.729C1008.73,697.669 991.651,699.878 981.095,711.342C971.071,722.228 977.82,744.9 993.793,743.123C1007.79,741.566 1040.21,726.355 1052.99,710.337C1061.12,700.153 1073.91,675.62 1073.91,675.62Z" style="fill:rgb(224,243,227);"/>
    </g>
    <g transform="matrix(-0.403212,0.127629,-0.148807,-0.470118,2050.81,651.782)">
        <path d="M1073.91,675.62C1076.94,675.014 1044.8,690.816 1024.21,694.729C1008.73,697.669 991.651,699.878 981.095,711.342C971.071,722.228 977.82,744.9 993.793,743.123C1007.79,741.566 1040.21,726.355 1052.99,710.337C1061.12,700.153 1073.91,675.62 1073.91,675.62Z" style="fill:rgb(224,243,227);"/>
    </g>
</svg>
