<?xml version="1.0" encoding="UTF-8" standalone="no"?>
<!DOCTYPE svg PUBLIC "-//W3C//DTD SVG 1.1//EN" "http://www.w3.org/Graphics/SVG/1.1/DTD/svg11.dtd">
<?xml-stylesheet type="text/css" href="../styles/styles.css"?>
<svg width="100%" height="100%" viewBox="0 0 1304 736" version="1.1" xmlns="http://www.w3.org/2000/svg" xmlns:xlink="http://www.w3.org/1999/xlink" xml:space="preserve" xmlns:serif="http://www.serif.com/" style="fill-rule:evenodd;clip-rule:evenodd;stroke-linejoin:round;stroke-miterlimit:2;">
    <g transform="matrix(1.52616,0,0,2.27204,-316.651,-837.506)">
        <path d="M502.917,413.895C523.47,424.821 600.192,485.701 635.067,470.064C652.952,462.044 672.449,547.848 689.309,554.691C744.642,577.15 801.042,653.219 816.695,691.63L207.482,692.145C207.55,654.518 207.481,551.25 208.861,523.843C209.785,505.495 233.763,453.623 259.292,469.782C271.188,477.312 348.995,426.903 355.064,433.669C359.291,438.381 410.616,463.909 422.09,461.041C446.12,455.034 465.229,421.703 502.917,413.895Z" style="fill:rgb(162,193,255);"/>
    </g>
    <g transform="matrix(-1.61124,0,0,2.27204,1650.45,-837.506)">
        <path d="M496.294,413.895C524.489,414.343 603.249,488.23 638.124,472.593C656.009,464.573 672.449,547.848 689.309,554.691C744.642,577.15 801.042,653.219 816.695,691.63L215.035,692.145C215.123,654.844 214.25,550.528 215.63,523.121C216.554,504.773 225.786,474.861 256.108,463.614C269.818,458.528 307.55,387.348 311.295,399.955C314.794,411.732 335.768,365.871 338.346,368.745C342.574,373.456 410.616,463.909 422.09,461.041C446.12,455.034 458.605,421.703 496.294,413.895Z" style="fill:rgb(162,193,255);"/>
    </g>
    <g transform="matrix(-1.01467,0,0,1.90373,1552.16,-582.776)">
        <path d="M494.741,423.377C509.699,436.327 560.062,485.902 586.075,486.472C629.76,487.428 672.449,547.848 689.309,554.691C744.642,577.15 786.889,657.159 816.695,691.63L244.591,692.245C244.481,682.45 242.914,623.444 253.89,608.441C266.293,591.486 289.418,542.88 294.46,550.721C299.152,558.017 313.659,562.493 321.946,558.321C343.74,547.352 353.45,483.874 380.773,479.339C425.092,471.984 420.924,438.541 494.741,423.377Z" style="fill:rgb(115,122,236);"/>
    </g>
    <g transform="matrix(1.01128,0,0,2.2241,223.142,-804.354)">
        <path d="M494.741,423.377C509.699,436.327 540.507,494.773 566.547,494.592C588.314,494.441 672.449,547.848 689.309,554.691C744.642,577.15 801.042,653.219 816.695,691.63L248.204,691.63C242.633,654.433 143.096,610.905 203.304,591.437C229.776,582.877 248.207,535.549 255.007,540.571C263.429,546.789 295.791,538.205 301.714,530.674C307.783,522.956 333.687,498.054 344.15,496.318C388.468,488.963 420.924,438.541 494.741,423.377Z" style="fill:rgb(116,122,239);"/>
    </g>
    <g transform="matrix(1.17778,0,0,2.78178,-290.17,-1190.06)">
        <path d="M352.124,531.417C378.613,534.351 379.183,552.753 433.039,541.375C450.284,537.732 522.185,575.726 567.355,582.081C609.513,588.013 564.975,587.803 641.759,604.659C702.659,618.027 786.889,657.159 816.695,691.63L246.371,692.052C244.881,616.707 242.34,598.074 268.8,584.392C275.929,580.706 288.965,556.262 352.124,531.417Z" style="fill:rgb(116,122,239);"/>
    </g>
    <g transform="matrix(0.788689,0,0,1,-193.651,42.2729)">
        <path d="M494.741,423.377C509.699,436.327 560.062,485.902 586.075,486.472C629.76,487.428 672.449,547.848 689.309,554.691C744.642,577.15 786.889,657.159 816.695,691.63L248.204,691.63C236.722,614.971 262.756,589.081 317.286,561.633C339.08,550.663 353.45,483.874 380.773,479.339C425.092,471.984 420.924,438.541 494.741,423.377Z" style="fill:rgb(70,0,144);"/>
    </g>
    <g transform="matrix(0.923641,0,0,1,548.687,42.2729)">
        <path d="M494.741,423.377C509.699,436.327 560.062,485.902 586.075,486.472C629.76,487.428 672.449,547.848 689.309,554.691C744.642,577.15 801.042,653.219 816.695,691.63L182.778,691.63C177.206,654.433 159.36,605.999 192.267,586.032C213.156,573.357 238.813,533.901 270.483,530.106C312.896,525.025 353.45,483.874 380.773,479.339C425.092,471.984 420.924,438.541 494.741,423.377Z" style="fill:rgb(70,0,144);"/>
    </g>
    <g transform="matrix(0.802132,0,0,1.43324,148.647,-257.367)">
        <path d="M460.858,515.85C475.816,528.8 522.601,548.936 600.742,571.318C628.545,579.282 640.217,601.736 723.693,612.925C789.091,621.692 786.889,657.159 816.695,691.63L248.204,691.63C246.715,616.285 239.198,580.267 271.072,568.84C329.823,547.777 332.345,539.088 351.962,537.823C378.893,536.086 397.699,540.695 460.858,515.85Z" style="fill:rgb(70,0,144);"/>
    </g>
    <g transform="matrix(1.15994,0,0,0.500731,355.706,387.778)">
        <path d="M498.261,413.969C513.219,426.919 560.062,485.902 586.075,486.472C629.76,487.428 686.798,554.746 703.387,553.436C739.566,550.58 817.489,617.299 817.521,638.021C817.563,665.733 817.608,676.842 817.521,693.577L248.204,691.63C242.633,654.433 240.652,627.137 245.637,614.124C260.6,575.061 277.844,563.846 305.915,549.717C327.709,538.747 368.096,477.25 380.57,480.593C414.07,489.572 428.505,446.067 498.261,413.969Z" style="fill:rgb(50,55,88);"/>
    </g>
    <g transform="matrix(0.785004,0,0,0.531304,-190.641,366.437)">
        <path d="M490.581,420.489C508.099,424.777 567.423,492.915 593.436,493.484C637.121,494.44 672.449,547.848 689.309,554.691C744.642,577.15 786.889,657.159 816.695,691.63L248.204,691.63C236.722,614.971 262.756,589.081 317.286,561.633C339.08,550.663 353.45,483.874 380.773,479.339C425.092,471.984 425.725,453.803 490.581,420.489Z" style="fill:rgb(50,55,88);"/>
    </g>
    <g transform="matrix(0.686858,0,0,0.763037,218.981,206.164)">
        <path d="M512.757,515.85C524.057,531.105 582.071,544.789 620.907,574.246C653.538,598.995 646.951,610.144 723.283,629.372C786.956,645.411 786.889,657.159 816.695,691.63L248.204,691.63C246.715,616.285 224.303,609.346 251.604,594.215C277.314,579.966 337.7,546.081 345.084,553.613C358.176,566.969 415.358,546.608 423.507,548.012C450.026,552.579 449.598,540.695 512.757,515.85Z" style="fill:rgb(49,55,88);"/>
    </g>
</svg>
