<?xml version="1.0" encoding="UTF-8" standalone="no"?>
<!DOCTYPE svg PUBLIC "-//W3C//DTD SVG 1.1//EN" "http://www.w3.org/Graphics/SVG/1.1/DTD/svg11.dtd">
<svg width="100%" height="100%" viewBox="0 0 2214 2950" version="1.1" xmlns="http://www.w3.org/2000/svg" xmlns:xlink="http://www.w3.org/1999/xlink" xml:space="preserve" xmlns:serif="http://www.serif.com/" style="fill-rule:evenodd;clip-rule:evenodd;stroke-linecap:round;stroke-linejoin:round;stroke-miterlimit:1.5;">
    <g id="Layer1" transform="matrix(1,0,0,1,2.59876,0)">
        <g transform="matrix(1.00231,0,0,1.00183,-2.59876,0)">
            <rect x="0" y="0" width="2208" height="2944" style="fill:rgb(128,180,162);"/>
        </g>
        <path id="shirt" d="M406.591,1614.75C406.591,1614.75 310.237,1615.59 276.96,1621.33C241.391,1627.47 221.534,1638.1 199.133,1658.37C176.732,1678.63 151.601,1698.77 140.422,1717.33C133.526,1728.78 115.077,1754.29 99.204,1765.72C88.257,1773.61 45.78,1794.01 32.98,1803.61C20.18,1813.21 -1.75,1828.05 0,1835.52C1.75,1842.98 0,2887.76 0,2887.76C0,2887.76 49.602,2834.08 65.603,2794.61C81.603,2755.14 92.27,2723.14 93.337,2706.08C94.403,2689.01 102.937,2674.07 116.804,2653.81C130.671,2633.54 213.865,2509.16 227.487,2490.6C241.208,2471.91 254.612,2403.77 269.333,2447.93C282.527,2487.51 305.337,2596.28 290.488,2707.41C281.278,2776.34 242.025,2947.89 242.025,2947.89L2061.32,2947.89C2061.32,2947.89 2023.53,2707.13 2016.23,2682.5C2007.7,2653.7 2029.6,2476.85 2033.87,2437.38C2036.88,2409.48 2047.01,2380.21 2048.94,2368.09C2050.23,2359.97 2060.12,2334.56 2061.32,2328.13C2062.52,2321.7 2094.4,2364.48 2105.86,2368.95C2117.33,2373.43 2136.18,2443.36 2148.13,2458.72C2160.07,2474.08 2189.6,2496.14 2195.61,2505.97C2201.62,2515.8 2208,2520.71 2208,2520.71L2208,1650.65C2208,1650.65 2164.44,1618.59 2143.11,1607.29C2121.78,1595.99 2081.78,1582.65 2045.77,1578.65C2009.77,1574.65 2021.77,1575.99 1984.44,1574.65C1947.1,1573.32 1968.44,1577.32 1933.77,1569.32C1899.1,1561.32 406.591,1614.75 406.591,1614.75Z" style="fill:rgb(39,55,33);"/>
        <clipPath id="_clip1">
            <path id="shirt1" serif:id="shirt" d="M406.591,1614.75C406.591,1614.75 310.237,1615.59 276.96,1621.33C241.391,1627.47 221.534,1638.1 199.133,1658.37C176.732,1678.63 151.601,1698.77 140.422,1717.33C133.526,1728.78 115.077,1754.29 99.204,1765.72C88.257,1773.61 45.78,1794.01 32.98,1803.61C20.18,1813.21 -1.75,1828.05 0,1835.52C1.75,1842.98 0,2887.76 0,2887.76C0,2887.76 49.602,2834.08 65.603,2794.61C81.603,2755.14 92.27,2723.14 93.337,2706.08C94.403,2689.01 102.937,2674.07 116.804,2653.81C130.671,2633.54 213.865,2509.16 227.487,2490.6C241.208,2471.91 254.612,2403.77 269.333,2447.93C282.527,2487.51 305.337,2596.28 290.488,2707.41C281.278,2776.34 242.025,2947.89 242.025,2947.89L2061.32,2947.89C2061.32,2947.89 2023.53,2707.13 2016.23,2682.5C2007.7,2653.7 2029.6,2476.85 2033.87,2437.38C2036.88,2409.48 2047.01,2380.21 2048.94,2368.09C2050.23,2359.97 2060.12,2334.56 2061.32,2328.13C2062.52,2321.7 2094.4,2364.48 2105.86,2368.95C2117.33,2373.43 2136.18,2443.36 2148.13,2458.72C2160.07,2474.08 2189.6,2496.14 2195.61,2505.97C2201.62,2515.8 2208,2520.71 2208,2520.71L2208,1650.65C2208,1650.65 2164.44,1618.59 2143.11,1607.29C2121.78,1595.99 2081.78,1582.65 2045.77,1578.65C2009.77,1574.65 2021.77,1575.99 1984.44,1574.65C1947.1,1573.32 1968.44,1577.32 1933.77,1569.32C1899.1,1561.32 406.591,1614.75 406.591,1614.75Z"/>
        </clipPath>
        <g clip-path="url(#_clip1)">
            <g>
                <path d="M2018.82,2060.37C2018.82,2060.37 2035.48,1924.94 2091.74,1849.94C2147.99,1774.94 2145.9,1787.44 2166.74,1772.86" style="fill:none;stroke:rgb(71,106,29);stroke-width:10px;"/>
                <path d="M1353.8,1949.78C1353.8,1949.78 1301.53,1999.92 1290.87,2045.78C1280.2,2091.65 1247.13,2124.72 1223.66,2141.79" style="fill:none;stroke:rgb(71,106,29);stroke-width:10px;"/>
                <path d="M2045.9,2060.37C2045.9,2060.37 2120.9,1922.86 2166.74,1897.86" style="fill:none;stroke:rgb(71,106,29);stroke-width:10px;"/>
                <path d="M2079.25,2144.75C2079.25,2144.75 2119.93,2125.77 2157.12,2089.28C2181.87,2065.01 2192.58,2046.5 2192.58,2046.5" style="fill:none;stroke:rgb(71,106,29);stroke-width:10px;"/>
                <path d="M2092.78,2208.7C2092.78,2208.7 2164.72,2183.58 2183.84,2170.47" style="fill:none;stroke:rgb(71,106,29);stroke-width:10px;"/>
                <path d="M214.477,2265.75C214.477,2265.75 215.81,2220.1 189.142,2189.59C162.475,2159.08 159.596,2144.41 113.034,2124.41C66.472,2104.41 59.272,2092.01 24.07,2095.63" style="fill:none;stroke:rgb(71,106,29);stroke-width:10px;"/>
                <path d="M161.174,2323.17C152.955,2319.56 115.473,2303.75 97.139,2280.41C67.805,2243.08 34.204,2234.99 15.537,2230.99" style="fill:none;stroke:rgb(71,106,29);stroke-width:10px;"/>
                <path d="M200.955,2112.69C185.594,2095.61 185.153,2080.41 127.813,2069.74C70.472,2059.07 29.617,2050.81 15.537,2039.61" style="fill:none;stroke:rgb(71,106,29);stroke-width:10px;"/>
                <path d="M262.452,2402.06C262.452,2402.06 269.198,2358.23 258.531,2291.56C247.864,2224.89 259.385,2177.74 245.384,2129.74C231.384,2081.74 210.482,2072.42 214.488,1997.74C215.722,1974.74 205.149,1956.81 200.955,1943.67" style="fill:none;stroke:rgb(71,106,29);stroke-width:10px;"/>
                <path d="M2048.08,2349.74C2030.75,2303.9 2025.37,2286.89 2017.37,2242.57C2009.37,2198.24 2046.24,2293.49 2071.58,2322.82" style="fill:none;stroke:rgb(71,106,29);stroke-width:10px;"/>
                <path d="M290.072,2821.47C307.217,2793.33 322.266,2728.27 346.593,2624.95C359.581,2569.79 374.218,2532.24 361.424,2477.89" style="fill:none;stroke:rgb(71,106,29);stroke-width:10px;"/>
                <path d="M200.955,2483.97C200.955,2483.97 178.554,2505.3 139.086,2493.57C99.618,2481.83 83.617,2465.83 54.817,2451.97C26.016,2438.1 24.949,2437.03 24.949,2437.03" style="fill:none;stroke:rgb(71,106,29);stroke-width:10px;"/>
                <path d="M119.885,2437.03C104.951,2422.1 106.018,2406.1 92.151,2383.7C78.284,2361.3 75.084,2339.96 45.216,2335.7" style="fill:none;stroke:rgb(71,106,29);stroke-width:10px;"/>
                <path d="M1991.36,1658.18C1991.36,1658.18 2011.36,1640.85 2043.36,1635.51C2075.36,1630.18 2095.36,1632.85 2124.69,1639.51" style="fill:none;stroke:rgb(71,106,29);stroke-width:10px;"/>
            </g>
        </g>
        <path id="shirt2" serif:id="shirt" d="M406.591,1614.75C406.591,1614.75 310.237,1615.59 276.96,1621.33C241.391,1627.47 221.534,1638.1 199.133,1658.37C176.732,1678.63 151.601,1698.77 140.422,1717.33C133.526,1728.78 115.077,1754.29 99.204,1765.72C88.257,1773.61 45.78,1794.01 32.98,1803.61C20.18,1813.21 -1.75,1828.05 0,1835.52C1.75,1842.98 0,2887.76 0,2887.76C0,2887.76 49.602,2834.08 65.603,2794.61C81.603,2755.14 92.27,2723.14 93.337,2706.08C94.403,2689.01 102.937,2674.07 116.804,2653.81C130.671,2633.54 213.865,2509.16 227.487,2490.6C241.208,2471.91 254.612,2403.77 269.333,2447.93C282.527,2487.51 305.337,2596.28 290.488,2707.41C281.278,2776.34 242.025,2947.89 242.025,2947.89L2061.32,2947.89C2061.32,2947.89 2023.53,2707.13 2016.23,2682.5C2007.7,2653.7 2029.6,2476.85 2033.87,2437.38C2036.88,2409.48 2047.01,2380.21 2048.94,2368.09C2050.23,2359.97 2060.12,2334.56 2061.32,2328.13C2062.52,2321.7 2094.4,2364.48 2105.86,2368.95C2117.33,2373.43 2136.18,2443.36 2148.13,2458.72C2160.07,2474.08 2189.6,2496.14 2195.61,2505.97C2201.62,2515.8 2208,2520.71 2208,2520.71L2208,1650.65C2208,1650.65 2164.44,1618.59 2143.11,1607.29C2121.78,1595.99 2081.78,1582.65 2045.77,1578.65C2009.77,1574.65 2021.77,1575.99 1984.44,1574.65C1947.1,1573.32 1968.44,1577.32 1933.77,1569.32C1899.1,1561.32 406.591,1614.75 406.591,1614.75Z" style="fill:none;stroke:rgb(6,9,5);stroke-width:5px;"/>
        <path d="M776.122,1232.41C776.122,1232.41 843.725,1384.91 872.025,1455.66C900.324,1526.4 903.468,1575.14 903.468,1614.45C903.468,1653.75 883.03,1683.62 879.886,1704.06C876.741,1724.5 939.628,1839.27 969.5,1864.42C999.371,1889.58 1024.18,1912.76 1044.33,1929.13C1064.93,1945.87 1121.6,1980 1165.39,1972.92C1209.18,1965.83 1286.46,1914.96 1297.41,1902.72C1308.35,1890.49 1325.78,1882.91 1337.1,1857.76C1348.42,1832.6 1326.08,1797.95 1305.01,1766.65C1286.98,1739.86 1274.21,1731.25 1265.75,1696.21C1255.67,1654.48 1270.93,1627.56 1284.77,1562.16C1298.6,1496.75 1319,1440.59 1346.67,1397.83C1374.34,1355.06 1393.1,1330.51 1408.83,1300.63C1424.55,1270.76 1441.4,1249.07 1451.78,1228C1457.14,1217.11 1303.85,1456.2 1129.06,1460.19C963.52,1463.98 776.122,1232.41 776.122,1232.41Z" style="fill:rgb(247,209,161);stroke:rgb(80,67,22);stroke-width:3px;"/>
        <path d="M771.212,1259.79C779.511,1278.35 843.264,1384.07 841.401,1447.57C839.494,1512.56 895.903,1516.75 923.154,1537.71C950.405,1558.67 951.461,1612.63 1007,1648.81C1028.02,1662.5 1074.67,1670.03 1104,1660.58C1133.33,1651.14 1215.76,1607.35 1246.67,1573.86C1277.58,1540.38 1268.99,1532.65 1284.44,1506.89C1299.9,1481.13 1367.06,1367.84 1393.89,1344.36C1420.72,1320.88 1444.2,1299.08 1449.23,1278.95C1454.26,1258.83 1463.88,1232.96 1464.74,1218.37C1465.6,1203.77 1421.81,1278.47 1402.06,1296.5C1382.31,1314.53 1300.75,1421.86 1268.12,1447.62C1235.49,1473.38 1200.29,1505.15 1150.49,1505.15C1100.69,1505.15 1060.33,1497.93 1009.67,1452.43C959.015,1406.92 891.184,1378.93 864.567,1337.72C837.95,1296.5 819.06,1276.76 799.312,1260.44C779.564,1244.13 772.724,1185.93 768.058,1178.87C762.691,1170.76 768.063,1252.75 771.212,1259.79Z" style="fill:rgb(227,185,133);"/>
        <path d="M1137.02,24.961C1137.02,24.961 1107.14,27.477 1051.8,16.157C996.456,4.838 974.863,-4.043 932.1,7.084C889.336,18.21 853.808,29.771 828.693,48.446C803.578,67.121 698.612,138.601 665.77,206.861C632.928,275.122 622.624,288.001 614.253,320.843C605.881,353.685 543.038,514.692 529.203,603.992C515.368,693.291 483.924,865.602 471.347,922.201C458.769,978.799 471.819,1101.59 444.305,1162.51C416.792,1223.43 363.731,1364.93 326.392,1435.67C289.053,1506.42 224.2,1649.88 230.096,1744.21C235.992,1838.55 239.922,1889.64 273.331,1954.49C306.74,2019.35 316.566,2025.24 338.183,2078.3C359.801,2131.36 353.905,2105.82 359.801,2166.74C365.696,2227.66 369.595,2178.86 372.614,2141.63C375.633,2104.4 366.577,2079.25 352.49,2049.06C338.403,2018.87 317.273,1978.63 311.236,1930.33C305.199,1882.03 276.019,1781.41 284.069,1712.99C292.119,1644.57 314.255,1583.19 333.372,1544.96C352.49,1506.72 354.503,1494.63 369.595,1472C384.688,1449.37 412.862,1478.55 396.763,1530.87C380.664,1583.19 372.614,1648.59 375.633,1691.86C378.651,1735.13 370.602,1765.31 381.67,1809.59C392.738,1853.86 390.726,1971.58 410.849,2021.89C430.973,2072.2 421.918,2101.38 418.899,2119.49C415.88,2137.61 396.763,2287.53 399.781,2318.72C402.8,2349.91 379.639,2490.68 381.211,2559.86C382.783,2629.03 387.5,2753.23 404.794,2838.13C422.088,2923.03 404.794,2944.53 440.954,2944C477.114,2943.47 760.106,2950.82 824.565,2944C889.025,2937.18 884.308,2926.17 862.298,2864.86C840.287,2803.54 849.117,2790.23 856.978,2757.21C864.839,2724.2 883.705,2659.74 896.282,2618.86C908.86,2577.98 921.437,2507.24 913.576,2452.21C905.715,2397.18 908.86,2372.03 916.72,2337.44C924.581,2302.85 927.726,2313.86 943.448,2353.16C959.169,2392.47 963.886,2453.78 967.03,2405.04C970.175,2356.31 972.223,2263.11 993.34,2342.73C998.039,2360.44 1000.33,2364.08 1005.48,2388.55C1010.63,2413.02 1015.14,2457.45 1014.5,2489.65C1013.85,2521.85 1013.21,2535.37 1000.97,2589.46C988.739,2643.55 944.87,2746.43 926.918,2766.55C905.667,2790.38 876.045,2864.43 903.736,2824.51C931.426,2784.58 953.321,2778.79 968.132,2742.73C982.943,2706.66 977.576,2701.61 990.657,2673.43C1003.74,2645.26 1022.86,2582.88 1026.88,2559.73C1030.9,2536.59 1043.99,2452.07 1038.95,2413.83C1033.92,2375.6 1043.99,2305.16 1025.87,2265.92C1007.76,2226.68 979.589,2110.86 972.545,2092.86C965.502,2074.86 957.855,2051.92 975.242,2080.89C992.629,2109.87 1006.15,2137.56 1011.3,2153.02C1016.46,2168.47 1049.94,2223.86 1058.31,2243.82C1066.68,2263.78 1085.36,2293.4 1092.44,2322.38C1099.53,2351.36 1102.38,2376.1 1108.64,2400.43C1115.5,2427.09 1115.63,2466.24 1111.51,2493.03C1107.38,2519.82 1102.75,2544.03 1096.05,2559.49C1089.35,2574.94 1026.5,2671.28 1007.96,2679.52C989.409,2687.77 976.746,2728.12 991.985,2711.98C1009.5,2693.43 1009.5,2691.89 1028.56,2673.86C1047.62,2655.83 1097.53,2595.55 1104,2578.55C1110.57,2561.31 1131.08,2489.94 1127.99,2452.33C1124.9,2414.73 1127.22,2385.36 1122.2,2360.12C1117.17,2334.87 1104.81,2276.14 1090.38,2244.72C1075.96,2213.29 1044.02,2117.99 1033.71,2099.44C1023.41,2080.89 1012.08,2038.65 986.318,1992.8C960.56,1946.95 970.348,1934.07 957.984,1889.25C945.62,1844.43 941.054,1836.12 939.671,1831.61C936.86,1822.43 919.973,1801.86 905.378,1773.04C890.467,1743.6 880.041,1710.56 879.041,1707.56C877.063,1701.63 890.457,1673.4 895.094,1657.43C897.499,1649.15 904.245,1624.09 903.231,1596.21C902.29,1570.34 893.738,1542.04 892.003,1522.46C888.048,1477.82 790.471,1269.23 786.393,1258.69C780.21,1242.72 764.755,1198.93 751.876,1174.71C738.997,1150.5 725.708,1121.69 721.772,1087.84C717.764,1053.36 716.383,942.027 702.473,894.631C688.563,847.235 696.172,824.627 688.928,801.284C681.683,777.94 700.34,731.179 707.585,698.98C714.83,666.782 714.904,655.513 723.595,620.9C732.287,586.287 777.957,479.455 808.123,435.182C838.289,390.91 920.511,302.341 961.564,285.437C1002.62,268.533 1061.31,223.155 1094.32,220.923C1127.32,218.69 1169.4,225.103 1224.43,235.889C1279.21,246.628 1282.05,247.055 1317.43,260.359C1357.79,275.532 1441.98,316.446 1472.37,349.278C1496.29,375.108 1560.7,484.039 1565.46,510.868C1570.1,537.022 1585.6,661.728 1585.1,676.565C1584.61,691.402 1584.33,692.636 1582.56,709.384C1581.52,719.276 1563.03,687.498 1547.64,775.723C1532.47,862.698 1532.39,917.717 1532.39,934.822C1532.39,951.927 1541,954.262 1541,971.649C1541,989.036 1428.71,1204.91 1448.5,1224.05C1457.93,1233.16 1433.6,1245.6 1425.88,1267.56C1418.27,1289.22 1373.96,1350.76 1368.73,1360.54C1362.54,1372.07 1302.37,1466.14 1296.6,1509.78C1290.83,1553.41 1233.67,1648.01 1270.75,1724.55C1290.81,1765.95 1309.42,1767.13 1314.45,1794.8C1319.48,1822.47 1310.01,1853.99 1324.54,1872.08C1330.08,1878.99 1333.67,1881.24 1341.37,1884.9C1356.65,1892.17 1375.07,1893.42 1386.34,1917.57C1397.61,1941.72 1395.2,1969.08 1387.15,2000.48C1379.1,2031.87 1358.17,2130.07 1346.9,2164.69C1335.63,2199.3 1324.36,2289.46 1317.92,2328.09C1311.48,2366.73 1292.16,2441.59 1296.19,2472.99C1300.21,2504.38 1286.53,2534.16 1280.09,2581.66C1273.65,2629.15 1270.43,2674.22 1276.87,2708.84C1283.31,2743.45 1277.67,2786.92 1284.92,2813.48C1292.16,2840.05 1290.55,2873.05 1294.58,2855.34C1298.6,2837.63 1308.26,2831.19 1303.43,2790.94C1298.6,2750.7 1293.77,2679.05 1296.99,2638C1300.21,2596.95 1299.41,2547.04 1305.85,2587.29C1312.29,2627.54 1313.09,2690.32 1313.89,2710.45C1314.7,2730.57 1313.89,2807.04 1310.68,2829.58C1307.46,2852.12 1297.8,2882.71 1292.97,2908.47C1288.14,2934.22 1260.77,2944.12 1296.19,2944C1331.6,2943.88 1835.25,2952.8 1852.86,2944C1870.47,2935.2 1846.57,2870.73 1832.74,2830.49C1818.9,2790.24 1793.48,2777.5 1795.45,2730.34C1797.41,2683.17 1791.52,2557.4 1817.07,2624.22C1842.61,2691.03 1840.65,2677.28 1848.51,2730.34C1856.37,2783.4 1881.92,2822.7 1899.61,2858.08C1917.29,2893.45 1982.14,2932.76 1966.42,2860.04C1950.7,2787.33 1929.08,2716.58 1964.46,2771.61C1999.83,2826.63 2021.45,2881.66 2047,2903.28C2072.55,2924.89 2059.07,2900.29 2043.98,2871.11C2028.89,2841.93 1977.57,2780.55 1971.53,2746.34C1965.5,2712.13 1963.48,2683.96 1967.51,2642.7C1971.53,2601.45 1968.51,2508.88 1954.43,2480.71C1940.34,2452.53 1940.68,2461.53 1924.24,2438.45C1906.01,2412.85 1912.17,2417.32 1931.29,2386.13C1950.4,2354.93 1991.09,2263.87 1993.61,2226.14C1996.12,2188.41 2021.28,2109.17 1994.87,2016.1C1968.45,1923.03 1990.61,1861.23 1958.67,1787.54C1926.74,1713.84 1943.5,1560.84 1911.57,1494.68C1879.63,1428.53 1881.95,1323.24 1879.5,1261.82C1877.04,1200.41 1839.53,1153.43 1785.17,1087.19C1754.66,1050.03 1750.13,1057.28 1747.61,1023.32C1745.1,989.362 1730,897.547 1726.23,832.144C1722.45,766.742 1703.3,618.311 1682.21,566.761C1659.57,511.42 1662.08,461.111 1652.02,438.471C1641.96,415.832 1614.52,341.305 1610.52,316.47C1608.01,300.89 1612.34,298.017 1612.47,283.485C1612.67,262.743 1585.36,210.82 1569.01,185.665C1552.66,160.51 1503.61,100.139 1475.94,86.304C1448.27,72.468 1365.26,33.478 1321.24,27.19C1277.21,20.901 1231.94,18.386 1213.07,20.901C1194.2,23.417 1172.82,25.932 1160.25,29.705C1147.67,33.478 1137.02,24.961 1137.02,24.961Z" style="fill:rgb(167,149,87);"/>
        <clipPath id="_clip2">
            <path d="M1137.02,24.961C1137.02,24.961 1107.14,27.477 1051.8,16.157C996.456,4.838 974.863,-4.043 932.1,7.084C889.336,18.21 853.808,29.771 828.693,48.446C803.578,67.121 698.612,138.601 665.77,206.861C632.928,275.122 622.624,288.001 614.253,320.843C605.881,353.685 543.038,514.692 529.203,603.992C515.368,693.291 483.924,865.602 471.347,922.201C458.769,978.799 471.819,1101.59 444.305,1162.51C416.792,1223.43 363.731,1364.93 326.392,1435.67C289.053,1506.42 224.2,1649.88 230.096,1744.21C235.992,1838.55 239.922,1889.64 273.331,1954.49C306.74,2019.35 316.566,2025.24 338.183,2078.3C359.801,2131.36 353.905,2105.82 359.801,2166.74C365.696,2227.66 369.595,2178.86 372.614,2141.63C375.633,2104.4 366.577,2079.25 352.49,2049.06C338.403,2018.87 317.273,1978.63 311.236,1930.33C305.199,1882.03 276.019,1781.41 284.069,1712.99C292.119,1644.57 314.255,1583.19 333.372,1544.96C352.49,1506.72 354.503,1494.63 369.595,1472C384.688,1449.37 412.862,1478.55 396.763,1530.87C380.664,1583.19 372.614,1648.59 375.633,1691.86C378.651,1735.13 370.602,1765.31 381.67,1809.59C392.738,1853.86 390.726,1971.58 410.849,2021.89C430.973,2072.2 421.918,2101.38 418.899,2119.49C415.88,2137.61 396.763,2287.53 399.781,2318.72C402.8,2349.91 379.639,2490.68 381.211,2559.86C382.783,2629.03 387.5,2753.23 404.794,2838.13C422.088,2923.03 404.794,2944.53 440.954,2944C477.114,2943.47 760.106,2950.82 824.565,2944C889.025,2937.18 884.308,2926.17 862.298,2864.86C840.287,2803.54 849.117,2790.23 856.978,2757.21C864.839,2724.2 883.705,2659.74 896.282,2618.86C908.86,2577.98 921.437,2507.24 913.576,2452.21C905.715,2397.18 908.86,2372.03 916.72,2337.44C924.581,2302.85 927.726,2313.86 943.448,2353.16C959.169,2392.47 963.886,2453.78 967.03,2405.04C970.175,2356.31 972.223,2263.11 993.34,2342.73C998.039,2360.44 1000.33,2364.08 1005.48,2388.55C1010.63,2413.02 1015.14,2457.45 1014.5,2489.65C1013.85,2521.85 1013.21,2535.37 1000.97,2589.46C988.739,2643.55 944.87,2746.43 926.918,2766.55C905.667,2790.38 876.045,2864.43 903.736,2824.51C931.426,2784.58 953.321,2778.79 968.132,2742.73C982.943,2706.66 977.576,2701.61 990.657,2673.43C1003.74,2645.26 1022.86,2582.88 1026.88,2559.73C1030.9,2536.59 1043.99,2452.07 1038.95,2413.83C1033.92,2375.6 1043.99,2305.16 1025.87,2265.92C1007.76,2226.68 979.589,2110.86 972.545,2092.86C965.502,2074.86 957.855,2051.92 975.242,2080.89C992.629,2109.87 1006.15,2137.56 1011.3,2153.02C1016.46,2168.47 1049.94,2223.86 1058.31,2243.82C1066.68,2263.78 1085.36,2293.4 1092.44,2322.38C1099.53,2351.36 1102.38,2376.1 1108.64,2400.43C1115.5,2427.09 1115.63,2466.24 1111.51,2493.03C1107.38,2519.82 1102.75,2544.03 1096.05,2559.49C1089.35,2574.94 1026.5,2671.28 1007.96,2679.52C989.409,2687.77 976.746,2728.12 991.985,2711.98C1009.5,2693.43 1009.5,2691.89 1028.56,2673.86C1047.62,2655.83 1097.53,2595.55 1104,2578.55C1110.57,2561.31 1131.08,2489.94 1127.99,2452.33C1124.9,2414.73 1127.22,2385.36 1122.2,2360.12C1117.17,2334.87 1104.81,2276.14 1090.38,2244.72C1075.96,2213.29 1044.02,2117.99 1033.71,2099.44C1023.41,2080.89 1012.08,2038.65 986.318,1992.8C960.56,1946.95 970.348,1934.07 957.984,1889.25C945.62,1844.43 941.054,1836.12 939.671,1831.61C936.86,1822.43 919.973,1801.86 905.378,1773.04C890.467,1743.6 880.041,1710.56 879.041,1707.56C877.063,1701.63 890.457,1673.4 895.094,1657.43C897.499,1649.15 904.245,1624.09 903.231,1596.21C902.29,1570.34 893.738,1542.04 892.003,1522.46C888.048,1477.82 790.471,1269.23 786.393,1258.69C780.21,1242.72 764.755,1198.93 751.876,1174.71C738.997,1150.5 725.708,1121.69 721.772,1087.84C717.764,1053.36 716.383,942.027 702.473,894.631C688.563,847.235 696.172,824.627 688.928,801.284C681.683,777.94 700.34,731.179 707.585,698.98C714.83,666.782 714.904,655.513 723.595,620.9C732.287,586.287 777.957,479.455 808.123,435.182C838.289,390.91 920.511,302.341 961.564,285.437C1002.62,268.533 1061.31,223.155 1094.32,220.923C1127.32,218.69 1169.4,225.103 1224.43,235.889C1279.21,246.628 1282.05,247.055 1317.43,260.359C1357.79,275.532 1441.98,316.446 1472.37,349.278C1496.29,375.108 1560.7,484.039 1565.46,510.868C1570.1,537.022 1585.6,661.728 1585.1,676.565C1584.61,691.402 1584.33,692.636 1582.56,709.384C1581.52,719.276 1563.03,687.498 1547.64,775.723C1532.47,862.698 1532.39,917.717 1532.39,934.822C1532.39,951.927 1541,954.262 1541,971.649C1541,989.036 1428.71,1204.91 1448.5,1224.05C1457.93,1233.16 1433.6,1245.6 1425.88,1267.56C1418.27,1289.22 1373.96,1350.76 1368.73,1360.54C1362.54,1372.07 1302.37,1466.14 1296.6,1509.78C1290.83,1553.41 1233.67,1648.01 1270.75,1724.55C1290.81,1765.95 1309.42,1767.13 1314.45,1794.8C1319.48,1822.47 1310.01,1853.99 1324.54,1872.08C1330.08,1878.99 1333.67,1881.24 1341.37,1884.9C1356.65,1892.17 1375.07,1893.42 1386.34,1917.57C1397.61,1941.72 1395.2,1969.08 1387.15,2000.48C1379.1,2031.87 1358.17,2130.07 1346.9,2164.69C1335.63,2199.3 1324.36,2289.46 1317.92,2328.09C1311.48,2366.73 1292.16,2441.59 1296.19,2472.99C1300.21,2504.38 1286.53,2534.16 1280.09,2581.66C1273.65,2629.15 1270.43,2674.22 1276.87,2708.84C1283.31,2743.45 1277.67,2786.92 1284.92,2813.48C1292.16,2840.05 1290.55,2873.05 1294.58,2855.34C1298.6,2837.63 1308.26,2831.19 1303.43,2790.94C1298.6,2750.7 1293.77,2679.05 1296.99,2638C1300.21,2596.95 1299.41,2547.04 1305.85,2587.29C1312.29,2627.54 1313.09,2690.32 1313.89,2710.45C1314.7,2730.57 1313.89,2807.04 1310.68,2829.58C1307.46,2852.12 1297.8,2882.71 1292.97,2908.47C1288.14,2934.22 1260.77,2944.12 1296.19,2944C1331.6,2943.88 1835.25,2952.8 1852.86,2944C1870.47,2935.2 1846.57,2870.73 1832.74,2830.49C1818.9,2790.24 1793.48,2777.5 1795.45,2730.34C1797.41,2683.17 1791.52,2557.4 1817.07,2624.22C1842.61,2691.03 1840.65,2677.28 1848.51,2730.34C1856.37,2783.4 1881.92,2822.7 1899.61,2858.08C1917.29,2893.45 1982.14,2932.76 1966.42,2860.04C1950.7,2787.33 1929.08,2716.58 1964.46,2771.61C1999.83,2826.63 2021.45,2881.66 2047,2903.28C2072.55,2924.89 2059.07,2900.29 2043.98,2871.11C2028.89,2841.93 1977.57,2780.55 1971.53,2746.34C1965.5,2712.13 1963.48,2683.96 1967.51,2642.7C1971.53,2601.45 1968.51,2508.88 1954.43,2480.71C1940.34,2452.53 1940.68,2461.53 1924.24,2438.45C1906.01,2412.85 1912.17,2417.32 1931.29,2386.13C1950.4,2354.93 1991.09,2263.87 1993.61,2226.14C1996.12,2188.41 2021.28,2109.17 1994.87,2016.1C1968.45,1923.03 1990.61,1861.23 1958.67,1787.54C1926.74,1713.84 1943.5,1560.84 1911.57,1494.68C1879.63,1428.53 1881.95,1323.24 1879.5,1261.82C1877.04,1200.41 1839.53,1153.43 1785.17,1087.19C1754.66,1050.03 1750.13,1057.28 1747.61,1023.32C1745.1,989.362 1730,897.547 1726.23,832.144C1722.45,766.742 1703.3,618.311 1682.21,566.761C1659.57,511.42 1662.08,461.111 1652.02,438.471C1641.96,415.832 1614.52,341.305 1610.52,316.47C1608.01,300.89 1612.34,298.017 1612.47,283.485C1612.67,262.743 1585.36,210.82 1569.01,185.665C1552.66,160.51 1503.61,100.139 1475.94,86.304C1448.27,72.468 1365.26,33.478 1321.24,27.19C1277.21,20.901 1231.94,18.386 1213.07,20.901C1194.2,23.417 1172.82,25.932 1160.25,29.705C1147.67,33.478 1137.02,24.961 1137.02,24.961Z"/>
        </clipPath>
        <g clip-path="url(#_clip2)">
            <g>
                <g transform="matrix(1,0,0,1,0,-1)">
                    <path d="M1008.85,145.785C1008.85,145.785 1042.31,110.352 997.034,92.635C951.758,74.918 920.262,45.391 863.175,69.013C806.089,92.635 689.947,167.438 670.262,194.997C650.577,222.556 614.588,322.717 612.008,333.682C609.428,344.648 566.21,479.461 562.34,491.072C558.469,502.683 593.947,500.748 612.008,464.625C630.069,428.503 671.672,367.869 688.928,349.808C706.184,331.747 741.661,301.43 773.913,295.625C806.165,289.82 847.447,270.468 878.409,271.113C909.371,271.758 947.124,253.669 929.239,249.053C905.243,242.861 917.112,247.247 892.6,238.216C868.089,229.186 848.092,209.19 871.314,203.384C894.535,197.579 906.146,169.842 933.883,162.102C961.62,154.361 1008.85,145.785 1008.85,145.785Z" style="fill:rgb(141,121,49);"/>
                </g>
                <path d="M1160.57,186.852C1160.57,186.852 1137.08,160.647 1175.53,156.615C1213.99,152.584 1316.79,138.474 1348.03,145.529C1379.28,152.584 1381.07,164.429 1403.47,144.521C1412.54,136.458 1419.59,127.387 1437.73,132.426C1455.88,137.466 1489.13,146.537 1502.24,167.702C1515.34,188.867 1521.39,187.86 1520.38,201.97C1519.37,216.08 1418.58,201.97 1393.39,200.962C1368.19,199.954 1344,226.608 1312.76,214.793C1281.51,202.978 1160.57,186.852 1160.57,186.852Z" style="fill:rgb(140,120,49);"/>
                <path d="M756.117,1261.18C756.117,1261.18 811.917,1567.48 791.399,1660.99C770.881,1754.49 782.128,1888.52 768.421,1819.17C754.713,1749.83 766.002,1744.19 757.132,1696.62C748.263,1649.04 749.876,1590.99 738.587,1640.17C727.299,1689.36 693.435,1845.78 660.376,1897.38C627.318,1948.99 634.575,1939.31 598.291,1963.5C562.008,1987.69 613.611,1940.92 633.768,1900.61C653.926,1860.29 660.376,1845.78 665.214,1822.4C670.052,1799.02 677.309,1779.66 678.921,1753.86C680.534,1728.06 689.403,1684.52 667.633,1725.64C645.863,1766.76 618.449,1794.98 601.516,1817.56C584.584,1840.14 573.296,1857.88 548.301,1878.03C523.305,1898.19 498.31,1901.41 479.765,1905.45C461.22,1909.48 510.121,1895.93 542.108,1857.07C562.362,1832.46 583.778,1798.21 595.066,1774.02C606.354,1749.83 621.684,1720.24 624.909,1699.6C628.134,1678.96 632.005,1651.87 633.94,1628.64C635.875,1605.42 638.455,1599.62 635.875,1579.62C633.295,1559.63 644.26,1540.92 622.329,1571.88C600.398,1602.84 571.348,1644.9 562.047,1666.06C548.149,1697.66 531.378,1735.72 507.512,1757.65C483.645,1779.58 460.687,1800.48 452.416,1815.59C447.637,1824.32 447.18,1823.11 442.639,1833.02C438.098,1842.93 434.871,1840.69 438.464,1824.63C442.057,1808.56 452.986,1785.29 454.918,1779.03C456.85,1772.76 491.701,1727.77 515.89,1680.4C540.079,1633.03 548.739,1606.82 562.047,1599.77C575.355,1592.71 587.449,1579.61 589.465,1558.45C591.481,1537.28 594.504,1511.08 591.481,1488.9C588.457,1466.73 585.433,1441.81 574.347,1474.93C563.26,1508.05 566.881,1503.29 562.047,1474.93C557.213,1446.57 557.826,1427.77 535.652,1491.27C513.479,1554.76 510.27,1556.03 506.239,1581.02C502.207,1606.02 494.95,1660.04 494.95,1676.17C494.95,1692.29 491.037,1710.19 484.587,1722.45C478.137,1734.7 470.268,1760.47 465.817,1761.78C461.366,1763.09 452.98,1783.73 446.53,1750.19C440.079,1716.64 443.949,1617.95 453.625,1574.74C463.301,1531.52 467.456,1480.4 494.227,1428.43C520.999,1376.47 514.7,1360.73 541.471,1330.8C568.243,1300.88 559,1300.88 562.047,1220.56C565.094,1140.25 525.346,1062.41 549.345,1004.81C557.219,985.914 568.169,953.163 602.618,913.793C637.067,874.423 624.961,852.081 618.661,807.986C612.362,763.892 634.41,696.175 632.835,656.805C631.26,617.435 621.811,619.01 593.465,639.482C565.118,659.954 572.992,595.388 577.717,562.317C582.441,529.246 659.973,433.289 712.55,403.335C750.601,381.657 787.38,397.433 763.716,433.626C736.944,474.571 675.527,649.374 673.952,674.571C672.377,699.767 665.6,899.224 688.928,950.703C699.822,974.745 706.015,1017.54 702.79,1044.15C699.564,1070.75 723.753,1161.06 717.303,1204.6C710.853,1248.14 756.117,1261.18 756.117,1261.18Z" style="fill:rgb(217,196,119);"/>
                <path d="M1547.32,1051.32C1547.32,1051.32 1486.3,1210.77 1476.46,1305.25C1466.61,1399.74 1450.87,1483.09 1427.24,1508.35C1403.62,1533.6 1387.87,1574.94 1391.81,1612.34C1395.75,1649.74 1376.06,1702.89 1378.03,1759.98C1380,1817.07 1412.52,1979.59 1432.68,2009.82C1452.84,2040.06 1460.39,2081.63 1465.43,2114.39C1470.47,2147.14 1473.14,2144.68 1473.95,2114.84C1474.76,2085.01 1461.86,2048.72 1453.79,2018.89C1445.73,1989.06 1417.51,1940.68 1408.64,1898.75C1399.77,1856.83 1401.38,1818.93 1404.61,1797.16C1407.83,1775.39 1412.67,1760.88 1432.83,1818.12C1452.99,1875.37 1459.44,1893.91 1466.69,1929.39C1473.95,1964.87 1484.43,2041.47 1488.46,2068.88C1492.5,2096.3 1499.75,2163.22 1498.14,2193.86C1496.53,2224.5 1493.62,2244.98 1512.65,2205.95C1528.78,2172.89 1533.62,2172.09 1544.9,2144.68C1556.19,2117.26 1557,2075.33 1554.58,2049.53C1552.16,2023.73 1566.58,2004.51 1556.5,1942.78C1546.42,1881.05 1540.93,1867.84 1539.31,1852.52C1537.7,1837.2 1533.67,1802.53 1555.44,1831.56C1577.21,1860.59 1590.58,1864.62 1585.1,1833.98C1579.63,1803.34 1590.25,1786.7 1585.1,1746.09C1582.85,1728.35 1590.58,1713.84 1585.1,1692.07C1579.63,1670.3 1579.31,1647.67 1593.17,1687.23C1607.85,1729.16 1623.17,1789.63 1623.17,1805.76C1623.17,1821.88 1627.2,1866.23 1626.39,1892.03C1625.59,1917.83 1618.24,1989.93 1616.23,2006.06C1614.21,2022.19 1615.22,2042.34 1628.32,2014.12C1641.42,1985.9 1653.52,1975.82 1656.54,1951.63C1659.56,1927.45 1660.57,1868.99 1660.57,1840.77C1660.57,1812.55 1642.43,1735.95 1659.56,1789.37C1676.7,1842.79 1700.89,1848.83 1709.96,1893.18C1719.03,1937.53 1719.35,1891.03 1713.99,1842.79C1711.97,1824.64 1699.88,1818.6 1689.8,1801.46C1679.72,1784.33 1662.59,1731.92 1663.6,1694.63C1664.6,1657.34 1672.67,1578.72 1679.72,1552.52C1686.78,1526.31 1690.74,1473.16 1720.27,1392.45C1749.8,1311.74 1793.11,1242.62 1775.39,1191.55C1757.67,1140.48 1736.38,1062.4 1718.78,1135.13C1707.99,1179.7 1693.69,1158.51 1667.12,1209.38C1656.97,1228.83 1648.22,1232.33 1645.7,1181.8C1642.23,1112.17 1644.44,1085.92 1644.44,1015.37C1644.44,944.815 1652,956.532 1653.26,908.28C1654.52,860.028 1654.52,858.012 1641.42,892.28C1628.32,926.547 1626.3,940.657 1610.18,966.862C1594.05,993.067 1547.32,1051.32 1547.32,1051.32Z" style="fill:rgb(217,196,119);"/>
                <path d="M727.985,1878.11C707.035,1934.54 709.317,2000.09 721.013,2058.57C726.84,2087.7 737.617,2102.15 752.451,2117.59C764.939,2130.58 780.855,2144.39 799.196,2172.39C898.072,2323.36 815.152,2490.58 712.496,2632.34C707.641,2639.05 709.142,2648.43 715.848,2653.29C722.553,2658.14 731.939,2656.64 736.794,2649.94C846.825,2497.99 930.271,2317.76 824.293,2155.96C804.536,2125.79 787.535,2110.8 774.084,2096.8C762.979,2085.24 754.793,2074.49 750.43,2052.68C739.794,1999.5 737.057,1939.87 756.109,1888.55C758.99,1880.79 755.029,1872.15 747.267,1869.27C739.506,1866.39 730.866,1870.35 727.985,1878.11Z" style="fill:rgb(201,183,96);"/>
                <path d="M525.94,1922.71C470.831,2032.93 498.015,2127.25 538.97,2217.79C577.173,2302.25 628.261,2382.95 625.048,2471.82C622.397,2545.18 576.264,2619.62 547.001,2692.95C514.933,2773.31 502.057,2852.08 570.385,2926.62C575.98,2932.72 585.476,2933.13 591.579,2927.54C597.681,2921.94 598.094,2912.45 592.5,2906.35C533.422,2841.9 547.137,2773.55 574.864,2704.07C605.396,2627.56 652.262,2549.44 655.029,2472.9C658.404,2379.53 606.443,2294.17 566.303,2205.43C528.916,2122.77 502.464,2036.75 552.773,1936.13C556.475,1928.72 553.469,1919.71 546.064,1916C538.66,1912.3 529.642,1915.31 525.94,1922.71Z" style="fill:rgb(201,183,96);"/>
                <path d="M1576.6,2331.59C1555.45,2395.02 1523.36,2455.67 1505.38,2519.86C1473.78,2632.74 1475.84,2787.45 1533.01,2892.27C1536.98,2899.54 1546.1,2902.22 1553.36,2898.26C1560.63,2894.29 1563.31,2885.18 1559.35,2877.91C1505.63,2779.42 1504.58,2634.01 1534.27,2527.95C1552.12,2464.22 1584.07,2404.05 1605.06,2341.08C1607.67,2333.22 1603.42,2324.72 1595.57,2322.11C1587.72,2319.49 1579.21,2323.74 1576.6,2331.59Z" style="fill:rgb(201,183,96);"/>
                <path d="M451.476,2136.29C451.476,2204.66 470.369,2269.34 489.244,2333.85C507.301,2395.56 525.361,2457.1 524.529,2521.99C523.723,2584.83 504.046,2645.19 486.996,2705.78C469.03,2769.63 453.937,2833.72 463.245,2900.74C464.384,2908.94 471.966,2914.68 480.166,2913.54C488.366,2912.4 494.099,2904.82 492.96,2896.62C484.233,2833.78 499.03,2773.77 515.874,2713.91C533.634,2650.79 553.687,2587.83 554.526,2522.38C555.397,2454.48 536.931,2390 518.037,2325.42C499.96,2263.64 481.476,2201.77 481.476,2136.29C481.476,2128.01 474.755,2121.29 466.476,2121.29C458.198,2121.29 451.476,2128.01 451.476,2136.29Z" style="fill:rgb(140,120,49);"/>
                <path d="M1436.21,1273.63C1436.21,1330.04 1398.72,1381.88 1372.36,1428.65C1319.24,1522.9 1306.74,1638.15 1331.3,1742.5C1333.19,1750.56 1341.28,1755.57 1349.33,1753.67C1357.39,1751.77 1362.39,1743.69 1360.5,1735.63C1337.64,1638.47 1349.03,1531.13 1398.49,1443.38C1427.23,1392.4 1466.21,1335.12 1466.21,1273.63C1466.21,1265.36 1459.49,1258.63 1451.21,1258.63C1442.93,1258.63 1436.21,1265.36 1436.21,1273.63Z" style="fill:rgb(140,120,49);"/>
                <path d="M1640.86,2509.05C1690.78,2459.13 1752.99,2410.89 1793.56,2353.34C1841.7,2285.04 1850.22,2207.1 1840.86,2128.28C1831.82,2052.26 1806.06,1975.47 1785.19,1906.59C1782.79,1898.67 1774.41,1894.18 1766.48,1896.59C1758.56,1898.99 1754.08,1907.37 1756.48,1915.29C1776.87,1982.58 1802.24,2057.55 1811.07,2131.82C1819.56,2203.28 1812.69,2274.13 1769.04,2336.05C1729.42,2392.25 1668.4,2439.09 1619.65,2487.84C1613.79,2493.7 1613.79,2503.2 1619.65,2509.05C1625.5,2514.91 1635.01,2514.91 1640.86,2509.05Z" style="fill:rgb(140,120,49);"/>
                <path d="M1540.46,2270.39C1485.87,2352.28 1420.98,2450.53 1386.13,2552.52C1350.18,2657.75 1345.99,2766.89 1414.2,2867.2C1418.85,2874.04 1428.19,2875.82 1435.04,2871.17C1441.88,2866.51 1443.66,2857.17 1439.01,2850.33C1376.58,2758.52 1381.62,2658.53 1414.52,2562.22C1448.54,2462.68 1512.14,2366.95 1565.42,2287.03C1570.01,2280.15 1568.15,2270.83 1561.26,2266.23C1554.37,2261.64 1545.05,2263.51 1540.46,2270.39Z" style="fill:rgb(140,120,49);"/>
                <path d="M1809.86,2890.35C1796.37,2863.37 1752.03,2777.32 1719.12,2721.23C1704.02,2695.5 1690.84,2675.87 1683.8,2669.43C1652.59,2640.88 1624.72,2654.72 1600.61,2671.06C1595.32,2674.64 1590.28,2678.27 1585.48,2681.02C1582.63,2682.65 1580.22,2684.41 1577.72,2684.15C1576.24,2683.99 1575.73,2682.18 1574.46,2680.07C1565.28,2664.78 1563.57,2646.19 1564.63,2628.7C1565.13,2620.44 1558.83,2613.32 1550.57,2612.82C1542.31,2612.32 1535.19,2618.62 1534.69,2626.89C1533.27,2650.31 1536.45,2675.02 1548.74,2695.5C1555.71,2707.12 1563.86,2711.98 1571.89,2713.57C1582.19,2715.62 1593.99,2711.41 1606.28,2703.43C1614.24,2698.27 1622.79,2691.58 1632,2687.11C1641.58,2682.45 1652.12,2681.11 1663.55,2691.57C1669.59,2697.09 1680.29,2714.34 1693.25,2736.42C1725.81,2791.91 1769.68,2877.07 1783.03,2903.76C1786.73,2911.17 1795.75,2914.18 1803.15,2910.47C1810.56,2906.77 1813.56,2897.75 1809.86,2890.35Z" style="fill:rgb(140,120,49);"/>
                <path d="M823.669,1607.29C823.669,1683.91 806.73,1792.93 804.966,1891.84C803.741,1960.51 810.008,2024.42 832.717,2070.6C847.334,2100.32 869.368,2124.64 891.35,2149.03C911.373,2171.25 931.381,2193.52 943.924,2221.29C947.331,2228.84 956.223,2232.2 963.768,2228.79C971.313,2225.38 974.673,2216.49 971.265,2208.94C957.426,2178.3 935.727,2153.46 913.636,2128.95C893.507,2106.61 873.023,2084.57 859.638,2057.36C838.696,2014.78 833.831,1955.7 834.961,1892.37C836.729,1793.28 853.669,1684.05 853.669,1607.29C853.669,1599.01 846.948,1592.29 838.669,1592.29C830.39,1592.29 823.669,1599.01 823.669,1607.29Z" style="fill:rgb(140,120,49);"/>
                <path d="M533.567,751.343C548.209,809.914 562.866,880.884 531.107,935.741C506.894,977.563 482.85,1006.96 477.1,1057.43C470.658,1113.98 479.399,1172.8 479.178,1229.51C478.974,1282.09 470.838,1332.88 431.187,1377.49C425.687,1383.67 426.245,1393.16 432.433,1398.66C438.62,1404.16 448.109,1403.61 453.609,1397.42C498.66,1346.74 508.946,1289.37 509.178,1229.62C509.394,1174 500.587,1116.3 506.907,1060.83C512.13,1014.98 535.074,988.765 557.07,950.772C592.681,889.262 579.089,809.741 562.671,744.067C560.663,736.035 552.512,731.145 544.481,733.153C536.449,735.161 531.559,743.312 533.567,751.343Z" style="fill:rgb(140,120,49);"/>
                <path d="M713.502,2235.72C709.403,2244.82 708.278,2255.73 708.006,2265.54C706.649,2314.39 719.396,2362.84 719.396,2411.54C719.396,2419.82 712.674,2426.54 704.396,2426.54C696.117,2426.54 689.396,2419.82 689.396,2411.54C689.396,2362.56 676.653,2313.83 678.017,2264.7C678.43,2249.85 680.902,2233.36 687.791,2219.98C695.593,2204.84 705.054,2199.99 712.147,2199.35C720.511,2198.6 730.039,2202.91 737.327,2214.88C754.303,2242.76 765.378,2327.78 763.325,2358.99C756.995,2455.21 700.454,2542.4 669.222,2629.61C640.243,2710.52 635.194,2791.62 725.175,2881.6C731.029,2887.45 731.029,2896.96 725.175,2902.81C719.321,2908.67 709.816,2908.67 703.962,2902.81C602.789,2801.64 608.395,2710.47 640.979,2619.49C671.311,2534.8 727.241,2450.47 733.389,2357.02C734.704,2337.04 730.164,2292.42 721.986,2259.44C719.953,2251.24 716.249,2242.01 713.502,2235.72Z" style="fill:rgb(140,120,49);"/>
                <path d="M1676.16,885.606C1676.16,951.606 1671.78,1019.35 1684.43,1084.42C1686.01,1092.54 1693.89,1097.86 1702.02,1096.28C1710.15,1094.7 1715.46,1086.82 1713.88,1078.69C1701.59,1015.5 1706.16,949.701 1706.16,885.606C1706.16,877.327 1699.44,870.606 1691.16,870.606C1682.89,870.606 1676.16,877.327 1676.16,885.606Z" style="fill:rgb(140,120,49);"/>
                <path d="M1219.24,96.963C1228.88,77.679 1247.05,71.822 1267.25,71.666C1304.52,71.378 1348.48,89.407 1375.83,99.351C1383.61,102.18 1392.22,98.161 1395.05,90.38C1397.88,82.6 1393.86,73.986 1386.08,71.157C1356.14,60.271 1307.82,41.352 1267.02,41.667C1235.17,41.913 1207.61,53.143 1192.41,83.546C1188.71,90.951 1191.71,99.968 1199.12,103.671C1206.52,107.373 1215.54,104.367 1219.24,96.963Z" style="fill:rgb(140,120,49);"/>
                <path d="M1102.23,57.69C1090.2,53.679 1079.68,46.802 1068.9,40.363C1055.81,32.544 1042.41,25.284 1026.87,21.904C918.056,-1.75 845.122,45.82 780.017,126.426C774.815,132.866 775.821,142.318 782.261,147.52C788.701,152.722 798.153,151.717 803.355,145.276C860.826,74.121 924.441,30.339 1020.49,51.22C1032.76,53.886 1043.19,59.948 1053.52,66.118C1066.16,73.668 1078.64,81.448 1092.75,86.151C1100.6,88.769 1109.1,84.518 1111.72,76.664C1114.34,68.81 1110.09,60.308 1102.23,57.69Z" style="fill:rgb(140,120,49);"/>
                <path d="M1801.65,1304.85C1772.86,1348.03 1755.09,1416.2 1747.49,1490.3C1736.26,1599.74 1746.85,1722.01 1772.94,1792.99C1784.71,1824.99 1807.66,1850.42 1831.77,1875.3C1853.31,1897.52 1875.81,1919.26 1889.3,1946.68C1949.52,2069.05 1964.39,2252.71 1883.43,2368.97C1858.51,2404.74 1823.44,2430.65 1788.77,2456.36C1734.86,2496.32 1683.98,2534.72 1621.38,2560.15C1613.71,2563.26 1610.01,2572.02 1613.13,2579.69C1616.24,2587.36 1625,2591.06 1632.67,2587.94C1697.66,2561.54 1750.66,2521.95 1806.64,2480.45C1843.91,2452.82 1881.26,2424.58 1908.05,2386.12C1994.85,2261.48 1980.77,2064.62 1916.22,1933.43C1901.36,1903.23 1877.04,1878.9 1853.31,1854.42C1832.16,1832.59 1811.42,1810.71 1801.1,1782.64C1776.17,1714.81 1766.6,1597.94 1777.33,1493.36C1784.37,1424.79 1799.97,1361.46 1826.62,1321.49C1831.21,1314.6 1829.34,1305.28 1822.45,1300.69C1815.57,1296.09 1806.25,1297.96 1801.65,1304.85Z" style="fill:rgb(201,183,96);"/>
                <path d="M1517.86,284.085C1519.56,287.038 1528.52,302.611 1529.22,303.927C1560.97,363.757 1592.1,424.027 1619.99,485.778C1679.55,617.651 1685.51,719.259 1642.78,859.11C1640.36,867.027 1631.96,871.491 1624.05,869.072C1616.13,866.653 1611.66,858.261 1614.08,850.343C1654.4,718.403 1648.84,622.539 1592.65,498.126C1565.02,436.954 1534.17,377.256 1502.72,317.988C1501.72,316.098 1490.21,296.976 1488.82,292.241C1486.34,283.815 1490.44,278.62 1492.56,276.501C1498.41,270.647 1507.92,270.647 1513.77,276.501C1515.93,278.655 1517.29,281.304 1517.86,284.085ZM1514.6,296.817L1514.31,297.149L1514.33,297.129L1514.6,296.817ZM1515.09,296.209L1514.82,296.558L1514.86,296.504L1515.09,296.209ZM1515.52,295.616L1515.3,295.925L1515.37,295.837L1515.52,295.616ZM1515.92,295.004L1515.78,295.225L1515.85,295.126L1515.92,295.004ZM1516.29,294.362L1516.28,294.381L1516.29,294.369L1516.29,294.362Z" style="fill:rgb(218,196,119);"/>
                <path d="M1102.1,195.807C1101.93,195.636 1104.25,193.59 1104.4,193.439C1106.66,191.293 1108.84,189.079 1110.82,186.667C1116.33,179.949 1121.11,172.612 1124.84,164.762C1138.16,136.741 1149.89,112.675 1143.51,80.768" style="fill:rgb(218,196,119);"/>
                <path d="M1113.82,205.161C1113.48,205.595 1113.11,206.013 1112.7,206.413C1106.85,212.267 1097.35,212.267 1091.49,206.413C1088.56,203.48 1084.15,197.187 1089,188.435C1089.61,187.333 1093.73,182.891 1094.07,182.564C1095.88,180.846 1097.64,179.084 1099.22,177.152C1103.96,171.375 1108.09,165.073 1111.3,158.322C1123.16,133.363 1134.49,112.129 1128.8,83.71C1127.18,75.592 1132.45,67.683 1140.57,66.059C1148.69,64.436 1156.6,69.708 1158.22,77.826C1165.3,113.224 1153.17,140.115 1138.39,171.202C1134.13,180.151 1128.7,188.524 1122.41,196.182C1120.04,199.074 1117.44,201.741 1114.74,204.314L1113.82,205.161Z" style="fill:rgb(218,196,119);"/>
            </g>
        </g>
        <path d="M1137.02,24.961C1137.02,24.961 1107.14,27.477 1051.8,16.157C996.456,4.838 974.863,-4.043 932.1,7.084C889.336,18.21 853.808,29.771 828.693,48.446C803.578,67.121 698.612,138.601 665.77,206.861C632.928,275.122 622.624,288.001 614.253,320.843C605.881,353.685 543.038,514.692 529.203,603.992C515.368,693.291 483.924,865.602 471.347,922.201C458.769,978.799 471.819,1101.59 444.305,1162.51C416.792,1223.43 363.731,1364.93 326.392,1435.67C289.053,1506.42 224.2,1649.88 230.096,1744.21C235.992,1838.55 239.922,1889.64 273.331,1954.49C306.74,2019.35 316.566,2025.24 338.183,2078.3C359.801,2131.36 353.905,2105.82 359.801,2166.74C365.696,2227.66 369.595,2178.86 372.614,2141.63C375.633,2104.4 366.577,2079.25 352.49,2049.06C338.403,2018.87 317.273,1978.63 311.236,1930.33C305.199,1882.03 276.019,1781.41 284.069,1712.99C292.119,1644.57 314.255,1583.19 333.372,1544.96C352.49,1506.72 354.503,1494.63 369.595,1472C384.688,1449.37 412.862,1478.55 396.763,1530.87C380.664,1583.19 372.614,1648.59 375.633,1691.86C378.651,1735.13 370.602,1765.31 381.67,1809.59C392.738,1853.86 390.726,1971.58 410.849,2021.89C430.973,2072.2 421.918,2101.38 418.899,2119.49C415.88,2137.61 396.763,2287.53 399.781,2318.72C402.8,2349.91 379.639,2490.68 381.211,2559.86C382.783,2629.03 387.5,2753.23 404.794,2838.13C422.088,2923.03 404.794,2944.53 440.954,2944C477.114,2943.47 760.106,2950.82 824.565,2944C889.025,2937.18 884.308,2926.17 862.298,2864.86C840.287,2803.54 849.117,2790.23 856.978,2757.21C864.839,2724.2 883.705,2659.74 896.282,2618.86C908.86,2577.98 921.437,2507.24 913.576,2452.21C905.715,2397.18 908.86,2372.03 916.72,2337.44C924.581,2302.85 927.726,2313.86 943.448,2353.16C959.169,2392.47 963.886,2453.78 967.03,2405.04C970.175,2356.31 972.223,2263.11 993.34,2342.73C998.039,2360.44 1000.33,2364.08 1005.48,2388.55C1010.63,2413.02 1015.14,2457.45 1014.5,2489.65C1013.85,2521.85 1013.21,2535.37 1000.97,2589.46C988.739,2643.55 944.87,2746.43 926.918,2766.55C905.667,2790.38 876.045,2864.43 903.736,2824.51C931.426,2784.58 953.321,2778.79 968.132,2742.73C982.943,2706.66 977.576,2701.61 990.657,2673.43C1003.74,2645.26 1022.86,2582.88 1026.88,2559.73C1030.9,2536.59 1043.99,2452.07 1038.95,2413.83C1033.92,2375.6 1043.99,2305.16 1025.87,2265.92C1007.76,2226.68 979.589,2110.86 972.545,2092.86C965.502,2074.86 957.855,2051.92 975.242,2080.89C992.629,2109.87 1006.15,2137.56 1011.3,2153.02C1016.46,2168.47 1049.94,2223.86 1058.31,2243.82C1066.68,2263.78 1085.36,2293.4 1092.44,2322.38C1099.53,2351.36 1102.38,2376.1 1108.64,2400.43C1115.5,2427.09 1115.63,2466.24 1111.51,2493.03C1107.38,2519.82 1102.75,2544.03 1096.05,2559.49C1089.35,2574.94 1026.5,2671.28 1007.96,2679.52C989.409,2687.77 976.746,2728.12 991.985,2711.98C1009.5,2693.43 1009.5,2691.89 1028.56,2673.86C1047.62,2655.83 1097.53,2595.55 1104,2578.55C1110.57,2561.31 1131.08,2489.94 1127.99,2452.33C1124.9,2414.73 1127.22,2385.36 1122.2,2360.12C1117.17,2334.87 1104.81,2276.14 1090.38,2244.72C1075.96,2213.29 1044.02,2117.99 1033.71,2099.44C1023.41,2080.89 1012.08,2038.65 986.318,1992.8C960.56,1946.95 970.348,1934.07 957.984,1889.25C945.62,1844.43 941.054,1836.12 939.671,1831.61C936.86,1822.43 919.973,1801.86 905.378,1773.04C890.467,1743.6 880.041,1710.56 879.041,1707.56C877.063,1701.63 890.457,1673.4 895.094,1657.43C897.499,1649.15 904.245,1624.09 903.231,1596.21C902.29,1570.34 893.738,1542.04 892.003,1522.46C888.048,1477.82 790.471,1269.23 786.393,1258.69C780.21,1242.72 764.755,1198.93 751.876,1174.71C738.997,1150.5 725.708,1121.69 721.772,1087.84C717.764,1053.36 716.383,942.027 702.473,894.631C688.563,847.235 696.172,824.627 688.928,801.284C681.683,777.94 700.34,731.179 707.585,698.98C714.83,666.782 714.904,655.513 723.595,620.9C732.287,586.287 777.957,479.455 808.123,435.182C838.289,390.91 920.511,302.341 961.564,285.437C1002.62,268.533 1061.31,223.155 1094.32,220.923C1127.32,218.69 1169.4,225.103 1224.43,235.889C1279.21,246.628 1282.05,247.055 1317.43,260.359C1357.79,275.532 1441.98,316.446 1472.37,349.278C1496.29,375.108 1560.7,484.039 1565.46,510.868C1570.1,537.022 1585.6,661.728 1585.1,676.565C1584.61,691.402 1584.33,692.636 1582.56,709.384C1581.52,719.276 1563.03,687.498 1547.64,775.723C1532.47,862.698 1532.39,917.717 1532.39,934.822C1532.39,951.927 1541,954.262 1541,971.649C1541,989.036 1428.71,1204.91 1448.5,1224.05C1457.93,1233.16 1433.6,1245.6 1425.88,1267.56C1418.27,1289.22 1373.96,1350.76 1368.73,1360.54C1362.54,1372.07 1302.37,1466.14 1296.6,1509.78C1290.83,1553.41 1233.67,1648.01 1270.75,1724.55C1290.81,1765.95 1309.42,1767.13 1314.45,1794.8C1319.48,1822.47 1310.01,1853.99 1324.54,1872.08C1330.08,1878.99 1333.67,1881.24 1341.37,1884.9C1356.65,1892.17 1375.07,1893.42 1386.34,1917.57C1397.61,1941.72 1395.2,1969.08 1387.15,2000.48C1379.1,2031.87 1358.17,2130.07 1346.9,2164.69C1335.63,2199.3 1324.36,2289.46 1317.92,2328.09C1311.48,2366.73 1292.16,2441.59 1296.19,2472.99C1300.21,2504.38 1286.53,2534.16 1280.09,2581.66C1273.65,2629.15 1270.43,2674.22 1276.87,2708.84C1283.31,2743.45 1277.67,2786.92 1284.92,2813.48C1292.16,2840.05 1290.55,2873.05 1294.58,2855.34C1298.6,2837.63 1308.26,2831.19 1303.43,2790.94C1298.6,2750.7 1293.77,2679.05 1296.99,2638C1300.21,2596.95 1299.41,2547.04 1305.85,2587.29C1312.29,2627.54 1313.09,2690.32 1313.89,2710.45C1314.7,2730.57 1313.89,2807.04 1310.68,2829.58C1307.46,2852.12 1297.8,2882.71 1292.97,2908.47C1288.14,2934.22 1260.77,2944.12 1296.19,2944C1331.6,2943.88 1835.25,2952.8 1852.86,2944C1870.47,2935.2 1846.57,2870.73 1832.74,2830.49C1818.9,2790.24 1793.48,2777.5 1795.45,2730.34C1797.41,2683.17 1791.52,2557.4 1817.07,2624.22C1842.61,2691.03 1840.65,2677.28 1848.51,2730.34C1856.37,2783.4 1881.92,2822.7 1899.61,2858.08C1917.29,2893.45 1982.14,2932.76 1966.42,2860.04C1950.7,2787.33 1929.08,2716.58 1964.46,2771.61C1999.83,2826.63 2021.45,2881.66 2047,2903.28C2072.55,2924.89 2059.07,2900.29 2043.98,2871.11C2028.89,2841.93 1977.57,2780.55 1971.53,2746.34C1965.5,2712.13 1963.48,2683.96 1967.51,2642.7C1971.53,2601.45 1968.51,2508.88 1954.43,2480.71C1940.34,2452.53 1940.68,2461.53 1924.24,2438.45C1906.01,2412.85 1912.17,2417.32 1931.29,2386.13C1950.4,2354.93 1991.09,2263.87 1993.61,2226.14C1996.12,2188.41 2021.28,2109.17 1994.87,2016.1C1968.45,1923.03 1990.61,1861.23 1958.67,1787.54C1926.74,1713.84 1943.5,1560.84 1911.57,1494.68C1879.63,1428.53 1881.95,1323.24 1879.5,1261.82C1877.04,1200.41 1839.53,1153.43 1785.17,1087.19C1754.66,1050.03 1750.13,1057.28 1747.61,1023.32C1745.1,989.362 1730,897.547 1726.23,832.144C1722.45,766.742 1703.3,618.311 1682.21,566.761C1659.57,511.42 1662.08,461.111 1652.02,438.471C1641.96,415.832 1614.52,341.305 1610.52,316.47C1608.01,300.89 1612.34,298.017 1612.47,283.485C1612.67,262.743 1585.36,210.82 1569.01,185.665C1552.66,160.51 1503.61,100.139 1475.94,86.304C1448.27,72.468 1365.26,33.478 1321.24,27.19C1277.21,20.901 1231.94,18.386 1213.07,20.901C1194.2,23.417 1172.82,25.932 1160.25,29.705C1147.67,33.478 1137.02,24.961 1137.02,24.961Z" style="fill:none;stroke:rgb(79,67,22);stroke-width:6.67px;"/>
        <path d="M1107.83,218.51C1144.11,216.515 1248.19,237.166 1298.35,250.481C1331.6,259.308 1448.75,317.282 1477.2,351.89C1502.66,382.854 1563.1,492.566 1567.93,519.934C1572.76,547.303 1587.25,688.17 1584.83,705.074C1582.42,721.978 1567.12,726.808 1561.49,734.858C1555.86,742.907 1530.1,926.437 1531.71,940.927C1533.32,955.416 1547.81,953.806 1547,963.465C1546.2,973.125 1514.8,1082.6 1505.14,1109.16C1495.48,1135.73 1476.91,1179.79 1472.14,1188.85C1464.09,1204.15 1444.77,1246.81 1427.06,1266.13C1409.35,1285.45 1343.35,1364.33 1332.08,1377.21C1320.81,1390.09 1248.75,1468.32 1228.24,1481.86C1206.87,1495.96 1179.85,1501.79 1162.95,1505.01C1146.04,1508.23 1114.85,1511.58 1079.32,1502.3C1036.46,1491.11 964.213,1440.32 940.065,1415.37C915.916,1390.41 823.346,1297.84 802.417,1267.25C781.488,1236.67 728.405,1131.61 721.117,1099.02C712.432,1060.18 710.357,996.917 703.881,957.738C697.288,917.855 692.578,854.22 689.559,819.004C686.541,783.787 694.574,735.439 708.724,683.557C722.874,631.675 744.884,535.772 770.039,491.751C795.194,447.73 877.781,349.163 920.23,314.575C962.679,279.987 1008.88,258.136 1034.61,243.476C1059.96,229.031 1081.03,219.984 1107.83,218.51Z" style="fill:rgb(247,208,159);"/>
        <clipPath id="_clip3">
            <path d="M1107.83,218.51C1144.11,216.515 1248.19,237.166 1298.35,250.481C1331.6,259.308 1448.75,317.282 1477.2,351.89C1502.66,382.854 1563.1,492.566 1567.93,519.934C1572.76,547.303 1587.25,688.17 1584.83,705.074C1582.42,721.978 1567.12,726.808 1561.49,734.858C1555.86,742.907 1530.1,926.437 1531.71,940.927C1533.32,955.416 1547.81,953.806 1547,963.465C1546.2,973.125 1514.8,1082.6 1505.14,1109.16C1495.48,1135.73 1476.91,1179.79 1472.14,1188.85C1464.09,1204.15 1444.77,1246.81 1427.06,1266.13C1409.35,1285.45 1343.35,1364.33 1332.08,1377.21C1320.81,1390.09 1248.75,1468.32 1228.24,1481.86C1206.87,1495.96 1179.85,1501.79 1162.95,1505.01C1146.04,1508.23 1114.85,1511.58 1079.32,1502.3C1036.46,1491.11 964.213,1440.32 940.065,1415.37C915.916,1390.41 823.346,1297.84 802.417,1267.25C781.488,1236.67 728.405,1131.61 721.117,1099.02C712.432,1060.18 710.357,996.917 703.881,957.738C697.288,917.855 692.578,854.22 689.559,819.004C686.541,783.787 694.574,735.439 708.724,683.557C722.874,631.675 744.884,535.772 770.039,491.751C795.194,447.73 877.781,349.163 920.23,314.575C962.679,279.987 1008.88,258.136 1034.61,243.476C1059.96,229.031 1081.03,219.984 1107.83,218.51Z"/>
        </clipPath>
        <g clip-path="url(#_clip3)">
            <path d="M1151.81,1227.7C1151.81,1227.7 1170.76,1220.64 1189.93,1216.62C1208.71,1212.68 1222.08,1211.95 1237.02,1213.49C1251.96,1215.04 1261.3,1214.26 1273.86,1214.47C1286.04,1214.68 1301.37,1217.19 1307.44,1212.7C1313.5,1208.22 1332.68,1213.39 1323.68,1219.92C1312.92,1227.73 1284.06,1252.1 1277.3,1262.48C1273.88,1267.74 1232.47,1307.67 1202.64,1316.58C1187.45,1321.12 1159.12,1327.43 1145.52,1327.02C1131.92,1326.6 1111.66,1323.77 1083.22,1316.76C1054.78,1309.75 1048.63,1302.91 1026.37,1287.66C1004.11,1272.41 983.76,1254.54 972.632,1241.35C961.505,1228.16 943.152,1215.57 939.854,1209.38C936.557,1203.2 932.024,1199.49 935.321,1194.13C938.618,1188.78 940.267,1192.9 947.273,1196.19C954.279,1199.49 963.131,1203.14 973.419,1204.83C983.838,1206.55 995.06,1205.07 1005.8,1204.03C1020.21,1202.62 1045.91,1206.99 1058.45,1207.63C1074.62,1208.46 1093.36,1211.44 1114.02,1219.69C1125.24,1224.16 1128.61,1225 1137.27,1227.7C1145.92,1230.4 1151.81,1227.7 1151.81,1227.7Z" style="fill:rgb(180,118,105);"/>
            <clipPath id="_clip4">
                <path d="M1151.81,1227.7C1151.81,1227.7 1170.76,1220.64 1189.93,1216.62C1208.71,1212.68 1222.08,1211.95 1237.02,1213.49C1251.96,1215.04 1261.3,1214.26 1273.86,1214.47C1286.04,1214.68 1301.37,1217.19 1307.44,1212.7C1313.5,1208.22 1332.68,1213.39 1323.68,1219.92C1312.92,1227.73 1284.06,1252.1 1277.3,1262.48C1273.88,1267.74 1232.47,1307.67 1202.64,1316.58C1187.45,1321.12 1159.12,1327.43 1145.52,1327.02C1131.92,1326.6 1111.66,1323.77 1083.22,1316.76C1054.78,1309.75 1048.63,1302.91 1026.37,1287.66C1004.11,1272.41 983.76,1254.54 972.632,1241.35C961.505,1228.16 943.152,1215.57 939.854,1209.38C936.557,1203.2 932.024,1199.49 935.321,1194.13C938.618,1188.78 940.267,1192.9 947.273,1196.19C954.279,1199.49 963.131,1203.14 973.419,1204.83C983.838,1206.55 995.06,1205.07 1005.8,1204.03C1020.21,1202.62 1045.91,1206.99 1058.45,1207.63C1074.62,1208.46 1093.36,1211.44 1114.02,1219.69C1125.24,1224.16 1128.61,1225 1137.27,1227.7C1145.92,1230.4 1151.81,1227.7 1151.81,1227.7Z"/>
            </clipPath>
            <g clip-path="url(#_clip4)">
                <path d="M1302.63,1221.84C1301.11,1221.84 1299.37,1222.4 1297.65,1223.27C1295.56,1224.33 1293.48,1225.84 1292.05,1226.81C1285.28,1231.42 1279.68,1236.7 1271.58,1239.32C1259.06,1243.36 1248.9,1246.76 1235.78,1247.25C1225.62,1247.63 1213.71,1247.28 1203.75,1249.81C1197.41,1251.41 1191.98,1255.28 1186.53,1259.16C1181.6,1262.67 1176.66,1266.21 1170.75,1267.55C1149.56,1272.35 1119.72,1270.31 1099.74,1262.49C1094.05,1260.26 1089.36,1257.12 1084.6,1254.14C1079.51,1250.95 1074.36,1247.95 1068.04,1246.19C1056.25,1242.92 1042.77,1243.96 1030.7,1241.79C1021.77,1240.17 1007.4,1236.15 999.135,1232.76C991.176,1229.5 980.034,1218.7 972.367,1214.74C962.266,1209.52 965.819,1211.08 956.34,1207.66C955.042,1207.2 953.608,1207.87 953.141,1209.17C952.673,1210.47 953.347,1211.9 954.646,1212.37C963.77,1215.66 960.349,1214.16 970.072,1219.18C977.843,1223.2 989.173,1234.08 997.239,1237.38C1005.77,1240.88 1020.59,1245.04 1029.81,1246.71C1041.73,1248.86 1055.06,1247.78 1066.71,1251.01C1072.52,1252.63 1077.26,1255.44 1081.94,1258.38C1086.96,1261.52 1091.92,1264.8 1097.91,1267.14C1118.73,1275.29 1149.8,1277.42 1171.85,1272.42C1178.41,1270.94 1183.96,1267.13 1189.43,1263.23C1194.37,1259.71 1199.24,1256.11 1204.98,1254.65C1214.61,1252.21 1226.14,1252.62 1235.97,1252.25C1249.58,1251.74 1260.13,1248.27 1273.12,1244.08C1281.7,1241.31 1287.69,1235.82 1294.86,1230.95C1296.15,1230.07 1298.02,1228.69 1299.91,1227.73C1300.86,1227.25 1301.79,1226.84 1302.63,1226.84C1304.01,1226.84 1305.13,1225.72 1305.13,1224.34C1305.13,1222.96 1304.01,1221.84 1302.63,1221.84Z" style="fill:rgb(119,70,60);"/>
            </g>
            <path d="M1151.81,1227.7C1151.81,1227.7 1170.76,1220.64 1189.93,1216.62C1208.71,1212.68 1222.08,1211.95 1237.02,1213.49C1251.96,1215.04 1261.3,1214.26 1273.86,1214.47C1286.04,1214.68 1301.37,1217.19 1307.44,1212.7C1313.5,1208.22 1332.68,1213.39 1323.68,1219.92C1312.92,1227.73 1284.06,1252.1 1277.3,1262.48C1273.88,1267.74 1232.47,1307.67 1202.64,1316.58C1187.45,1321.12 1159.12,1327.43 1145.52,1327.02C1131.92,1326.6 1111.66,1323.77 1083.22,1316.76C1054.78,1309.75 1048.63,1302.91 1026.37,1287.66C1004.11,1272.41 983.76,1254.54 972.632,1241.35C961.505,1228.16 943.152,1215.57 939.854,1209.38C936.557,1203.2 932.024,1199.49 935.321,1194.13C938.618,1188.78 940.267,1192.9 947.273,1196.19C954.279,1199.49 963.131,1203.14 973.419,1204.83C983.838,1206.55 995.06,1205.07 1005.8,1204.03C1020.21,1202.62 1045.91,1206.99 1058.45,1207.63C1074.62,1208.46 1093.36,1211.44 1114.02,1219.69C1125.24,1224.16 1128.61,1225 1137.27,1227.7C1145.92,1230.4 1151.81,1227.7 1151.81,1227.7Z" style="fill:none;stroke:rgb(171,102,88);stroke-width:3px;"/>
        </g>
        <path d="M1107.83,218.51C1144.11,216.515 1248.19,237.166 1298.35,250.481C1331.6,259.308 1448.75,317.282 1477.2,351.89C1502.66,382.854 1563.1,492.566 1567.93,519.934C1572.76,547.303 1587.25,688.17 1584.83,705.074C1582.42,721.978 1567.12,726.808 1561.49,734.858C1555.86,742.907 1530.1,926.437 1531.71,940.927C1533.32,955.416 1547.81,953.806 1547,963.465C1546.2,973.125 1514.8,1082.6 1505.14,1109.16C1495.48,1135.73 1476.91,1179.79 1472.14,1188.85C1464.09,1204.15 1444.77,1246.81 1427.06,1266.13C1409.35,1285.45 1343.35,1364.33 1332.08,1377.21C1320.81,1390.09 1248.75,1468.32 1228.24,1481.86C1206.87,1495.96 1179.85,1501.79 1162.95,1505.01C1146.04,1508.23 1114.85,1511.58 1079.32,1502.3C1036.46,1491.11 964.213,1440.32 940.065,1415.37C915.916,1390.41 823.346,1297.84 802.417,1267.25C781.488,1236.67 728.405,1131.61 721.117,1099.02C712.432,1060.18 710.357,996.917 703.881,957.738C697.288,917.855 692.578,854.22 689.559,819.004C686.541,783.787 694.574,735.439 708.724,683.557C722.874,631.675 744.884,535.772 770.039,491.751C795.194,447.73 877.781,349.163 920.23,314.575C962.679,279.987 1008.88,258.136 1034.61,243.476C1059.96,229.031 1081.03,219.984 1107.83,218.51Z" style="fill:none;stroke:rgb(80,67,22);stroke-width:4.84px;"/>
        <path d="M1271.93,727.035C1267.84,720.133 1266.56,716.128 1272.61,705.189C1277.74,695.914 1288.25,690.037 1301.28,684.026C1314.6,677.882 1334.13,665.626 1353.93,662.895C1373.73,660.165 1387.85,654.908 1402.14,656.014C1411.69,656.753 1422.53,655.164 1424.52,654.94C1432.75,654.016 1459.26,649.384 1466.1,649.373C1472.75,649.362 1490.73,651.221 1499.47,651.92C1508.21,652.619 1524.27,669.484 1527.97,677.685C1531.7,685.957 1531.42,699.683 1530.77,703.9C1530.07,708.444 1515.01,707.001 1508.02,706.442C1501.03,705.883 1496.06,701.655 1490.75,691.308C1485.43,680.962 1476.2,675.327 1463.23,674.644C1450.26,673.961 1419.65,687.024 1409.58,689.614C1403.17,691.263 1398.04,691.318 1385.11,694.114C1372.17,696.911 1356.09,705.299 1350.85,708.795C1345.61,712.29 1337.22,712.989 1333.03,717.533C1328.83,722.077 1316.88,724.178 1303.31,729.417C1289.69,734.682 1275.93,733.809 1271.93,727.035Z" style="fill:rgb(140,120,49);"/>
        <path d="M1088.38,710.985C1091.15,700.503 1083.35,673.391 1061.07,664.904C1041.08,657.29 1008.13,643.119 998.083,641.808C988.034,640.498 965.314,639.187 946.964,638.75C928.613,638.313 924.412,637.982 910.612,635.866C897.504,633.856 878.846,632.958 863.467,640.211C855.093,644.16 827.073,655.353 816.587,661.47C806.101,667.587 798.554,673.81 792.831,680.529C786.855,687.546 783.545,692.576 789.687,695.329C801.614,700.676 815.626,688.384 833.976,681.83C852.327,675.276 861.502,669.422 869.804,666.363C878.105,663.305 890.164,659.722 899.34,660.596C908.515,661.47 920.928,663.001 932.545,668.024C945.132,673.465 977.111,681.699 991.529,690.153C1005.95,698.608 1010.4,705.162 1023.03,710.405C1035.66,715.648 1059.68,724.133 1067.12,727.008C1075.43,730.222 1085.99,719.999 1088.38,710.985Z" style="fill:rgb(140,120,49);"/>
        <path d="M723.549,828.873C723.549,828.873 727.769,853.843 734.1,870.021C740.43,886.199 751.333,907.3 759.773,916.092C768.214,924.885 796.349,941.062 810.065,945.634C823.781,950.206 874.424,958.998 893.415,959.702C912.407,960.405 955.313,963.219 977.821,960.405C1000.33,957.592 1024.95,953.371 1033.74,948.096C1042.53,942.821 1057.5,933.232 1065.04,925.588C1071.93,918.605 1075.78,914.652 1081.8,904.993C1087.64,895.626 1094.02,882.44 1097.88,871.955C1101.75,861.471 1111.41,835.383 1115.27,817.359C1119.12,799.335 1127.47,786.146 1141.98,777.794C1156.48,769.441 1206.16,773.398 1218.03,774.277C1229.9,775.156 1237.81,805.489 1240.45,815.161C1243.09,824.832 1250.56,862.639 1252.32,869.233C1254.08,875.827 1261.55,895.17 1264.19,900.885C1266.83,906.6 1269.9,916.711 1276.5,925.503C1283.09,934.296 1299.28,946.864 1310.79,952.759C1322.38,958.697 1349.03,967.706 1364.86,969.025C1380.69,970.344 1423.36,974.378 1439.53,973.323C1455.71,972.268 1487.71,968.751 1502.13,963.475C1516.55,958.2 1559.23,945.483 1563.29,939.856C1567.34,934.229 1579.04,920.499 1584.44,911.271C1589.85,902.042 1605.6,867.38 1607.85,859.502C1610.1,851.624 1615.95,840.595 1616.18,835.193C1616.4,829.791 1626.2,804.976 1628.16,792.596C1630.13,780.217 1620.57,761.366 1616.91,750.956C1613.25,740.546 1568.24,720.008 1554.45,719.164C1540.66,718.32 1453.16,714.662 1440.22,715.506C1427.28,716.35 1372.13,723.102 1353,728.448C1333.87,733.794 1271.41,754.614 1258.19,761.648C1244.96,768.681 1214.3,770.932 1196.85,768.119C1179.41,765.305 1133.83,770.37 1127.64,771.776C1121.45,773.183 1063.21,745.048 1052.52,736.889C1041.83,728.73 920.565,705.94 905.372,702.845C890.179,699.75 804.367,698.344 786.079,700.876C767.791,703.408 712.084,718.882 708.989,726.197C705.894,733.513 710.396,779.936 714.616,790.064C718.836,800.193 723.549,828.873 723.549,828.873Z" style="fill:rgb(245,213,173);fill-opacity:0.45;stroke:rgb(71,42,36);stroke-width:3px;"/>
        <path d="M679.55,708.341C679.55,708.341 777.218,694.925 805.123,693.851C833.028,692.778 879.178,690.632 909.23,693.851C939.282,697.071 1032.66,720.683 1048.76,728.196C1064.86,735.709 1102.35,752.881 1115.27,763.614C1128.18,774.347 1128.58,765.924 1139.02,763.726C1149.46,761.528 1161.55,758.78 1170.89,758.78C1180.24,758.78 1213.21,760.978 1224.2,764.825C1235.19,768.671 1235.19,765.924 1241.78,762.627C1248.38,759.33 1315.55,730.48 1329.29,727.732C1343.03,724.985 1395.23,709.186 1413.78,708.499C1432.33,707.813 1505.55,704.928 1526.98,707.675C1548.41,710.423 1603.91,717.566 1621.5,723.062C1639.08,728.557 1650.62,730.755 1658.31,734.601C1666.01,738.448 1656.73,786.501 1651.17,797.246C1648.02,803.351 1645.45,800.14 1641.85,802.616C1638.25,805.092 1631.72,813.645 1629.7,818.821C1627.67,823.998 1625.19,836.378 1622.49,839.754C1619.79,843.13 1617.32,847.407 1613.94,846.281C1610.57,845.156 1615.29,819.947 1617.09,810.268C1618.89,800.59 1627,758.049 1608.99,749.046C1590.98,740.043 1577.93,732.165 1568.02,729.689C1558.12,727.213 1498.7,720.011 1484.52,720.461C1470.34,720.911 1399.44,724.512 1389.99,727.213C1380.53,729.914 1300.4,745.22 1287.8,752.422C1275.19,759.625 1274.97,759.625 1266.87,765.477C1258.76,771.329 1254.71,781.233 1252.24,787.31C1249.76,793.387 1245.59,809.362 1247.73,827.6C1248.81,836.783 1250.23,843.659 1251.49,848.521C1252.75,853.383 1257.97,869.229 1257.07,872.83C1256.17,876.431 1251.85,880.393 1245.01,867.068C1238.17,853.743 1234.93,841.679 1234.21,834.836C1233.49,827.994 1227.9,804.045 1225.56,798.643C1223.22,793.241 1216.2,784.778 1211.88,782.977C1207.56,781.177 1189.73,777.935 1183.79,778.476C1177.85,779.016 1156.6,779.196 1150.3,782.077C1143.99,784.958 1138.59,789.28 1134.45,795.942C1130.31,802.604 1125.45,831.595 1121.85,838.617C1118.24,845.64 1111.44,865.928 1109.6,868.688C1107.31,872.117 1101.68,878.232 1098.26,876.251C1094.84,874.27 1095.49,870.316 1098.6,864.439C1101.71,858.561 1106.08,839.618 1107.84,831.529C1109.6,823.44 1112.41,805.504 1111.01,797.063C1109.6,788.623 1105.38,770.686 1090.26,760.136C1075.13,749.585 1039.97,735.869 1030.47,733.407C1020.97,730.946 965.407,718.988 948.878,715.823C932.349,712.658 888.739,705.624 871.858,705.976C854.977,706.327 794.838,708.437 782.88,711.603C770.923,714.768 752.635,716.526 744.898,721.802C737.161,727.077 725.906,733.407 722.038,751.344C718.169,769.28 719.928,775.258 722.038,787.568C724.148,799.877 724.5,817.813 725.203,823.088C725.906,828.364 721.892,828.736 720.019,826.719C718.146,824.703 714.257,815.339 711.808,809.577C709.359,803.815 705.341,780.928 694.9,777.631C684.459,774.334 677.316,785.874 670.722,769.388C664.127,752.903 667.424,722.679 669.623,713.887C671.821,705.095 679.55,708.341 679.55,708.341Z" style="fill:rgb(71,42,36);stroke:rgb(71,42,36);stroke-width:3px;"/>
        <path d="M1560.9,745.902C1560.9,745.902 1586.22,743.089 1590.09,742.737C1593.96,742.385 1610.49,749.771 1612.95,755.749C1615.41,761.728 1619.98,772.982 1619.63,779.664C1619.28,786.346 1616.47,786.346 1613.3,788.105C1610.14,789.863 1582.35,781.423 1577.08,779.664C1571.8,777.906 1560.2,776.499 1557.38,774.741C1554.57,772.982 1560.9,745.902 1560.9,745.902Z" style="fill:rgb(71,42,36);stroke:rgb(71,42,36);stroke-width:3px;"/>
        <path d="M835.446,1019.73C841.39,1019.73 847.816,1021.91 853.842,1022.29C867.608,1023.16 881.377,1020.94 895.143,1021.8C957.854,1025.72 1013.59,1032.72 1058.71,978.794C1071.34,963.701 1080.81,944.842 1089.1,927.087C1090.85,923.336 1089.22,918.869 1085.47,917.119C1081.72,915.368 1077.25,916.993 1075.5,920.744C1067.75,937.348 1059.02,955.053 1047.21,969.168C1005.66,1018.83 953.83,1010.44 896.078,1006.83C882.317,1005.97 868.552,1008.19 854.789,1007.32C848.458,1006.92 841.692,1004.73 835.446,1004.73C831.307,1004.73 827.946,1008.09 827.946,1012.23C827.946,1016.37 831.307,1019.73 835.446,1019.73Z" style="fill:rgb(219,181,132);"/>
        <path d="M1469.88,1038.15C1435.13,1020.77 1407.23,1014.49 1368.46,1013.16C1356.28,1012.74 1342.31,1014.07 1328.68,1013.67C1316.55,1013.31 1304.66,1011.63 1295.06,1005.06C1285.04,998.207 1281.81,986.142 1277.38,975.479C1269.29,955.99 1260.15,937.253 1254.16,916.913C1253,912.942 1248.82,910.666 1244.85,911.834C1240.88,913.002 1238.61,917.174 1239.77,921.146C1245.91,942.006 1255.23,961.246 1263.53,981.233C1269.05,994.516 1274.11,1008.9 1286.59,1017.44C1298.52,1025.61 1313.16,1028.21 1328.24,1028.66C1341.84,1029.06 1355.78,1027.73 1367.94,1028.15C1404.34,1029.4 1430.55,1035.25 1463.18,1051.57C1466.88,1053.42 1471.39,1051.91 1473.24,1048.21C1475.09,1044.51 1473.59,1040 1469.88,1038.15Z" style="fill:rgb(219,181,132);"/>
        <g id="nose">
            <path d="M1070.82,1020.75C1070.82,1020.75 1054.42,1028.42 1047.72,1037.73C1041.02,1047.04 1032.25,1058.41 1042.64,1074.61C1051.37,1088.22 1057.65,1084.65 1065.84,1083.16C1074.03,1081.67 1077.67,1080.55 1083.39,1077.92C1089.11,1075.3 1096.33,1066.72 1100.98,1067.92C1105.62,1069.11 1122.94,1073.16 1127.71,1081.5C1132.47,1089.84 1144.13,1103.16 1149.61,1107.68C1155.09,1112.21 1164.29,1118.97 1177.16,1116.39C1190.02,1113.81 1213.57,1107.42 1220.71,1102.65C1227.86,1097.89 1237.55,1088.17 1238.98,1082.93C1240.41,1077.69 1242.03,1078.28 1244.4,1085.13C1246.78,1091.98 1259.59,1095.26 1268.52,1092.58C1277.46,1089.9 1286.99,1083.94 1287.88,1080.96C1288.77,1077.99 1289.2,1098.48 1274.31,1101.16C1259.42,1103.84 1245.88,1110.42 1237.55,1115.51C1226.83,1122.06 1211.71,1138.57 1206.64,1141.84C1201.58,1145.12 1187.3,1155.91 1166.25,1150.63C1158.88,1148.79 1151.71,1143.92 1147.18,1140.66C1139.61,1135.21 1136.44,1128.14 1131.22,1123.85C1122.88,1117 1108.4,1110.22 1096.19,1107.84C1083.98,1105.46 1074.99,1105.32 1066.65,1104.13C1058.31,1102.94 1040.82,1101.52 1034.27,1087.52C1027.72,1073.52 1026.61,1072.61 1027.57,1065.94C1028.52,1059.27 1035.19,1040.21 1041.48,1036.21C1047.77,1032.2 1057.04,1024.46 1059.7,1022.75C1062.37,1021.03 1070.82,1020.75 1070.82,1020.75Z" style="fill:rgb(228,186,134);"/>
            <path d="M1077.28,1014.42C1036.74,1014.42 999.689,1058.27 1027.96,1094.31C1037.93,1107.02 1051.09,1110.93 1065.23,1112.58C1077.72,1114.04 1091,1113.59 1102.91,1117.57C1113.01,1120.93 1120.43,1127.49 1127.66,1134.23C1135.76,1141.78 1143.63,1149.57 1153.81,1154.57C1174.44,1164.71 1191.19,1161.06 1206.29,1152.06C1220.2,1143.78 1232.64,1130.64 1245.61,1120.43C1252.86,1114.72 1265.3,1112.52 1275.53,1108.43C1288.38,1103.29 1298.06,1095.61 1296.48,1079.79C1296.2,1077.05 1293.75,1075.04 1291,1075.32C1288.26,1075.59 1286.25,1078.04 1286.53,1080.79C1287.57,1091.28 1280.34,1095.74 1271.82,1099.14C1260.69,1103.6 1247.31,1106.36 1239.42,1112.57C1229.21,1120.61 1219.37,1130.51 1208.83,1138.33C1194.43,1149 1178.66,1155.64 1158.22,1145.59C1148.94,1141.03 1141.87,1133.8 1134.48,1126.91C1126.22,1119.21 1117.61,1111.92 1106.08,1108.08C1093.53,1103.89 1079.55,1104.18 1066.38,1102.65C1054.86,1101.3 1043.95,1098.5 1035.83,1088.14C1012.94,1058.96 1044.46,1024.42 1077.28,1024.42C1080.04,1024.42 1082.28,1022.18 1082.28,1019.42C1082.28,1016.66 1080.04,1014.42 1077.28,1014.42Z" style="fill:rgb(222,173,112);"/>
            <path d="M1210.58,837.663C1210.58,837.663 1224.56,946.731 1231.83,979.451C1239.1,1012.17 1248.19,1049.44 1242.74,1069.43C1237.29,1089.43 1233.92,1105.09 1207.98,1117.36C1181.13,1130.07 1154.75,1127.39 1140.85,1108.36C1129.21,1092.42 1123.27,1088.46 1114.02,1083.33C1105.68,1078.7 1095.24,1076.07 1089.47,1079.51C1079.26,1085.61 1065.46,1088.54 1057.09,1087.14C1048.71,1085.75 1033.82,1072.25 1034.28,1063.41C1034.75,1054.57 1040.33,1043.4 1047.31,1036.89C1054.29,1030.37 1060.81,1024.79 1069.18,1022.46C1077.56,1020.13 1083.61,1016.88 1083.14,1028.04C1082.68,1039.21 1086.87,1059.22 1093.38,1060.15C1099.9,1061.09 1132.12,1068.07 1140.48,1059.22C1148.84,1050.38 1148.33,1035.95 1145.52,1022C1142.71,1008.03 1141.05,875.873 1140.48,854.932C1139.92,833.991 1137.79,819.533 1140.48,810.707C1143.17,801.882 1159.93,799.707 1169.24,798.933C1178.54,798.159 1195.76,800.313 1199.95,804.82C1204.14,809.328 1210.58,837.663 1210.58,837.663Z" style="fill:rgb(248,220,184);"/>
        </g>
        <path d="M1142.72,813.846C1164.57,802.922 1186.81,798.27 1207.48,814.628C1209.64,816.34 1212.79,815.974 1214.5,813.811C1216.21,811.647 1215.85,808.5 1213.68,806.787C1189.61,787.728 1163.7,792.173 1138.25,804.902C1135.78,806.136 1134.78,809.142 1136.01,811.61C1137.24,814.079 1140.25,815.081 1142.72,813.846Z" style="fill:rgb(219,181,132);"/>
        <g>
            <path d="M855.346,784.526C855.346,784.526 848.371,789.086 842.819,795.562C839.624,799.289 835.959,802.124 829.993,801.826C824.028,801.528 810.785,800.448 808.654,798.778" style="fill:none;stroke:rgb(157,125,98);stroke-width:4.8px;"/>
            <path d="M1019.04,838.522C1019.04,838.522 952.377,846.748 938.666,847.12C916.407,847.723 890.414,845.257 875.209,836.532C863.017,829.536 863.872,825.494 862.868,821.176C862.176,818.2 860.565,816.789 852.428,813.781C843.626,810.526 838.708,807.753 828.865,809.543" style="fill:none;stroke:rgb(157,130,98);stroke-width:4.8px;"/>
            <path d="M1067.5,813.781C1067.5,813.781 1045.51,824.31 1038.57,827.915C1036.36,829.062 1008.92,826.118 986.297,827.915C965.544,829.564 937.042,832.996 917.834,828.551C891.604,822.481 874.891,792.411 872.911,790.525C867.9,785.752 865.267,777.678 855.346,779.109C845.425,780.541 841.846,784.526 841.846,784.526C841.846,784.526 850.473,766.94 855.346,762.883C860.22,758.827 887.841,737.348 893.387,736.159C899.028,734.949 936.017,730.699 944.368,731.653C947.384,731.998 960.06,730.939 970.081,734.116C987.813,739.739 1005.53,752.702 1007.21,754.532C1008.23,755.651 1021.27,764.248 1032.39,775.159C1049.71,792.161 1067.5,813.781 1067.5,813.781Z" style="fill:rgb(228,186,134);"/>
            <path d="M1029.4,818.391C1029.4,818.391 1019.41,818.102 1016.36,817.228C1013.3,816.354 994.623,812.565 977.583,816.06C960.543,819.556 945.897,819.065 936.11,816.968C926.323,814.87 897.976,800.855 893.083,795.263C888.189,789.67 877.177,781.534 878.051,780.223C878.924,778.912 883.157,770.135 887.094,766.019C891.031,761.903 911.201,754.748 916.88,753.874C922.56,753 936.979,750.816 945.28,751.69C953.582,752.563 977.359,758.308 984.166,762.176C990.35,765.689 1005.14,779.652 1012.57,789.265C1019.99,798.877 1024.78,804.393 1026.29,808.786C1028.1,814.082 1029.4,818.391 1029.4,818.391Z" style="fill:white;stroke:rgb(92,73,57);stroke-width:3px;"/>
            <g>
                <g transform="matrix(1,0,0,0.937319,-10.0491,43.6534)">
                    <path d="M953.965,755.169C977.356,755.169 996.346,771.16 996.346,790.857C996.346,810.555 977.356,826.546 953.965,826.546C930.575,826.546 915.164,810.555 915.164,790.857C915.164,771.16 930.575,755.169 953.965,755.169Z" style="fill:rgb(92,73,57);"/>
                </g>
                <g transform="matrix(1.21647,0,0,1.1919,-208.317,-148.664)">
                    <ellipse cx="950.761" cy="782.513" rx="19.015" ry="18.076" style="fill:rgb(37,37,37);"/>
                </g>
                <g transform="matrix(1.17151,0,0,1.04085,-163.556,-31.689)">
                    <ellipse cx="951.261" cy="768.712" rx="3.005" ry="4.206" style="fill:white;"/>
                </g>
                <ellipse cx="954.925" cy="782.783" rx="1.833" ry="2.156" style="fill:white;"/>
                <ellipse cx="952.018" cy="788.645" rx="2.362" ry="2.291" style="fill:white;"/>
            </g>
            <g>
                <path d="M880.598,774.085C880.598,774.085 877.449,772.51 873.846,769.334" style="fill:none;stroke:rgb(92,73,57);stroke-width:3px;"/>
                <path d="M885.055,767.733C885.055,767.733 881.971,767.217 879.718,762.609" style="fill:none;stroke:rgb(92,73,57);stroke-width:3px;"/>
                <path d="M891.033,762.609C893.982,762.904 886.395,760.281 884.094,756.611" style="fill:none;stroke:rgb(92,73,57);stroke-width:3px;"/>
                <path d="M899.36,759.621C899.36,759.621 894.583,758.192 892.848,752.681" style="fill:none;stroke:rgb(92,73,57);stroke-width:3px;"/>
                <path d="M907.153,756.151C907.153,756.151 902.563,752.574 900.641,747.984" style="fill:none;stroke:rgb(92,73,57);stroke-width:3px;"/>
                <path d="M879.052,783.003C879.052,783.003 877.196,783.878 875.418,784.588" style="fill:none;stroke:rgb(92,73,57);stroke-width:3px;"/>
                <path d="M883.579,787.488C883.579,787.488 880.28,788.956 878.002,790.29" style="fill:none;stroke:rgb(92,73,57);stroke-width:3px;"/>
                <path d="M889.101,792.596C889.101,792.596 883.803,794.899 881.775,795.113" style="fill:none;stroke:rgb(92,73,57);stroke-width:3px;"/>
                <path d="M914.699,754.101C914.699,754.101 908.806,747.183 907.355,743.938" style="fill:none;stroke:rgb(92,73,57);stroke-width:3px;"/>
                <path d="M922.898,751.966C922.898,751.966 915.126,743.084 914.699,739.582" style="fill:none;stroke:rgb(92,73,57);stroke-width:3px;"/>
            </g>
            <path d="M1067.5,813.781C1067.5,813.781 1065.91,811.81 1063.27,808.621C1054.13,797.621 1032.38,772.131 1019.73,763.098C1003.42,751.447 982.625,731.058 953.701,731.058C924.778,731.058 912.544,729.893 895.65,736.301C878.756,742.709 857.201,759.603 850.793,769.507C844.385,779.41 840.703,789.407 835.111,790.525C829.518,791.644 812.74,787.778 806.029,779.831" style="fill:none;stroke:rgb(157,125,98);stroke-width:4.84px;"/>
        </g>
        <g>
            <path d="M1312.06,850.468C1312.06,850.468 1367.21,859.893 1393.6,859.352C1410.78,859 1433.56,853.051 1441.71,848.037C1450.82,842.435 1451.26,838.875 1458.13,832.766C1465,826.658 1469.58,823.603 1477.22,824.367C1484.85,825.13 1483.78,826.002 1489.82,826.658C1495.41,827.264 1498.29,825.315 1501.4,823.461" style="fill:none;stroke:rgb(157,125,98);stroke-width:4.8px;"/>
            <path d="M1274.29,808.408C1274.29,808.408 1272.27,825.803 1282.4,830.74C1291.01,834.929 1354.25,845.752 1389.16,843.389C1421.79,841.181 1438.47,822.079 1444.59,818.391C1452.79,813.456 1460.04,809.997 1464.8,808.408C1469.21,806.937 1480.88,805.418 1483.63,805.724C1486.37,806.029 1479,804.078 1476.86,801.877C1475.77,800.76 1470.62,791.197 1463.65,781.893C1456.88,772.876 1447.17,764.12 1446.11,762.542C1445.57,761.732 1441.2,757.173 1435.1,754.133C1429.38,751.286 1422.03,749.96 1417.57,748.884C1408.25,746.636 1385.36,748.809 1382.2,749.365C1379.29,749.881 1359.95,752.158 1344.06,756.647C1331.7,760.138 1321,766.092 1317.39,767.872C1313.44,769.823 1305.35,774.225 1298.36,780.847C1290.77,788.034 1283.12,798.043 1281.05,800.589C1277.08,805.48 1274.29,808.408 1274.29,808.408Z" style="fill:rgb(228,186,134);"/>
            <path d="M1294.95,821.636C1294.95,821.636 1295.98,813.791 1302.17,805.558C1307.85,798.012 1319.19,783.672 1331.78,777.73C1344.36,771.788 1353.8,769.691 1363.24,768.642C1372.67,767.593 1389.8,767.244 1399.24,770.04C1408.68,772.836 1423.01,775.982 1427.9,780.177C1432.79,784.371 1436.64,790.663 1438.74,795.906C1440.83,801.149 1441.18,803.595 1439.78,807.44C1438.39,811.285 1423.01,824.331 1414.97,826.546C1406.93,828.762 1375.82,833.306 1369.18,833.306C1362.54,833.306 1337.72,830.51 1331.43,830.16C1325.14,829.811 1318.66,829.229 1310.65,826.737C1302.98,824.35 1294.95,821.636 1294.95,821.636Z" style="fill:white;stroke:rgb(92,73,57);stroke-width:3px;"/>
            <g transform="matrix(1,0,0,0.969759,422.079,39.6641)">
                <g transform="matrix(1,0,0,0.937319,-10.0491,43.6534)">
                    <path d="M953.965,755.169C977.356,755.169 996.346,771.16 996.346,790.857C996.346,810.555 977.356,826.546 953.965,826.546C930.575,826.546 915.164,810.555 915.164,790.857C915.164,771.16 930.575,755.169 953.965,755.169Z" style="fill:rgb(92,73,57);"/>
                </g>
                <g transform="matrix(1.21647,0,0,1.1919,-208.317,-148.664)">
                    <ellipse cx="950.761" cy="782.513" rx="19.015" ry="18.076" style="fill:rgb(37,37,37);"/>
                </g>
                <g transform="matrix(1.17151,0,0,0.910128,-172.231,66.6699)">
                    <ellipse cx="951.261" cy="768.712" rx="3.005" ry="4.206" style="fill:white;"/>
                </g>
                <g transform="matrix(1,0,0,1,-9.21867,-2.68776)">
                    <ellipse cx="954.925" cy="782.783" rx="1.833" ry="2.156" style="fill:white;"/>
                </g>
                <g transform="matrix(1,0,0,1,-12.1951,-2.34091)">
                    <ellipse cx="952.018" cy="788.645" rx="2.362" ry="2.291" style="fill:white;"/>
                </g>
            </g>
            <g>
                <path d="M1430.16,817.685C1430.16,817.685 1432.16,821.965 1433.7,823.478" style="fill:none;stroke:rgb(92,73,57);stroke-width:3px;"/>
                <path d="M1440.62,806.668C1440.62,806.668 1442.95,807.129 1444.57,808.205" style="fill:none;stroke:rgb(92,73,57);stroke-width:3px;"/>
                <path d="M1435.22,813.842C1435.22,813.842 1436.91,816.609 1438.44,817.989" style="fill:none;stroke:rgb(92,73,57);stroke-width:3px;"/>
                <path d="M1438.44,810.767C1438.44,810.767 1440.1,812.376 1441.12,813.459" style="fill:none;stroke:rgb(92,73,57);stroke-width:3px;"/>
                <path d="M1440.62,798.587C1440.62,798.587 1446.43,797.717 1449.17,795.804" style="fill:none;stroke:rgb(92,73,57);stroke-width:3px;"/>
                <path d="M1438.35,792.003C1438.35,792.003 1445.33,790.464 1447.38,789.275" style="fill:none;stroke:rgb(92,73,57);stroke-width:3px;"/>
                <path d="M1433.68,786.398C1433.68,786.398 1443.23,783.761 1444.9,782.027" style="fill:none;stroke:rgb(92,73,57);stroke-width:3px;"/>
                <path d="M1429.82,781.754C1429.82,781.754 1437.02,779.272 1440.62,775.269" style="fill:none;stroke:rgb(92,73,57);stroke-width:3px;"/>
                <path d="M1425.02,777.164C1425.02,777.164 1433.52,772.065 1434.61,769.067" style="fill:none;stroke:rgb(92,73,57);stroke-width:3px;"/>
                <path d="M1418.79,775.269C1418.79,775.269 1427.6,766.799 1428.8,762.864" style="fill:none;stroke:rgb(92,73,57);stroke-width:3px;"/>
            </g>
            <path d="M1274.29,808.408C1274.29,808.408 1295.77,780.965 1301.97,776.074C1308.17,771.184 1329.09,760.045 1344.62,755.804C1359,751.877 1383.8,748.14 1389.76,747.582C1396.01,746.995 1426.12,747.191 1437.65,755.01C1449.18,762.829 1464.13,779.179 1466.53,784.394C1468.92,789.609 1473.78,801.235 1481.89,803.78C1487.39,805.507 1491.22,805.604 1496.06,802.314" style="fill:none;stroke:rgb(157,125,99);stroke-width:4.8px;"/>
        </g>
        <g transform="matrix(1,0,0,1,-2.59876,0)">
            <path d="M944.307,1414.3C956.708,1425.2 979.582,1443.29 992.978,1453.39C1023.8,1476.65 1059.11,1495.63 1096.07,1502.78C1136.23,1510.56 1178.43,1504.87 1219.29,1486.56C1225.84,1483.62 1228.77,1475.92 1225.83,1469.38C1222.9,1462.83 1215.2,1459.9 1208.65,1462.83C1172.95,1478.83 1136.11,1484.05 1101.01,1477.26C1067.84,1470.83 1036.3,1453.51 1008.64,1432.64C995.657,1422.85 973.487,1405.33 961.472,1394.77C956.083,1390.04 947.862,1390.57 943.125,1395.96C938.388,1401.35 938.918,1409.57 944.307,1414.3Z" style="fill:rgb(248,220,185);"/>
        </g>
    </g>
</svg>
