<?xml version="1.0" encoding="UTF-8" standalone="no"?>
<!DOCTYPE svg PUBLIC "-//W3C//DTD SVG 1.1//EN" "http://www.w3.org/Graphics/SVG/1.1/DTD/svg11.dtd">
<svg width="100%" height="100%" viewBox="0 0 1587 174" version="1.1" xmlns="http://www.w3.org/2000/svg" xmlns:xlink="http://www.w3.org/1999/xlink" xml:space="preserve" xmlns:serif="http://www.serif.com/" style="fill-rule:evenodd;clip-rule:evenodd;stroke-linejoin:round;stroke-miterlimit:2;">
    <g transform="matrix(0.818807,0,0,1.125,-15.2275,-25.9269)">
        <path d="M331.222,61.523C331.222,40.287 307.534,23.046 278.357,23.046L71.463,23.046C42.285,23.046 18.597,40.287 18.597,61.523L18.597,138.477C18.597,159.713 42.285,176.954 71.463,176.954L278.357,176.954C307.534,176.954 331.222,159.713 331.222,138.477L331.222,61.523Z" style="fill:rgb(117,255,112);"/>
    </g>
    <g transform="matrix(0.960419,0,0,1.125,261.661,-25.9269)">
        <path d="M331.222,61.523C331.222,40.287 311.027,23.046 286.152,23.046L63.668,23.046C38.793,23.046 18.597,40.287 18.597,61.523L18.597,138.477C18.597,159.713 38.793,176.954 63.668,176.954L286.152,176.954C311.027,176.954 331.222,159.713 331.222,138.477L331.222,61.523Z" style="fill:rgb(0,189,142);"/>
    </g>
    <g transform="matrix(1.21129,0,0,1.125,581.285,-25.9269)">
        <path d="M331.222,61.523C331.222,40.287 315.21,23.046 295.487,23.046L54.333,23.046C34.61,23.046 18.597,40.287 18.597,61.523L18.597,138.477C18.597,159.713 34.61,176.954 54.333,176.954L295.487,176.954C315.21,176.954 331.222,159.713 331.222,138.477L331.222,61.523Z" style="fill:rgb(151,76,255);"/>
    </g>
    <g transform="matrix(0.960419,0,0,1.125,991.076,-25.9269)">
        <path d="M331.222,61.523C331.222,40.287 311.027,23.046 286.152,23.046L63.668,23.046C38.793,23.046 18.597,40.287 18.597,61.523L18.597,138.477C18.597,159.713 38.793,176.954 63.668,176.954L286.152,176.954C311.027,176.954 331.222,159.713 331.222,138.477L331.222,61.523Z" style="fill:rgb(0,190,142);"/>
    </g>
    <g transform="matrix(0.818807,0,0,1.125,1315.09,-25.9269)">
        <path d="M331.222,61.523C331.222,40.287 307.534,23.046 278.357,23.046L71.463,23.046C42.285,23.046 18.597,40.287 18.597,61.523L18.597,138.477C18.597,159.713 42.285,176.954 71.463,176.954L278.357,176.954C307.534,176.954 331.222,159.713 331.222,138.477L331.222,61.523Z" style="fill:rgb(116,255,111);"/>
    </g>
</svg>
