<?xml version="1.0" encoding="UTF-8" standalone="no"?>
<!DOCTYPE svg PUBLIC "-//W3C//DTD SVG 1.1//EN" "http://www.w3.org/Graphics/SVG/1.1/DTD/svg11.dtd">
<svg width="100%" height="100%" viewBox="0 0 1600 270" version="1.1" xmlns="http://www.w3.org/2000/svg" xmlns:xlink="http://www.w3.org/1999/xlink" xml:space="preserve" xmlns:serif="http://www.serif.com/" style="fill-rule:evenodd;clip-rule:evenodd;stroke-linejoin:round;stroke-miterlimit:2;">
    <g transform="matrix(1.67639,0,0,1.75,-31.1762,-40.3307)">
        <path d="M331.222,61.523C331.222,40.287 313.224,23.046 291.056,23.046L58.764,23.046C36.595,23.046 18.597,40.287 18.597,61.523L18.597,138.477C18.597,159.713 36.595,176.954 58.764,176.954L291.056,176.954C313.224,176.954 331.222,159.713 331.222,138.477L331.222,61.523Z" style="fill:rgb(6,184,0);"/>
    </g>
    <g transform="matrix(1.67639,0,0,1.75,506.783,-40.3307)">
        <path d="M331.222,61.523C331.222,40.287 313.224,23.046 291.056,23.046L58.764,23.046C36.595,23.046 18.597,40.287 18.597,61.523L18.597,138.477C18.597,159.713 36.595,176.954 58.764,176.954L291.056,176.954C313.224,176.954 331.222,159.713 331.222,138.477L331.222,61.523Z" style="fill:rgb(255,245,53);"/>
    </g>
    <g transform="matrix(1.67639,0,0,1.75,1044.74,-40.3307)">
        <path d="M331.222,61.523C331.222,40.287 313.224,23.046 291.056,23.046L58.764,23.046C36.595,23.046 18.597,40.287 18.597,61.523L18.597,138.477C18.597,159.713 36.595,176.954 58.764,176.954L291.056,176.954C313.224,176.954 331.222,159.713 331.222,138.477L331.222,61.523Z" style="fill:rgb(255,134,237);"/>
    </g>
    <g transform="matrix(1,0,0,1,26.1565,32.1806)">
        <text x="24.878px" y="126.608px" style="font-family:'ArialMT', 'Arial', sans-serif;font-size:100px;">#06B800</text>
    </g>
    <g transform="matrix(1,0,0,1,564.589,32.1806)">
        <text x="24.878px" y="126.608px" style="font-family:'ArialMT', 'Arial', sans-serif;font-size:100px;">#FFF535</text>
    </g>
    <g transform="matrix(1,0,0,1,1092.93,32.1806)">
        <text x="24.878px" y="126.608px" style="font-family:'ArialMT', 'Arial', sans-serif;font-size:100px;">#FF86ED</text>
    </g>
</svg>
