<?xml version="1.0" encoding="UTF-8" standalone="no"?>
<!DOCTYPE svg PUBLIC "-//W3C//DTD SVG 1.1//EN" "http://www.w3.org/Graphics/SVG/1.1/DTD/svg11.dtd">
<svg width="100%" height="100%" viewBox="0 0 671 637" version="1.1" xmlns="http://www.w3.org/2000/svg" xmlns:xlink="http://www.w3.org/1999/xlink" xml:space="preserve" xmlns:serif="http://www.serif.com/" style="fill-rule:evenodd;clip-rule:evenodd;stroke-linejoin:round;stroke-miterlimit:2;">
    <g transform="matrix(1,0,0,1,-184.472,-65.4545)">
        <g transform="matrix(1,0,0,1,175.537,-26.7769)">
            <path d="M134.783,323.288C134.172,317.018 133.884,310.65 133.884,304.215C133.884,187.218 228.871,92.231 345.868,92.231C462.865,92.231 557.851,187.218 557.851,304.215C557.851,310.708 557.559,317.134 556.938,323.49C529.679,310.652 499.222,303.494 467.106,303.494C420.752,303.494 377.853,318.405 342.978,343.731C308.481,319.294 266.359,304.965 220.918,304.965C190.253,304.965 161.1,311.49 134.783,323.288Z" style="fill:rgb(255,0,0);"/>
        </g>
        <g transform="matrix(1,5.42101e-20,-5.42101e-20,1,296.776,184.486)">
            <path d="M435.699,112.227C507.855,146.038 557.851,219.334 557.851,304.215C557.851,421.212 462.865,516.198 345.868,516.198C300.426,516.198 258.305,501.869 223.807,477.433C277.033,438.947 311.663,376.328 311.663,305.686C311.663,299.253 311.375,292.886 310.802,286.595C379.34,256.076 428.701,190.22 435.699,112.227Z" style="fill:rgb(0,255,0);"/>
        </g>
        <g transform="matrix(1,5.42101e-20,-5.42101e-20,1,296.776,184.486)">
            <path d="M310.802,286.595C305.122,222.947 271.242,167.361 221.74,132.468C256.615,107.142 299.514,92.231 345.868,92.231C377.983,92.231 408.441,99.389 435.699,112.227C428.694,190.215 379.341,256.081 310.802,286.595Z" style="fill:rgb(255,255,0);"/>
        </g>
        <g transform="matrix(1,5.42101e-20,-5.42101e-20,1,50.5872,185.957)">
            <path d="M259.733,110.555C266.557,187.251 314.313,252.236 380.987,283.469C380.366,289.825 380.073,296.251 380.073,302.744C380.073,374.299 415.603,437.622 469.996,475.962C435.121,501.288 392.222,516.198 345.868,516.198C228.871,516.198 133.884,421.212 133.884,304.215C133.884,217.883 185.604,143.535 259.733,110.555Z" style="fill:rgb(0,0,255);"/>
        </g>
        <g transform="matrix(1,5.42101e-20,-5.42101e-20,1,50.5872,185.957)">
            <path d="M467.908,131.012C419.598,165.95 386.609,220.778 380.946,283.445C314.286,252.2 266.555,187.23 259.733,110.555C286.05,98.757 315.203,92.231 345.868,92.231C391.317,92.231 433.445,106.565 467.908,131.012Z" style="fill:rgb(255,0,255);"/>
        </g>
        <g transform="matrix(1,5.42101e-20,-5.42101e-20,1,50.5872,185.957)">
            <path d="M535.467,209.413C549.794,237.933 557.851,270.14 557.851,304.215C557.851,374.858 523.222,437.476 469.996,475.962C415.603,437.622 380.073,374.299 380.073,302.744C380.073,296.238 380.367,289.8 380.946,283.445C408.219,296.301 438.688,303.465 470.818,303.465C501.483,303.465 530.635,296.939 556.953,285.141C554.549,258.12 547.064,232.553 535.467,209.413Z" style="fill:rgb(0,255,255);"/>
        </g>
        <g transform="matrix(1,5.42101e-20,-5.42101e-20,1,50.5872,185.957)">
            <path d="M380.946,283.445C386.609,220.772 419.605,165.939 467.928,130.997C471.192,133.298 474.388,135.688 477.503,138.166L478.518,138.98L482.715,142.425L486.105,145.377L487.642,146.728L491.15,149.969L493.845,152.561L496.425,155.088L497.994,156.717L501.588,160.5L503.942,163.092L508.388,168.217L508.975,168.902L509.966,170.13L514.26,175.556L515.692,177.441L520.575,184.22L521.097,184.998L525.575,191.85L526.245,192.915L530.857,200.729L531.038,201.057L535.449,209.377L535.467,209.413C547.064,232.553 554.549,258.12 556.953,285.141C530.635,296.939 501.483,303.465 470.818,303.465C438.688,303.465 408.219,296.301 380.946,283.445Z" style="fill:white;"/>
        </g>
    </g>
</svg>
