<?xml version="1.0" encoding="UTF-8" standalone="no"?>
<!DOCTYPE svg PUBLIC "-//W3C//DTD SVG 1.1//EN" "http://www.w3.org/Graphics/SVG/1.1/DTD/svg11.dtd">
<svg width="100%" height="100%" viewBox="0 0 1818 168" version="1.1" xmlns="http://www.w3.org/2000/svg" xmlns:xlink="http://www.w3.org/1999/xlink" xml:space="preserve" xmlns:serif="http://www.serif.com/" style="fill-rule:evenodd;clip-rule:evenodd;stroke-linecap:round;stroke-miterlimit:1.5;">
    <g transform="matrix(1,0,0,1,-18.775,-76.4904)">
        <g transform="matrix(1.17262,0,0,1,-4.79694,0)">
            <rect x="27.789" y="85.504" width="1534.65" height="149.963" style="fill:white;stroke:black;stroke-width:9.18px;"/>
        </g>
        <g transform="matrix(0.754351,0,0,0.754351,-23.0051,-142.691)">
            <rect x="67.335" y="302.505" width="198.798" height="198.798" style="stroke:black;stroke-width:1.33px;stroke-linejoin:round;"/>
        </g>
        <g transform="matrix(0.754351,0,0,0.754351,276.921,-142.691)">
            <rect x="67.335" y="302.505" width="198.798" height="198.798" style="fill:rgb(48,48,48);stroke:rgb(48,48,48);stroke-width:1.33px;stroke-linejoin:round;"/>
        </g>
        <g transform="matrix(0.754351,0,0,0.754351,576.848,-142.691)">
            <rect x="67.335" y="302.505" width="198.798" height="198.798" style="fill:rgb(96,96,96);stroke:rgb(96,96,96);stroke-width:1.33px;stroke-linejoin:round;"/>
        </g>
        <g transform="matrix(0.754351,0,0,0.754351,876.774,-142.691)">
            <rect x="67.335" y="302.505" width="198.798" height="198.798" style="fill:rgb(144,144,144);stroke:rgb(144,144,144);stroke-width:1.33px;stroke-linejoin:round;"/>
        </g>
        <g transform="matrix(0.754351,0,0,0.754351,1176.7,-142.691)">
            <rect x="67.335" y="302.505" width="198.798" height="198.798" style="fill:rgb(192,192,192);stroke:rgb(192,192,192);stroke-width:1.33px;stroke-linejoin:round;"/>
        </g>
        <g transform="matrix(0.754351,0,0,0.754351,1476.63,-142.691)">
            <rect x="67.335" y="302.505" width="198.798" height="198.798" style="fill:rgb(240,240,240);stroke:rgb(240,240,240);stroke-width:1.33px;stroke-linejoin:round;"/>
        </g>
        <g transform="matrix(0.754351,0,0,0.754351,126.958,-142.691)">
            <rect x="67.335" y="302.505" width="198.798" height="198.798" style="fill:rgb(24,24,24);stroke:rgb(24,24,24);stroke-width:1.33px;stroke-linejoin:round;"/>
        </g>
        <g transform="matrix(0.754351,0,0,0.754351,426.494,-142.691)">
            <rect x="67.335" y="302.505" width="198.798" height="198.798" style="fill:rgb(72,72,72);stroke:rgb(72,72,72);stroke-width:1.33px;stroke-linejoin:round;"/>
        </g>
        <g transform="matrix(0.754351,0,0,0.754351,726.811,-142.691)">
            <rect x="67.335" y="302.505" width="198.798" height="198.798" style="fill:rgb(120,120,120);stroke:rgb(120,120,120);stroke-width:1.33px;stroke-linejoin:round;"/>
        </g>
        <g transform="matrix(0.754351,0,0,0.754351,1026.74,-142.691)">
            <rect x="67.335" y="302.505" width="198.798" height="198.798" style="fill:rgb(168,168,168);stroke:rgb(168,168,168);stroke-width:1.33px;stroke-linejoin:round;"/>
        </g>
        <g transform="matrix(0.754351,0,0,0.754351,1326.66,-142.691)">
            <rect x="67.335" y="302.505" width="198.798" height="198.798" style="fill:rgb(216,216,216);stroke:rgb(216,216,216);stroke-width:1.33px;stroke-linejoin:round;"/>
        </g>
        <g transform="matrix(0.754351,0,0,0.754351,1626.59,-142.691)">
            <rect x="67.335" y="302.505" width="198.798" height="198.798" style="fill:white;stroke:white;stroke-width:1.33px;stroke-linejoin:round;"/>
        </g>
    </g>
</svg>
