<?xml version="1.0" encoding="UTF-8" standalone="no"?>
<!DOCTYPE svg PUBLIC "-//W3C//DTD SVG 1.1//EN" "http://www.w3.org/Graphics/SVG/1.1/DTD/svg11.dtd">
<svg width="100%" height="100%" viewBox="0 0 1814 200" version="1.1" xmlns="http://www.w3.org/2000/svg" xmlns:xlink="http://www.w3.org/1999/xlink" xml:space="preserve" xmlns:serif="http://www.serif.com/" style="fill-rule:evenodd;clip-rule:evenodd;stroke-linecap:round;stroke-miterlimit:1.5;">
    <g transform="matrix(1,0,0,1.02458,-4.54747e-13,0)">
        <rect x="0" y="0" width="1814" height="195.202"/>
    </g>
    <g transform="matrix(1.00547,0,0,0.400098,-27.9408,100.992)">
        <g transform="matrix(1.17262,0,0,1,-4.79694,0)">
            <rect x="27.789" y="85.504" width="1534.65" height="149.963" style="fill:white;stroke:black;stroke-width:11.36px;"/>
        </g>
        <g transform="matrix(0.754351,0,0,0.754351,-23.0051,-142.691)">
            <rect x="67.335" y="302.505" width="198.798" height="198.798" style="stroke:black;stroke-width:1.73px;stroke-linejoin:round;"/>
        </g>
        <g transform="matrix(0.754351,0,0,0.754351,276.921,-142.691)">
            <rect x="67.335" y="302.505" width="198.798" height="198.798" style="fill:rgb(0,0,48);stroke:rgb(0,0,48);stroke-width:1.73px;stroke-linejoin:round;"/>
        </g>
        <g transform="matrix(0.754351,0,0,0.754351,576.848,-142.691)">
            <rect x="67.335" y="302.505" width="198.798" height="198.798" style="fill:rgb(0,0,96);stroke:rgb(0,0,96);stroke-width:1.73px;stroke-linejoin:round;"/>
        </g>
        <g transform="matrix(0.754351,0,0,0.754351,876.774,-142.691)">
            <rect x="67.335" y="302.505" width="198.798" height="198.798" style="fill:rgb(0,0,144);stroke:rgb(0,0,144);stroke-width:1.73px;stroke-linejoin:round;"/>
        </g>
        <g transform="matrix(0.754351,0,0,0.754351,1176.7,-142.691)">
            <rect x="67.335" y="302.505" width="198.798" height="198.798" style="fill:rgb(0,0,192);stroke:rgb(0,0,192);stroke-width:1.73px;stroke-linejoin:round;"/>
        </g>
        <g transform="matrix(0.754351,0,0,0.754351,1476.63,-142.691)">
            <rect x="67.335" y="302.505" width="198.798" height="198.798" style="fill:rgb(0,0,240);stroke:rgb(0,0,240);stroke-width:1.73px;stroke-linejoin:round;"/>
        </g>
        <g transform="matrix(0.754351,0,0,0.754351,126.958,-142.691)">
            <rect x="67.335" y="302.505" width="198.798" height="198.798" style="fill:rgb(0,0,24);stroke:rgb(0,0,24);stroke-width:1.73px;stroke-linejoin:round;"/>
        </g>
        <g transform="matrix(0.754351,0,0,0.754351,426.494,-142.691)">
            <rect x="67.335" y="302.505" width="198.798" height="198.798" style="fill:rgb(0,0,72);stroke:rgb(0,0,72);stroke-width:1.73px;stroke-linejoin:round;"/>
        </g>
        <g transform="matrix(0.754351,0,0,0.754351,726.811,-142.691)">
            <rect x="67.335" y="302.505" width="198.798" height="198.798" style="fill:rgb(0,0,120);stroke:rgb(0,0,120);stroke-width:1.73px;stroke-linejoin:round;"/>
        </g>
        <g transform="matrix(0.754351,0,0,0.754351,1026.74,-142.691)">
            <rect x="67.335" y="302.505" width="198.798" height="198.798" style="fill:rgb(0,0,168);stroke:rgb(0,0,168);stroke-width:1.73px;stroke-linejoin:round;"/>
        </g>
        <g transform="matrix(0.754351,0,0,0.754351,1326.66,-142.691)">
            <rect x="67.335" y="302.505" width="198.798" height="198.798" style="fill:rgb(0,0,216);stroke:rgb(0,0,216);stroke-width:1.73px;stroke-linejoin:round;"/>
        </g>
        <g transform="matrix(0.754351,0,0,0.754351,1626.59,-142.691)">
            <rect x="67.335" y="302.505" width="198.798" height="198.798" style="fill:rgb(0,0,255);stroke:rgb(0,0,255);stroke-width:1.73px;stroke-linejoin:round;"/>
        </g>
    </g>
    <g transform="matrix(1.00547,0,0,0.400098,-27.9408,35.7899)">
        <g transform="matrix(1.17262,0,0,1,-4.79694,0)">
            <rect x="27.789" y="85.504" width="1534.65" height="149.963" style="fill:white;stroke:black;stroke-width:11.36px;"/>
        </g>
        <g transform="matrix(0.754351,0,0,0.754351,-23.0051,-142.691)">
            <rect x="67.335" y="302.505" width="198.798" height="198.798" style="stroke:black;stroke-width:1.73px;stroke-linejoin:round;"/>
        </g>
        <g transform="matrix(0.754351,0,0,0.754351,276.921,-142.691)">
            <rect x="67.335" y="302.505" width="198.798" height="198.798" style="fill:rgb(0,48,0);stroke:rgb(0,48,0);stroke-width:1.73px;stroke-linejoin:round;"/>
        </g>
        <g transform="matrix(0.754351,0,0,0.754351,576.848,-142.691)">
            <rect x="67.335" y="302.505" width="198.798" height="198.798" style="fill:rgb(0,96,0);stroke:rgb(0,96,0);stroke-width:1.73px;stroke-linejoin:round;"/>
        </g>
        <g transform="matrix(0.754351,0,0,0.754351,876.774,-142.691)">
            <rect x="67.335" y="302.505" width="198.798" height="198.798" style="fill:rgb(0,144,0);stroke:rgb(0,144,0);stroke-width:1.73px;stroke-linejoin:round;"/>
        </g>
        <g transform="matrix(0.754351,0,0,0.754351,1176.7,-142.691)">
            <rect x="67.335" y="302.505" width="198.798" height="198.798" style="fill:rgb(0,192,0);stroke:rgb(0,192,0);stroke-width:1.73px;stroke-linejoin:round;"/>
        </g>
        <g transform="matrix(0.754351,0,0,0.754351,1476.63,-142.691)">
            <rect x="67.335" y="302.505" width="198.798" height="198.798" style="fill:rgb(0,240,0);stroke:rgb(0,240,0);stroke-width:1.73px;stroke-linejoin:round;"/>
        </g>
        <g transform="matrix(0.754351,0,0,0.754351,126.958,-142.691)">
            <rect x="67.335" y="302.505" width="198.798" height="198.798" style="fill:rgb(0,24,0);stroke:rgb(0,24,0);stroke-width:1.73px;stroke-linejoin:round;"/>
        </g>
        <g transform="matrix(0.754351,0,0,0.754351,426.494,-142.691)">
            <rect x="67.335" y="302.505" width="198.798" height="198.798" style="fill:rgb(0,72,0);stroke:rgb(0,72,0);stroke-width:1.73px;stroke-linejoin:round;"/>
        </g>
        <g transform="matrix(0.754351,0,0,0.754351,726.811,-142.691)">
            <rect x="67.335" y="302.505" width="198.798" height="198.798" style="fill:rgb(0,120,0);stroke:rgb(0,120,0);stroke-width:1.73px;stroke-linejoin:round;"/>
        </g>
        <g transform="matrix(0.754351,0,0,0.754351,1026.74,-142.691)">
            <rect x="67.335" y="302.505" width="198.798" height="198.798" style="fill:rgb(0,168,0);stroke:rgb(0,168,0);stroke-width:1.73px;stroke-linejoin:round;"/>
        </g>
        <g transform="matrix(0.754351,0,0,0.754351,1326.66,-142.691)">
            <rect x="67.335" y="302.505" width="198.798" height="198.798" style="fill:rgb(0,216,0);stroke:rgb(0,216,0);stroke-width:1.73px;stroke-linejoin:round;"/>
        </g>
        <g transform="matrix(0.754351,0,0,0.754351,1626.59,-142.691)">
            <rect x="67.335" y="302.505" width="198.798" height="198.798" style="fill:rgb(0,255,0);stroke:rgb(0,255,0);stroke-width:1.73px;stroke-linejoin:round;"/>
        </g>
    </g>
    <g transform="matrix(1.00547,0,0,0.400098,-27.9408,-29.5261)">
        <g transform="matrix(1.17262,0,0,1,-4.79694,0)">
            <rect x="27.789" y="85.504" width="1534.65" height="149.963" style="fill:white;stroke:black;stroke-width:11.36px;"/>
        </g>
        <g transform="matrix(0.754351,0,0,0.754351,-23.0051,-142.691)">
            <rect x="67.335" y="302.505" width="198.798" height="198.798" style="stroke:black;stroke-width:1.73px;stroke-linejoin:round;"/>
        </g>
        <g transform="matrix(0.754351,0,0,0.754351,276.921,-142.691)">
            <rect x="67.335" y="302.505" width="198.798" height="198.798" style="fill:rgb(48,0,0);stroke:rgb(48,0,0);stroke-width:1.73px;stroke-linejoin:round;"/>
        </g>
        <g transform="matrix(0.754351,0,0,0.754351,576.848,-142.691)">
            <rect x="67.335" y="302.505" width="198.798" height="198.798" style="fill:rgb(96,0,0);stroke:rgb(96,0,0);stroke-width:1.73px;stroke-linejoin:round;"/>
        </g>
        <g transform="matrix(0.754351,0,0,0.754351,876.774,-142.691)">
            <rect x="67.335" y="302.505" width="198.798" height="198.798" style="fill:rgb(144,0,0);stroke:rgb(144,0,0);stroke-width:1.73px;stroke-linejoin:round;"/>
        </g>
        <g transform="matrix(0.754351,0,0,0.754351,1176.7,-142.691)">
            <rect x="67.335" y="302.505" width="198.798" height="198.798" style="fill:rgb(192,0,0);stroke:rgb(192,0,0);stroke-width:1.73px;stroke-linejoin:round;"/>
        </g>
        <g transform="matrix(0.754351,0,0,0.754351,1476.63,-142.691)">
            <rect x="67.335" y="302.505" width="198.798" height="198.798" style="fill:rgb(240,0,0);stroke:rgb(240,0,0);stroke-width:1.73px;stroke-linejoin:round;"/>
        </g>
        <g transform="matrix(0.754351,0,0,0.754351,126.958,-142.691)">
            <rect x="67.335" y="302.505" width="198.798" height="198.798" style="fill:rgb(24,0,0);stroke:rgb(24,0,0);stroke-width:1.73px;stroke-linejoin:round;"/>
        </g>
        <g transform="matrix(0.754351,0,0,0.754351,426.494,-142.691)">
            <rect x="67.335" y="302.505" width="198.798" height="198.798" style="fill:rgb(72,0,0);stroke:rgb(72,0,0);stroke-width:1.73px;stroke-linejoin:round;"/>
        </g>
        <g transform="matrix(0.754351,0,0,0.754351,726.811,-142.691)">
            <rect x="67.335" y="302.505" width="198.798" height="198.798" style="fill:rgb(120,0,0);stroke:rgb(120,0,0);stroke-width:1.73px;stroke-linejoin:round;"/>
        </g>
        <g transform="matrix(0.754351,0,0,0.754351,1026.74,-142.691)">
            <rect x="67.335" y="302.505" width="198.798" height="198.798" style="fill:rgb(168,0,0);stroke:rgb(168,0,0);stroke-width:1.73px;stroke-linejoin:round;"/>
        </g>
        <g transform="matrix(0.754351,0,0,0.754351,1326.66,-142.691)">
            <rect x="67.335" y="302.505" width="198.798" height="198.798" style="fill:rgb(216,0,0);stroke:rgb(216,0,0);stroke-width:1.73px;stroke-linejoin:round;"/>
        </g>
        <g transform="matrix(0.754351,0,0,0.754351,1626.59,-142.691)">
            <rect x="67.335" y="302.505" width="198.798" height="198.798" style="fill:rgb(255,0,0);stroke:rgb(255,0,0);stroke-width:1.73px;stroke-linejoin:round;"/>
        </g>
    </g>
</svg>
