<?xml version="1.0" encoding="UTF-8" standalone="no"?>
<!DOCTYPE svg PUBLIC "-//W3C//DTD SVG 1.1//EN" "http://www.w3.org/Graphics/SVG/1.1/DTD/svg11.dtd">
<svg width="100%" height="100%" viewBox="0 0 506 334" version="1.1" xmlns="http://www.w3.org/2000/svg" xmlns:xlink="http://www.w3.org/1999/xlink" xml:space="preserve" xmlns:serif="http://www.serif.com/" style="fill-rule:evenodd;clip-rule:evenodd;stroke-linecap:round;stroke-linejoin:round;stroke-miterlimit:1.5;">
    <g id="Layer1" transform="matrix(0.097483,0,0,0.0964037,0,0)">
        <rect x="0" y="0" width="5184.66" height="3456" style="fill:rgb(117,98,76);"/>
        <path d="M15.426,649.583C15.426,649.583 807.616,353.814 1225.87,323.579C1644.12,293.344 1986.78,227.835 2268.97,232.874C2551.17,237.913 3906.7,81.699 4047.8,212.718C4188.9,343.736 4546.68,555.381 4667.62,459.637C4788.56,363.893 4843.99,575.538 4884.31,625.93C4924.62,676.321 5164.38,883.339 5167.03,958.926C5169.69,1034.51 5186.65,2566.01 5075.79,2671.83C4964.93,2777.66 4229.21,3339.62 4012.53,3382.36C3795.84,3425.09 1299.26,3434.06 1299.26,3434.06C1299.26,3434.06 597.944,3344.46 380.273,3132.82C162.602,2921.17 24.681,2598.66 24.681,2598.66L15.426,649.583Z" style="fill:rgb(191,156,115);stroke:rgb(145,119,42);stroke-width:27.51px;"/>
        <path d="M4092.88,699.931C4068.18,703.593 4069.16,700.776 4042.11,713.627C4015.06,726.478 4032.28,793.463 4032.28,793.463C4032.28,793.463 4289.43,971.115 4349.93,1253.45C4368.5,1340.14 4399.46,1340.14 4433.52,1380.39C4467.58,1420.64 4433.52,1513.52 4387.08,1510.43C4340.64,1507.33 4210.6,1470.18 4253.95,1519.72C4297.29,1569.25 4340.64,1631.17 4303.49,1659.04C4266.33,1686.9 4117.72,1770.5 4077.47,1764.31C4037.22,1758.11 3860.75,1711.67 3814.31,1761.21C3767.87,1810.75 3733.81,1860.28 3767.87,1903.63C3801.92,1946.97 3987.41,2102.62 4127.7,2059.09C4267.99,2015.55 4287.34,2063.92 4292.18,2126.81C4297.02,2189.7 4166.4,2286.45 4127.7,2320.32C4089,2354.18 4200.26,2518.66 4190.59,2571.87C4180.91,2625.09 4036.28,2719.01 3947.49,2723.85C3858.69,2728.69 3868.6,2844.48 3866.12,2884.11C3863.64,2923.74 3833.92,2955.94 3754.66,2950.99C3675.4,2946.03 3464.87,2988.14 3432.67,3015.38C3400.47,3042.63 3279.11,3050.06 3232.05,3017.86C3184.98,2985.66 3135.45,2760.27 3071.05,2760.27C3006.65,2760.27 3004.17,2881.63 2989.31,2913.83C2974.45,2946.03 2944.73,2963.37 2905.1,2980.71C2865.47,2998.05 2835.13,2999.9 2878.47,3120.65C2921.82,3241.4 2957.87,3309.23 2931.11,3297.13C2895.56,3281.05 2872.97,3143.53 2819.09,3113.02C2804.76,3104.91 2772.92,3170.88 2766.16,3186.95C2759.4,3203.01 2686.69,3310.38 2621.59,3307C2556.49,3303.62 2631.13,3126.95 2625.85,3099.21C2620.57,3071.47 2610.99,3072.79 2592,3092.6C2573.01,3112.42 2525.45,3112.82 2484.5,3061.76C2443.55,3010.7 2427.7,3015.99 2393.36,3009.38C2359.01,3002.78 2246.73,2897.1 2209.74,2890.49C2172.75,2883.89 1966.68,2857.47 1888.74,2877.28C1810.8,2897.1 1814.76,2927.48 1790.98,2951.26C1767.21,2975.03 1575.66,2980.32 1533.39,2960.5C1491.12,2940.69 1476.59,2952.58 1446.21,2920.87C1415.82,2889.17 1427.59,2881.98 1388.88,2836.83C1350.18,2791.68 1201.83,2814.25 1098.63,2817.48C995.426,2820.7 769.671,2756.2 743.87,2685.25C718.07,2614.3 679.369,2640.1 618.092,2630.43C556.816,2620.75 572.941,2569.15 531.016,2520.77C489.09,2472.4 424.982,2434.38 483.465,2407.17C518.784,2390.74 494.142,2371.82 477.234,2361.68C460.325,2351.53 433.947,2307.57 422.45,2285.25C410.952,2262.93 379.353,2055.97 380.273,2020.12C381.192,1984.28 363.058,1990.4 318.673,1983.01C274.287,1975.61 257.379,1921.71 262.663,1894.24C267.947,1866.76 321.843,1861.48 334.524,1840.34C347.206,1819.2 341.922,1775.88 322.9,1763.19C303.878,1750.51 281.685,1763.19 242.584,1751.57C203.482,1739.94 178.119,1711.41 190.801,1691.33C203.482,1671.25 333.468,1619.47 351.433,1617.36C369.399,1615.24 311.275,1590.94 286.969,1582.48C262.663,1574.03 244.697,1568.75 319.729,1526.47C394.762,1484.2 554.99,1456.86 590.268,1428.19C624.085,1400.71 648.392,1393.32 652.619,1362.67C656.846,1332.02 627.256,1340.48 653.676,1315.12C680.095,1289.75 726.594,1233.74 781.547,1224.23C836.501,1214.72 893.567,1221.06 915.76,1202.04C937.953,1183.02 995.019,1138.63 1022.5,1132.29C1049.97,1125.95 1172.33,1088.96 1230.12,1108.77C1287.91,1128.59 1335.8,1173.17 1378.73,1138.5C1421.66,1103.82 1405.15,1065.84 1401.85,1046.03C1398.55,1026.21 1500.92,970.07 1535.6,960.163C1570.28,950.255 1611.71,949.142 1627.77,943.223C1643.83,937.305 1667.51,906.87 1674.27,894.188C1681.03,881.507 1719.92,870.516 1743.6,873.898C1767.27,877.28 1982.85,833.317 1997.23,829.935C2011.6,826.554 2034.42,845.999 2062.32,855.298C2090.22,864.598 2264.38,862.907 2281.29,848.535C2298.2,834.163 2271.99,797.809 2258.46,790.2C2244.94,782.591 2272.84,766.528 2282.98,763.146C2293.13,759.764 2182.05,753.001 2175.03,733.556C2168,714.111 2230.56,675.432 2241.13,671.205C2251.7,666.978 2222.11,650.069 2205.2,644.786C2188.29,639.502 2191.46,624.706 2232.68,612.025C2273.89,599.343 2349.98,618.366 2376.4,620.479C2402.82,622.593 2518.01,586.662 2548.66,571.867C2579.31,557.072 2625.8,564.469 2665.96,570.81C2706.12,577.151 2750.25,564.558 2759.76,557.937C2769.27,551.316 2824.58,538.626 2842.32,546.418C2860.07,554.209 2988.57,578.537 3030.84,573.465C3073.11,568.392 3155.12,576.001 3178.79,566.701C3202.46,557.402 3259.11,573.465 3266.72,584.455C3274.33,595.446 3338.58,626.727 3352.95,615.736C3367.32,604.746 3366.48,578.439 3375.78,551.011C3385.08,523.584 3435.8,506.676 3473.85,508.366C3511.89,510.057 3554.29,528.879 3584.05,526.85C3613.81,524.821 3723.38,540.377 3763.96,538.348C3804.54,536.319 3916.81,529.182 3950.63,551.011C3984.45,572.841 4015.56,590.426 4014.21,597.866C4012.85,605.306 4211.24,590.025 4242.94,583.684C4274.65,577.343 4349.68,590.025 4311.64,603.763C4273.59,617.501 4134.62,693.741 4092.88,699.931Z" style="fill:rgb(201,131,20);stroke:rgb(161,77,0);stroke-width:41.26px;"/>
        <path d="M1571.46,1219.28C1571.46,1219.28 1712.15,1253.6 1735.05,1274.45C1753.67,1291.4 1751.63,1308.12 1736.95,1318.2C1718.97,1330.55 1704,1333.79 1682.81,1332.52C1661.62,1331.24 1617.71,1315.16 1608.51,1314.13C1599.32,1313.11 1586.49,1309.09 1578.83,1305.58C1571.17,1302.07 1570.86,1297.28 1564.15,1300.16C1557.45,1303.03 1540.22,1306.54 1533.2,1302.71C1526.18,1298.88 1514.05,1298.24 1505.11,1292.5C1496.18,1286.75 1494.58,1297.6 1504.79,1303.35C1515.01,1309.09 1549.51,1314.45 1556.17,1312.28C1565.77,1309.17 1580.43,1314.4 1586.49,1318.03C1591.81,1321.21 1617.95,1323.6 1624.83,1327.26C1630.76,1330.42 1634.62,1332.38 1634.3,1340.73C1633.97,1349.7 1629.19,1362.76 1623.88,1365.41C1618.57,1368.07 1593.65,1373.18 1581.81,1372.16C1569.96,1371.13 1516.58,1381.42 1492.03,1376.19C1472.56,1372.04 1469.5,1366.28 1469.5,1374.58C1469.5,1382.88 1497.26,1395.64 1501.73,1395.96C1506.2,1396.28 1498.22,1403.62 1496.3,1407.13C1494.39,1410.64 1496.62,1413.84 1505.24,1411.6C1513.86,1409.37 1524.71,1401.39 1523.75,1406.81C1522.79,1412.24 1482.58,1434.9 1476.52,1435.54C1470.45,1436.17 1422.26,1435.22 1408.22,1427.56C1394.18,1419.9 1391.29,1411.5 1378.33,1407.01C1365.36,1402.52 1348.91,1402.02 1336.94,1401.52C1324.97,1401.02 1295.05,1377.09 1292.06,1367.61C1289.07,1358.14 1280.59,1340.19 1278.1,1318.75C1275.61,1297.3 1249.18,1269.38 1238.7,1267.88C1228.23,1266.39 1210.78,1277.86 1198.31,1258.91C1185.85,1239.96 1173.61,1229.86 1160.42,1211.6C1147.23,1193.34 1137.08,1181.16 1121.87,1184.21C1106.65,1187.25 1109.69,1235.95 1125.92,1261.31C1142.15,1286.67 1140.13,1288.7 1160.42,1304.93C1180.71,1321.17 1164.48,1329.28 1150.27,1338.41C1136.07,1347.55 1118.82,1376.97 1109.69,1396.24C1100.56,1415.52 1082.3,1434.79 1101.57,1436.82C1120.85,1438.85 1137.28,1433.88 1135.05,1453.06C1133.53,1466.2 1130.16,1474.18 1113.75,1472.33C1095.04,1470.22 1094.12,1465.95 1085.78,1466.29C1077.44,1466.63 1020.6,1487.84 1011.46,1492.41C1002.32,1496.98 977.386,1494.49 969.906,1501.55C962.426,1508.62 957.024,1512.77 946.635,1509.45C936.247,1506.12 915.499,1509.44 909.266,1515.67C903.033,1521.9 890.566,1524.4 880.178,1527.72C869.789,1531.05 919.239,1531.88 931.29,1528.55C943.341,1525.23 963.287,1519.41 969.936,1525.64C976.585,1531.88 991.96,1534.79 985.727,1539.36C979.494,1543.93 972.014,1544.34 964.118,1541.02C956.223,1537.69 923.395,1539.36 915.915,1543.1C908.435,1546.84 877.269,1542.27 861.062,1548.08C844.856,1553.9 832.805,1555.56 815.352,1548.5C797.899,1541.43 798.6,1545.59 779.121,1552.08C759.643,1558.57 727.178,1551.27 713.38,1539.91C699.583,1528.54 762.889,1590.23 790.484,1581.3C818.079,1572.37 838.37,1562.63 848.921,1568.31C859.472,1574 870.834,1580.49 861.095,1587.79C851.355,1595.1 832.688,1601.59 818.079,1601.59C803.47,1601.59 786.426,1607.27 781.556,1611.33C776.687,1615.39 753.15,1624.32 748.28,1611.33C743.41,1598.34 744.222,1592.66 719.873,1596.72C695.525,1600.78 687.409,1592.66 680.104,1607.27C672.799,1621.88 705.264,1625.13 701.206,1631.62C697.148,1638.11 641.958,1656.78 617.609,1654.35C593.261,1651.91 572.159,1655.97 557.55,1646.23C542.941,1636.49 525.085,1628.37 500.736,1626.75C476.388,1625.13 350.342,1627.01 386.865,1643.25C423.387,1659.48 481.215,1641.22 494.404,1672.67C507.593,1704.12 590.784,1704.12 623.248,1698.03C655.713,1691.94 691.221,1692.96 686.149,1705.13C681.076,1717.31 689.192,1727.45 697.308,1752.81C705.425,1778.18 724.701,1822.82 766.296,1809.63C807.891,1796.44 823.109,1794.41 834.269,1805.57C845.429,1816.73 820.066,1841.08 800.79,1852.24C781.514,1863.4 740.933,1887.75 731.802,1896.88C722.672,1906.01 762.238,1919.19 774.412,1924.27C786.586,1929.34 722.672,1956.73 686.149,1957.75C649.626,1958.76 723.087,1974.34 736.722,1977.59C750.357,1980.83 757.499,2008.75 748.409,2028.23C739.319,2047.71 732.088,2081.91 708.31,2099.34C684.532,2116.78 667.095,2127.88 622.71,2119.95C578.324,2112.02 591.006,2167.51 630.636,2173.85C670.265,2180.19 736.843,2191.28 746.355,2164.34C755.866,2137.39 784.399,2061.3 825.614,2042.28C866.829,2023.25 931.822,1999.48 955.6,2015.33C979.378,2031.18 1019.01,2034.35 1030.1,2016.91C1041.2,1999.48 1084,2013.74 1103.02,2031.18C1122.05,2048.62 1156.92,2034.35 1180.7,2032.76C1204.48,2031.18 1272.64,2034.35 1282.15,2056.54C1291.66,2078.73 1293.7,2098.49 1262,2114.34C1230.29,2130.2 1187.94,2146.42 1167.65,2153.52C1147.36,2160.62 1136.2,2184.97 1149.39,2206.28C1162.58,2227.58 1088.52,2246.86 1060.11,2247.87C1031.7,2248.89 973.874,2282.37 950.54,2288.45C927.206,2294.54 927.206,2310.77 921.119,2324.97C915.032,2339.18 946.482,2359.47 991.121,2342.22C1035.76,2324.97 1117.94,2315.84 1149.39,2303.67C1180.84,2291.49 1238.66,2278.31 1231.56,2255.99C1224.46,2233.67 1212.29,2233.67 1231.56,2218.45C1250.84,2203.23 1293.45,2175.84 1305.62,2193.09C1317.8,2210.33 1298.52,2236.71 1284.32,2243.81C1270.11,2250.91 1283.3,2253.96 1289.39,2277.29C1295.48,2300.63 1265.04,2358.45 1258.95,2368.6C1252.87,2378.74 1246.78,2400.05 1260.98,2409.18C1275.19,2418.31 1337.07,2384.83 1352.29,2376.72C1367.51,2368.6 1388.81,2363.53 1404.03,2377.73C1419.25,2391.93 1612.01,2356.43 1633.31,2366.57C1654.62,2376.72 1696,2389.24 1717.1,2441.18C1738.21,2493.13 1744.7,2515.85 1731.71,2532.89C1718.73,2549.94 1755.25,2571.04 1771.48,2568.61C1787.71,2566.17 1791.77,2555.62 1809.63,2551.56C1827.48,2547.5 1859.95,2552.88 1878.62,2565.36C1896.34,2577.21 1937.86,2597.82 1937.05,2610.81C1936.24,2623.8 1985.23,2615.13 1996.66,2612.01C2008.09,2608.89 2138.17,2526.98 2158.78,2514.3C2179.38,2501.62 2223.77,2539.66 2239.62,2549.18C2255.47,2558.69 2238.03,2500.03 2238.03,2488.94C2238.03,2477.84 2375.95,2446.14 2423.5,2457.24C2471.06,2468.33 2450.45,2476.26 2434.6,2490.52C2418.75,2504.79 2423.5,2511.13 2448.87,2515.89C2474.23,2520.64 2448.87,2558.69 2444.11,2571.37C2439.35,2584.05 2491.66,2565.03 2520.2,2566.61C2548.73,2568.2 2596.1,2582.69 2611.48,2611.23C2626.86,2639.76 2606.3,2630.58 2592,2635.78C2577.7,2640.97 2577.7,2690.97 2582.89,2709.15C2588.09,2727.33 2604.38,2797.8 2613.89,2824.75C2623.4,2851.7 2646.62,2991.86 2646.51,3006.47C2646.35,3027 2647.46,3040.54 2638.54,3055.15C2629.61,3069.76 2647.93,3056.61 2652.5,3049.55C2657.07,3042.48 2674.98,3014.1 2670.37,2992.2C2667.05,2976.41 2673.25,2947.72 2672.23,2930.48C2671.22,2913.23 2666.94,2880.28 2658.5,2857.56C2650.06,2834.83 2626.68,2814.7 2635.12,2781.59C2643.56,2748.47 2659.15,2659.52 2668.89,2640.69C2678.63,2621.86 2705.25,2597.19 2714.99,2595.24C2724.72,2593.29 2728.62,2542 2734.46,2527.72C2740.31,2513.43 2756.54,2523.17 2764.33,2519.92C2772.12,2516.68 2748.42,2510.35 2741.12,2491.68C2733.82,2473.01 2840.95,2417.82 2863.67,2408.89C2886.4,2399.97 2947.27,2368.31 2966.75,2379.68C2986.23,2391.04 3000.03,2412.14 3007.33,2384.55C3014.64,2356.95 3006.52,2363.44 3023.56,2357.76C3040.61,2352.08 3044.66,2353.7 3060.9,2367.5C3077.13,2381.3 3094.17,2391.85 3095.8,2407.27C3097.42,2422.69 3078.75,2432.43 3066.58,2436.49C3054.4,2440.55 3008.95,2447.04 3037.36,2470.58C3065.77,2494.11 3069.01,2496.55 3086.06,2498.17C3103.1,2499.8 3143.68,2520.09 3139.62,2535.51C3135.57,2550.93 3156.67,2561.48 3167.22,2570.41C3177.77,2579.33 3173.71,2597.19 3160.73,2613.42C3147.74,2629.65 3176.15,2690.53 3171.28,2704.32C3166.41,2718.12 3163.97,2787.92 3176.96,2809.83C3189.94,2831.75 3183.45,2878.01 3198.87,2889.37C3214.29,2900.74 3217.54,2870.7 3215.1,2853.66C3212.67,2836.62 3189.94,2759.51 3189.13,2740.03C3188.32,2720.55 3179.39,2656.44 3184.26,2631.28C3189.13,2606.12 3206.99,2594.76 3215.92,2583.39C3224.84,2572.03 3215.1,2563.91 3196.44,2553.36C3177.77,2542.81 3176.15,2518.46 3189.13,2498.98C3202.12,2479.51 3204.33,2465.07 3207.8,2451.91C3211,2439.77 3209.42,2408.08 3241.08,2416.2C3272.73,2424.32 3296.99,2455.89 3303.08,2470.1C3309.17,2484.3 3292.93,2506.62 3317.28,2510.68C3341.63,2514.74 3359.89,2503.58 3382.21,2489.37C3404.53,2475.17 3398.44,2471.11 3423.81,2476.18C3449.17,2481.26 3491.78,2494.45 3502.94,2475.17C3514.1,2455.89 3511.06,2442.7 3494.82,2447.78C3478.59,2452.85 3441.05,2470.1 3415.69,2464.01C3390.33,2457.92 3363.21,2475.51 3342.33,2475.93C3328.74,2476.21 3325.14,2456.41 3318.39,2450.18C3311.63,2443.95 3289.3,2406.55 3267.48,2399.28C3245.66,2392 3211.9,2394.6 3192.68,2380.58C3173.46,2366.55 3169.31,2349.93 3181.26,2329.67C3193.2,2309.41 3221.77,2276.69 3224.89,2262.66C3228,2248.64 3221.25,2223.71 3203.59,2221.11C3185.93,2218.51 3165.15,2222.67 3153.2,2223.19C3141.26,2223.71 3133.47,2212.28 3149.05,2197.73C3164.63,2183.19 3392.66,2069.95 3412.92,2072.55C3433.18,2075.15 3440.97,2077.74 3445.65,2066.84C3450.32,2055.93 3439.54,1970.05 3481.61,1961.22C3523.68,1952.39 3522.65,1956.55 3533.55,1952.39C3544.46,1948.24 3503.43,1927.98 3486.81,1924.86C3470.18,1921.75 3417.72,1935.77 3402.14,1935.25C3386.55,1934.73 3368.37,1926.42 3392.27,1912.4C3416.16,1898.37 3477.45,1893.7 3497.71,1901.49C3517.97,1909.28 3547.06,1907.72 3575.11,1915.51C3603.16,1923.3 3644.19,1908.76 3656.66,1914.47C3669.13,1920.19 3698.22,1939.41 3703.93,1925.9C3709.64,1912.4 3670.16,1869.28 3656.66,1867.2C3643.15,1865.13 3609.91,1870.32 3624.97,1855.78C3640.04,1841.23 3647.31,1818.9 3674.84,1817.34C3702.37,1815.78 3674.83,1756.57 3648.19,1728C3621.56,1699.43 3580.24,1687.73 3601.27,1647.43C3609.47,1631.72 3560.69,1624.61 3559.42,1611.92C3558.16,1599.24 3587.97,1605.37 3592.3,1604.04C3596.62,1602.71 3650.08,1600.01 3676.7,1611.05C3703.33,1622.09 3744.88,1631.83 3765.01,1641.57C3785.14,1651.31 3805.01,1660.74 3800.07,1642.21C3797.47,1632.48 3784.49,1638.97 3766.96,1629.23C3749.43,1619.49 3710.47,1613.65 3709.82,1602.61C3709.17,1591.57 3672.81,1592.22 3653.98,1591.57C3635.15,1590.92 3574.77,1599.36 3574.12,1583.78C3573.47,1568.19 3564.38,1559.11 3579.31,1550.66C3594.24,1542.22 3590.35,1528.59 3570.22,1521.45C3550.09,1514.3 3533.21,1496.77 3555.94,1481.84C3578.66,1466.9 3646.19,1442.23 3660.47,1440.93C3674.76,1439.63 3666.98,1428.79 3665.68,1413.21C3664.38,1397.62 3715.02,1394.38 3730.61,1391.78C3746.19,1389.18 3703.34,1380.74 3692.95,1380.09C3682.56,1379.44 3672.17,1365.81 3676.07,1343.73C3679.96,1321.66 3676.07,1324.25 3691,1318.41C3705.93,1312.57 3679.31,1308.67 3655.94,1302.83C3632.56,1296.98 3581.92,1295.68 3568.93,1286.59C3555.95,1277.5 3539.71,1256.08 3561.79,1239.85C3583.87,1223.61 3577.37,1207.38 3591.01,1199.59C3604.64,1191.8 3626.07,1165.83 3630.62,1158.03C3635.16,1150.24 3588.41,1155.44 3575.43,1150.89C3562.44,1146.35 3617.63,1121.67 3629.32,1107.39C3641,1093.11 3589.71,1092.46 3576.08,1077.52C3562.44,1062.59 3585.16,1044.41 3602.7,1041.16C3620.23,1037.91 3560.49,1032.07 3555.95,1015.19C3551.4,998.308 3613.73,965.843 3628.02,963.896C3642.3,961.948 3559.2,971.348 3546.86,965.843C3540.07,962.818 3540.66,957.894 3554,947.663C3570.82,934.761 3594.62,924.387 3581.32,915.245C3568.02,906.103 3573.84,899.038 3586.31,886.987C3598.77,874.937 3599.61,867.041 3610.82,859.561C3622.04,852.081 3570.1,850.004 3560.54,851.25C3550.99,852.497 3692.69,807.202 3719.7,803.047C3746.71,798.891 3770.8,803.376 3776.51,789.87C3782.22,776.365 3838.84,771.69 3857.02,773.768C3875.2,775.846 3903.77,760.782 3916.76,768.054C3929.74,775.326 3964.55,764.938 3969.22,751.952C3973.89,738.966 3948.44,743.641 3919.35,731.694C3890.26,719.747 3861.18,725.98 3839.88,729.616C3818.58,733.252 3814.95,744.16 3829.49,744.68C3844.04,745.199 3814.43,753.51 3802.48,752.991C3790.53,752.471 3766.64,763.379 3767.68,771.171C3768.72,778.962 3735.47,781.04 3728.2,781.04C3720.93,781.04 3671.58,778.443 3660.68,774.807C3649.77,771.171 3565.1,788.312 3549.52,787.273C3533.93,786.234 3489.78,777.404 3498.09,756.107C3506.4,734.81 3560.94,702.086 3585.88,692.736C3610.81,683.386 3721.45,644.429 3748.98,643.39C3776.51,642.351 3830.01,614.821 3853.39,621.574C3876.76,628.326 3910,623.132 3930.78,618.976C3951.56,614.821 3930.78,599.757 3898.58,595.082C3866.37,590.408 3858.06,595.602 3843.52,597.68C3828.97,599.757 3754.69,608.068 3731.84,609.107C3708.98,610.146 3681.45,617.418 3660.68,621.574C3639.9,625.729 3608.21,642.87 3584.84,633.521C3561.46,624.171 3542.3,616.558 3539.77,596.267C3537.23,575.977 3523.28,572.173 3490.31,564.564C3457.34,556.955 3429.44,540.469 3419.29,560.759C3409.15,581.05 3435.78,591.195 3454.8,589.927C3473.82,588.658 3506.8,593.731 3497.92,607.681C3489.04,621.63 3496.65,633.044 3466.21,641.921C3435.78,650.798 3434.51,667.284 3433.24,679.965C3431.97,692.647 3411.68,695.183 3371.1,692.647C3330.52,690.111 3327.99,693.915 3310.23,691.379C3292.48,688.842 3303.89,671.088 3273.45,658.407C3243.02,645.725 3255.7,662.211 3253.16,688.842C3250.63,715.474 3246.82,705.328 3216.39,710.401C3185.95,715.474 3117.47,733.228 3100.99,740.837C3084.5,748.445 3088.31,763.663 3061.67,764.931C3035.04,766.2 2966.56,770.004 2953.88,750.982C2941.2,731.96 2948.81,728.155 2989.39,730.691C3029.97,733.228 2943.74,709.133 2929.79,702.792C2915.84,696.451 2889.2,690.111 2906.96,672.356C2924.71,654.602 2936.13,655.87 2952.61,655.87C2969.1,655.87 2943.74,633.044 2924.71,629.239C2905.69,625.435 2953.88,612.753 2977.98,608.949C3002.07,605.144 2966.56,592.463 2950.08,593.731C2933.59,594.999 2908.23,600.072 2894.28,614.021C2880.33,627.971 2863.84,645.725 2852.43,633.044C2841.01,620.362 2844.82,607.681 2834.68,596.267C2824.53,584.854 2828.33,602.608 2824.53,620.362C2820.72,638.116 2796.33,627.202 2785.94,620.968C2775.55,614.735 2753.73,609.541 2749.06,621.488C2744.38,633.435 2780.74,646.94 2780.22,655.251C2779.7,663.562 2813.47,698.364 2794.25,702C2775.03,705.636 2710.62,710.831 2702.31,696.286C2694,681.742 2655.04,678.626 2652.44,656.809C2649.85,634.993 2636.86,637.071 2621.8,642.265C2606.73,647.46 2603.62,653.173 2596.86,662.523C2590.11,671.873 2555.31,681.742 2578.68,689.534C2602.06,697.325 2611.93,701.481 2598.94,704.078C2585.95,706.675 2555.31,716.025 2537.13,712.908C2518.95,709.792 2409.35,696.286 2388.57,680.703C2367.79,665.12 2363.51,653.952 2331.69,652.654C2299.88,651.355 2301.82,631.227 2277.15,637.071C2252.48,642.914 2238.84,653.952 2266.76,655.9C2294.68,657.848 2320.65,661.095 2321.95,670.185C2323.25,679.275 2362.86,700.052 2380.39,700.702C2397.92,701.351 2449.86,703.299 2462.85,718.233C2475.83,733.166 2510.25,737.062 2507.65,750.697C2505.05,764.332 2521.28,769.527 2531.02,767.579C2540.76,765.631 2535.57,776.669 2529.08,785.11C2522.58,793.551 2590.51,808.744 2584.73,823.678C2578.94,838.611 2567.51,841.598 2555.05,846.273C2542.58,850.948 2531.67,857.701 2544.14,881.075C2556.61,904.45 2520.25,933.538 2505.7,938.213C2491.16,942.888 2443.89,964.185 2415.32,945.485C2386.75,926.785 2384.67,921.591 2364.41,922.111C2344.16,922.63 2184.17,909.125 2150.93,912.761C2117.68,916.397 2051.2,934.244 2007.57,906.852C1963.95,879.46 1958.88,884.533 1941.63,886.562C1924.38,888.591 1909.16,878.446 1907.13,894.678C1905.11,910.91 1878.92,919.07 1858.97,922.395C1839.03,925.719 1800.38,921.564 1792.9,913.668C1785.42,905.773 1733.89,937.77 1744.28,956.47C1754.67,975.169 1730.98,999.271 1707.3,1001.35C1683.61,1003.43 1582.22,1025.87 1547.73,1022.96C1513.24,1020.05 1524.87,1025.04 1526.95,1033.76C1529.03,1042.49 1482.49,1040.83 1473.34,1041.66C1464.2,1042.49 1511.16,1059.94 1521.96,1080.72C1532.77,1101.5 1563.52,1106.9 1566.43,1118.95C1569.34,1131 1583.05,1153.44 1572.24,1160.92C1561.44,1168.4 1554.79,1186.27 1558.95,1196.66C1563.1,1207.05 1571.46,1219.28 1571.46,1219.28Z" style="fill:rgb(111,229,179);stroke:rgb(255,193,39);stroke-width:27.51px;"/>
        <path d="M1165.81,1725.52C1165.81,1725.52 1255.09,1682.91 1294.31,1709.29C1333.54,1735.66 1401.85,1755.28 1428.23,1751.89C1454.61,1748.51 1543.89,1728.9 1572.29,1770.83C1600.7,1812.77 1643.94,1933.56 1567.57,1960.4C1491.2,1987.23 1451.98,1989.29 1425.15,2020.25C1398.32,2051.22 1441.66,2096.62 1557.25,2166.8C1672.84,2236.98 2067.07,2311.28 2137.25,2305.09C2207.42,2298.9 2380.8,2325.73 2389.06,2375.27C2397.32,2424.81 2508.77,2400.04 2556.25,2338.12C2603.72,2276.2 2715.18,2276.2 2791.55,2292.71C2867.92,2309.22 3010.34,2257.62 3041.3,2226.66C3072.26,2195.7 3163.08,2152.35 3210.55,2109.01C3258.02,2065.66 3315.82,1956.07 3319.94,1907.66C3324.07,1859.26 3340.58,1809.72 3427.27,1782.89C3513.96,1756.06 3584.14,1745.74 3555.24,1710.65C3526.35,1675.56 3427.27,1654.92 3396.31,1646.66C3365.35,1638.41 3330.26,1595.06 3385.99,1524.88C3441.72,1454.71 3435.53,1351.5 3427.27,1304.03C3419.02,1256.56 3425.21,1184.32 3375.67,1147.16C3326.14,1110.01 3328.57,1021.39 3385.99,975.847C3445.85,928.374 3414.89,932.502 3474.75,907.734C3534.6,882.965 3509.84,856.133 3474.75,847.877C3439.66,839.62 3425.21,839.62 3429.34,798.34C3433.47,757.059 3466.49,746.738 3400.44,761.187C3334.39,775.635 3235.32,818.98 3150.69,816.916C3066.07,814.852 3010.34,856.133 2958.74,825.172C2907.14,794.211 2896.81,777.699 2820.45,767.379C2744.08,757.059 2583.08,730.226 2614.04,763.251C2645,796.275 2708.99,835.492 2735.82,870.581C2762.65,905.67 2820.45,1013 2781.23,1035.7C2742.01,1058.41 2500.52,1161.61 2366.36,1112.07C2232.19,1062.54 2095.97,955.207 2021.66,967.591C1947.35,979.975 1736.82,1010.94 1720.31,1070.79C1703.8,1130.65 1697.6,1207.02 1730.63,1221.47C1763.65,1235.92 1889.56,1268.94 1937.03,1285.45C1984.51,1301.97 2011.34,1310.22 2027.85,1361.82C2044.36,1413.42 2089.77,1454.71 2054.68,1458.83C2019.6,1462.96 1972.12,1454.71 1893.69,1425.81C1815.26,1396.91 1743.01,1485.67 1705.86,1491.86C1668.71,1498.05 1524.22,1469.15 1472.62,1483.6C1421.02,1498.05 1270.35,1477.41 1210.49,1495.99C1150.63,1514.56 1150.63,1553.78 1115.54,1597.13C1080.45,1640.47 1142.38,1621.89 1171.27,1652.85C1200.17,1683.82 1165.81,1725.52 1165.81,1725.52Z" style="fill:rgb(20,168,201);stroke:rgb(10,234,255);stroke-width:41.26px;"/>
        <path d="M2939.42,1138.13C2939.42,1138.13 2733.82,1283.26 2661.26,1275.2C2588.7,1267.13 2200.77,1218.76 2175.03,1263.1C2149.28,1307.45 2168.52,1392.11 2175.03,1464.67C2181.53,1537.23 2040.43,1517.08 1923.52,1517.08C1806.62,1517.08 1746.14,1543.15 1625.2,1574.46C1504.27,1605.77 1528.45,1638.02 1609.08,1670.27C1689.71,1702.52 1907.4,1676.89 1971.9,1728C2036.4,1779.11 2084.78,1765.13 2004.15,1806.39C1923.52,1847.65 1947.71,1932.31 2076.72,1944.4C2205.72,1956.49 2505.86,1926.77 2475.82,1843.62C2457.94,1794.12 2507.26,1819.31 2564.51,1806.39C2638.01,1789.79 2709.6,1772.9 2740.97,1728C2772.34,1683.1 3003.52,1645.13 3053.05,1659.99C3102.59,1674.85 3166.99,1669.89 3166.99,1592.29C3166.99,1514.68 3176.9,1494.86 3094.33,1494.86C3011.77,1494.86 2947.37,1524.59 2873.07,1453.58C2798.76,1382.58 2726.11,1395.79 2778.95,1339.65C2831.79,1283.5 2927.56,1255.43 2942.42,1210.85C2957.28,1166.27 2939.42,1138.13 2939.42,1138.13Z" style="fill:rgb(20,51,201);stroke:rgb(0,89,176);stroke-width:41.26px;"/>
    </g>
</svg>
